M48
; DRILL file {KiCad (5.1.4)-1} date 3/27/2020 12:44:52 AM
; FORMAT={-:-/ absolute / inch / decimal}
; #@! TF.CreationDate,2020-03-27T00:44:52-04:00
; #@! TF.GenerationSoftware,Kicad,Pcbnew,(5.1.4)-1
FMAT,2
INCH
T1C0.0157
T2C0.0276
T3C0.0300
T4C0.0354
T5C0.0433
T6C0.0630
T7C0.0866
%
G90
G05
T1
X2.21Y-3.16
X2.62Y-3.08
X2.65Y-3.525
X3.005Y-3.38
X3.125Y-3.855
X3.335Y-4.655
X3.344Y-3.75
X3.3617Y-5.0278
X3.495Y-4.37
X3.5Y-3.835
X3.607Y-5.026
X3.64Y-4.1
X3.64Y-4.3
X3.655Y-4.0
X3.67Y-4.19
X3.75Y-4.25
X3.787Y-2.9195
X3.91Y-3.96
X3.92Y-4.59
X3.925Y-4.105
X3.9497Y-4.05
X3.9725Y-3.8425
X3.9832Y-4.0969
X4.0Y-4.15
X4.005Y-4.37
X4.1Y-4.715
X4.1448Y-4.1159
X4.15Y-4.3
X4.18Y-4.19
X4.26Y-4.25
X4.2723Y-4.0506
X4.2975Y-2.919
X4.472Y-3.91
X4.48Y-4.64
X4.75Y-4.955
X4.8Y-3.75
X4.886Y-4.154
X4.886Y-4.37
X4.9235Y-3.83
X4.95Y-3.999
X4.9554Y-4.4214
X5.036Y-4.835
X5.11Y-4.1
X5.11Y-4.3
X5.125Y-4.0
X5.14Y-4.19
X5.22Y-4.25
X5.2625Y-2.919
X5.39Y-3.98
X5.4098Y-4.0541
X5.41Y-4.105
X5.452Y-4.835
X5.485Y-4.38
X5.6025Y-3.895
X5.62Y-4.1
X5.62Y-4.3
X5.646Y-4.0213
X5.65Y-4.19
X5.73Y-4.25
X5.7725Y-2.919
X5.805Y-4.47
X5.99Y-4.09
X5.992Y-3.902
X6.18Y-4.895
X6.23Y-5.015
X6.2325Y-4.915
X6.3Y-3.75
X6.37Y-4.12
X6.4Y-5.15
X6.42Y-4.37
X6.445Y-3.8275
X6.585Y-4.1
X6.585Y-4.3
X6.595Y-4.0
X6.615Y-4.19
X6.695Y-4.25
X6.735Y-2.919
X6.85Y-4.65
X6.8625Y-4.0999
X6.88Y-4.05
X6.89Y-4.41
X6.9Y-3.95
X6.935Y-4.05
X6.941Y-4.0111
X6.9532Y-4.0976
X7.095Y-4.1
X7.095Y-4.3
X7.1175Y-4.365
X7.125Y-4.19
X7.205Y-4.25
X7.2475Y-2.919
X7.39Y-4.795
X7.544Y-4.644
X7.58Y-4.585
X7.585Y-4.215
X7.595Y-4.735
X7.66Y-3.265
X7.9475Y-4.255
T2
X6.449Y-3.0465
X6.4506Y-3.6465
X6.549Y-3.0465
X6.549Y-3.6465
X6.649Y-3.0465
X6.649Y-3.6465
X6.749Y-3.0465
X6.749Y-3.6465
X6.849Y-3.0465
X6.849Y-3.6465
X4.0126Y-3.0465
X4.0142Y-3.6465
X4.1126Y-3.0465
X4.1126Y-3.6465
X4.2126Y-3.0465
X4.2126Y-3.6465
X4.3126Y-3.0465
X4.3126Y-3.6465
X4.4126Y-3.0465
X4.4126Y-3.6465
X3.5008Y-3.0465
X3.5024Y-3.6465
X3.6008Y-3.0465
X3.6008Y-3.6465
X3.7008Y-3.0465
X3.7008Y-3.6465
X3.8008Y-3.0465
X3.8008Y-3.6465
X3.9008Y-3.0465
X3.9008Y-3.6465
X5.4867Y-3.0465
X5.4883Y-3.6465
X5.5867Y-3.0465
X5.5867Y-3.6465
X5.6867Y-3.0465
X5.6867Y-3.6465
X5.7867Y-3.0465
X5.7867Y-3.6465
X5.8867Y-3.0465
X5.8867Y-3.6465
X4.9749Y-3.0465
X4.9765Y-3.6465
X5.0749Y-3.0465
X5.0749Y-3.6465
X5.1749Y-3.0465
X5.1749Y-3.6465
X5.2749Y-3.0465
X5.2749Y-3.6465
X5.3749Y-3.0465
X5.3749Y-3.6465
X6.9608Y-3.0465
X6.9624Y-3.6465
X7.0608Y-3.0465
X7.0608Y-3.6465
X7.1608Y-3.0465
X7.1608Y-3.6465
X7.2608Y-3.0465
X7.2608Y-3.6465
X7.3608Y-3.0465
X7.3608Y-3.6465
T3
X7.62Y-3.37
X7.62Y-3.47
X7.62Y-3.57
X7.62Y-3.67
X7.92Y-3.37
X7.92Y-3.47
X7.92Y-3.57
X7.92Y-3.67
T4
X2.41Y-4.605
X2.51Y-4.605
X2.61Y-4.605
T5
X3.18Y-4.48
X3.18Y-4.78
X4.78Y-4.255
X4.78Y-4.555
X3.02Y-4.48
X3.02Y-4.78
X4.62Y-4.255
X4.62Y-4.555
T6
X2.1688Y-4.04
X2.2869Y-4.225
X2.405Y-4.04
T7
X2.3Y-2.83
X8.0Y-2.83
X8.0Y-5.1
X2.3Y-5.1
T0
M30
