G04 #@! TF.GenerationSoftware,KiCad,Pcbnew,(5.1.4)-1*
G04 #@! TF.CreationDate,2020-03-17T12:53:42-04:00*
G04 #@! TF.ProjectId,counter,636f756e-7465-4722-9e6b-696361645f70,v01*
G04 #@! TF.SameCoordinates,Original*
G04 #@! TF.FileFunction,Legend,Top*
G04 #@! TF.FilePolarity,Positive*
%FSLAX46Y46*%
G04 Gerber Fmt 4.6, Leading zero omitted, Abs format (unit mm)*
G04 Created by KiCad (PCBNEW (5.1.4)-1) date 2020-03-17 12:53:42*
%MOMM*%
%LPD*%
G04 APERTURE LIST*
%ADD10C,0.150000*%
%ADD11C,0.152400*%
%ADD12C,0.127000*%
%ADD13C,0.120000*%
%ADD14C,0.200000*%
%ADD15C,0.100000*%
G04 APERTURE END LIST*
D10*
X77215952Y-99013971D02*
X76454047Y-99013971D01*
X74548952Y-99013971D02*
X73787047Y-99013971D01*
X74168000Y-98633019D02*
X74168000Y-99394923D01*
X60833047Y-81199028D02*
X61594952Y-81199028D01*
X61214000Y-81579980D02*
X61214000Y-80818076D01*
X58166047Y-81199028D02*
X58927952Y-81199028D01*
X67143380Y-120610380D02*
X67333857Y-120610380D01*
X67429095Y-120658000D01*
X67524333Y-120753238D01*
X67571952Y-120943714D01*
X67571952Y-121277047D01*
X67524333Y-121467523D01*
X67429095Y-121562761D01*
X67333857Y-121610380D01*
X67143380Y-121610380D01*
X67048142Y-121562761D01*
X66952904Y-121467523D01*
X66905285Y-121277047D01*
X66905285Y-120943714D01*
X66952904Y-120753238D01*
X67048142Y-120658000D01*
X67143380Y-120610380D01*
X68000523Y-120943714D02*
X68000523Y-121610380D01*
X68000523Y-121038952D02*
X68048142Y-120991333D01*
X68143380Y-120943714D01*
X68286238Y-120943714D01*
X68381476Y-120991333D01*
X68429095Y-121086571D01*
X68429095Y-121610380D01*
X59023333Y-120483380D02*
X59213809Y-120483380D01*
X59309047Y-120531000D01*
X59404285Y-120626238D01*
X59451904Y-120816714D01*
X59451904Y-121150047D01*
X59404285Y-121340523D01*
X59309047Y-121435761D01*
X59213809Y-121483380D01*
X59023333Y-121483380D01*
X58928095Y-121435761D01*
X58832857Y-121340523D01*
X58785238Y-121150047D01*
X58785238Y-120816714D01*
X58832857Y-120626238D01*
X58928095Y-120531000D01*
X59023333Y-120483380D01*
X59737619Y-120816714D02*
X60118571Y-120816714D01*
X59880476Y-121483380D02*
X59880476Y-120626238D01*
X59928095Y-120531000D01*
X60023333Y-120483380D01*
X60118571Y-120483380D01*
X60309047Y-120816714D02*
X60690000Y-120816714D01*
X60451904Y-121483380D02*
X60451904Y-120626238D01*
X60499523Y-120531000D01*
X60594761Y-120483380D01*
X60690000Y-120483380D01*
D11*
X67132200Y-105930700D02*
G75*
G03X67132200Y-105930700I-76200J0D01*
G01*
D12*
X161880000Y-100684000D02*
X161880000Y-100484000D01*
X163240000Y-100684000D02*
X163240000Y-100484000D01*
X107120000Y-74140000D02*
X106880000Y-74140000D01*
X107120000Y-73180000D02*
X106880000Y-73180000D01*
D11*
X141648000Y-111245100D02*
X147236000Y-111245100D01*
X147236000Y-100754900D02*
X141648000Y-100754900D01*
X149407700Y-108984500D02*
X149407700Y-109365500D01*
X149407700Y-109365500D02*
X149153700Y-109365500D01*
X149153700Y-109365500D02*
X149153700Y-108984500D01*
X149153700Y-108984500D02*
X149407700Y-108984500D01*
X144137200Y-100754900D02*
G75*
G03X144746800Y-100754900I304800J0D01*
G01*
D13*
X113350000Y-75475000D02*
X113350000Y-94525000D01*
X100650000Y-75475000D02*
X100650000Y-94525000D01*
X100650000Y-94525000D02*
X113350000Y-94525000D01*
X113350000Y-75475000D02*
X100650000Y-75475000D01*
D12*
X86950000Y-100684000D02*
X86950000Y-100484000D01*
X88310000Y-100684000D02*
X88310000Y-100484000D01*
D14*
X139076000Y-124065000D02*
G75*
G03X139076000Y-124065000I-100000J0D01*
G01*
D12*
X141376000Y-127465000D02*
X141376000Y-125265000D01*
X147676000Y-125265000D02*
X147676000Y-127465000D01*
X141676000Y-129515000D02*
X147376000Y-129515000D01*
X141676000Y-123215000D02*
X147376000Y-123215000D01*
D11*
X190030100Y-122224800D02*
X194271900Y-122224800D01*
X194271900Y-113233200D02*
X190030100Y-113233200D01*
X196113400Y-118808500D02*
X196113400Y-119189500D01*
X196113400Y-119189500D02*
X195859400Y-119189500D01*
X195859400Y-119189500D02*
X195859400Y-118808500D01*
X195859400Y-118808500D02*
X196113400Y-118808500D01*
D12*
X154497000Y-121655000D02*
X155637000Y-121655000D01*
X154497000Y-123455000D02*
X155637000Y-123455000D01*
X165377000Y-130614000D02*
X165077000Y-130614000D01*
X165377000Y-131514000D02*
X165077000Y-131514000D01*
X62221000Y-78406000D02*
X61421000Y-77606000D01*
X62221000Y-78806000D02*
X62221000Y-78406000D01*
X57921000Y-77606000D02*
X61421000Y-77606000D01*
X57921000Y-78806000D02*
X57921000Y-77606000D01*
X62221000Y-81106000D02*
X61421000Y-81906000D01*
X62221000Y-80706000D02*
X62221000Y-81106000D01*
X57921000Y-81906000D02*
X61421000Y-81906000D01*
X57921000Y-80706000D02*
X57921000Y-81906000D01*
X197127000Y-83381000D02*
X196827000Y-83381000D01*
X197127000Y-82481000D02*
X196827000Y-82481000D01*
X77511800Y-96611400D02*
X77511800Y-95411400D01*
X77511800Y-95411400D02*
X74011800Y-95411400D01*
X73211800Y-96611400D02*
X73211800Y-96211400D01*
X73211800Y-96211400D02*
X74011800Y-95411400D01*
X77511800Y-98511400D02*
X77511800Y-99711400D01*
X77511800Y-99711400D02*
X74011800Y-99711400D01*
X73211800Y-98511400D02*
X73211800Y-98911400D01*
X73211800Y-98911400D02*
X74011800Y-99711400D01*
D13*
X71450000Y-76600900D02*
X67365000Y-76600900D01*
X67365000Y-76600900D02*
X67365000Y-78770900D01*
X67365000Y-78770900D02*
X71450000Y-78770900D01*
X56287000Y-107216000D02*
X47287000Y-107216000D01*
X47287000Y-107216000D02*
X47287000Y-98016000D01*
X47287000Y-98016000D02*
X61887000Y-98016000D01*
X61887000Y-98016000D02*
X61887000Y-100816000D01*
X61887000Y-104416000D02*
X61887000Y-107216000D01*
X61887000Y-107216000D02*
X59887000Y-107216000D01*
X60387000Y-97776000D02*
X62127000Y-97776000D01*
X62127000Y-97776000D02*
X62127000Y-99516000D01*
D11*
X181579200Y-100754900D02*
G75*
G03X182188800Y-100754900I304800J0D01*
G01*
X186595700Y-108984500D02*
X186849700Y-108984500D01*
X186595700Y-109365500D02*
X186595700Y-108984500D01*
X186849700Y-109365500D02*
X186595700Y-109365500D01*
X186849700Y-108984500D02*
X186849700Y-109365500D01*
X184678000Y-100754900D02*
X179090000Y-100754900D01*
X179090000Y-111245100D02*
X184678000Y-111245100D01*
X166090000Y-111245100D02*
X171678000Y-111245100D01*
X171678000Y-100754900D02*
X166090000Y-100754900D01*
X173849700Y-108984500D02*
X173849700Y-109365500D01*
X173849700Y-109365500D02*
X173595700Y-109365500D01*
X173595700Y-109365500D02*
X173595700Y-108984500D01*
X173595700Y-108984500D02*
X173849700Y-108984500D01*
X168579200Y-100754900D02*
G75*
G03X169188800Y-100754900I304800J0D01*
G01*
X106695200Y-100754900D02*
G75*
G03X107304800Y-100754900I304800J0D01*
G01*
X111711700Y-108984500D02*
X111965700Y-108984500D01*
X111711700Y-109365500D02*
X111711700Y-108984500D01*
X111965700Y-109365500D02*
X111711700Y-109365500D01*
X111965700Y-108984500D02*
X111965700Y-109365500D01*
X109794000Y-100754900D02*
X104206000Y-100754900D01*
X104206000Y-111245100D02*
X109794000Y-111245100D01*
X91206000Y-111245100D02*
X96794000Y-111245100D01*
X96794000Y-100754900D02*
X91206000Y-100754900D01*
X98965700Y-108984500D02*
X98965700Y-109365500D01*
X98965700Y-109365500D02*
X98711700Y-109365500D01*
X98711700Y-109365500D02*
X98711700Y-108984500D01*
X98711700Y-108984500D02*
X98965700Y-108984500D01*
X93695200Y-100754900D02*
G75*
G03X94304800Y-100754900I304800J0D01*
G01*
D12*
X138530000Y-134411000D02*
X138330000Y-134411000D01*
X138530000Y-133051000D02*
X138330000Y-133051000D01*
X139727000Y-98978000D02*
X139927000Y-98978000D01*
X139727000Y-97618000D02*
X139927000Y-97618000D01*
X102335000Y-98126000D02*
X102135000Y-98126000D01*
X102335000Y-99486000D02*
X102135000Y-99486000D01*
X74394000Y-78416800D02*
X74394000Y-78656800D01*
X73434000Y-78416800D02*
X73434000Y-78656800D01*
X197313000Y-119480000D02*
X197313000Y-119280000D01*
X198673000Y-119480000D02*
X198673000Y-119280000D01*
X198601000Y-115525000D02*
X198401000Y-115525000D01*
X198601000Y-116885000D02*
X198401000Y-116885000D01*
X182004000Y-73180000D02*
X181764000Y-73180000D01*
X182004000Y-74140000D02*
X181764000Y-74140000D01*
X144562000Y-74140000D02*
X144322000Y-74140000D01*
X144562000Y-73180000D02*
X144322000Y-73180000D01*
X124542000Y-100684000D02*
X124542000Y-100484000D01*
X125902000Y-100684000D02*
X125902000Y-100484000D01*
X169004000Y-74140000D02*
X168764000Y-74140000D01*
X169004000Y-73180000D02*
X168764000Y-73180000D01*
X131562000Y-73180000D02*
X131322000Y-73180000D01*
X131562000Y-74140000D02*
X131322000Y-74140000D01*
X94120000Y-73180000D02*
X93880000Y-73180000D01*
X94120000Y-74140000D02*
X93880000Y-74140000D01*
X118518000Y-128479000D02*
X118718000Y-128479000D01*
X118518000Y-129839000D02*
X118718000Y-129839000D01*
X88797000Y-128352000D02*
X88597000Y-128352000D01*
X88797000Y-129712000D02*
X88597000Y-129712000D01*
X153833600Y-120159200D02*
X152693600Y-120159200D01*
X153833600Y-118499200D02*
X152693600Y-118499200D01*
X202012000Y-104802000D02*
X202012000Y-105002000D01*
X203372000Y-104802000D02*
X203372000Y-105002000D01*
D11*
X131137200Y-100754900D02*
G75*
G03X131746800Y-100754900I304800J0D01*
G01*
X136153700Y-108984500D02*
X136407700Y-108984500D01*
X136153700Y-109365500D02*
X136153700Y-108984500D01*
X136407700Y-109365500D02*
X136153700Y-109365500D01*
X136407700Y-108984500D02*
X136407700Y-109365500D01*
X134236000Y-100754900D02*
X128648000Y-100754900D01*
X128648000Y-111245100D02*
X134236000Y-111245100D01*
D12*
X107132000Y-123215000D02*
X112832000Y-123215000D01*
X107132000Y-129515000D02*
X112832000Y-129515000D01*
X113132000Y-125265000D02*
X113132000Y-127465000D01*
X106832000Y-127465000D02*
X106832000Y-125265000D01*
D14*
X104532000Y-124065000D02*
G75*
G03X104532000Y-124065000I-100000J0D01*
G01*
D12*
X128429400Y-123215000D02*
X134129400Y-123215000D01*
X128429400Y-129515000D02*
X134129400Y-129515000D01*
X134429400Y-125265000D02*
X134429400Y-127465000D01*
X128129400Y-127465000D02*
X128129400Y-125265000D01*
D14*
X125829400Y-124065000D02*
G75*
G03X125829400Y-124065000I-100000J0D01*
G01*
D11*
X84574200Y-120865900D02*
X84574200Y-125107700D01*
X94835800Y-125107700D02*
X94835800Y-120865900D01*
X86720500Y-126949200D02*
X86339500Y-126949200D01*
X86339500Y-126949200D02*
X86339500Y-126695200D01*
X86339500Y-126695200D02*
X86720500Y-126695200D01*
X86720500Y-126695200D02*
X86720500Y-126949200D01*
X194983100Y-107365800D02*
X199224900Y-107365800D01*
X199224900Y-97104200D02*
X194983100Y-97104200D01*
X201066400Y-105219500D02*
X201066400Y-105600500D01*
X201066400Y-105600500D02*
X200812400Y-105600500D01*
X200812400Y-105600500D02*
X200812400Y-105219500D01*
X200812400Y-105219500D02*
X201066400Y-105219500D01*
X160655000Y-130124200D02*
X166497000Y-130124200D01*
X166497000Y-130124200D02*
X166497000Y-129263140D01*
X166497000Y-123367800D02*
X160655000Y-123367800D01*
X160655000Y-123367800D02*
X160655000Y-124228860D01*
X160655000Y-129263140D02*
X160655000Y-130124200D01*
X166497000Y-124228860D02*
X166497000Y-123367800D01*
D13*
X74046000Y-92945000D02*
X74046000Y-91685000D01*
X74046000Y-86125000D02*
X74046000Y-87385000D01*
X70286000Y-92945000D02*
X74046000Y-92945000D01*
X68036000Y-86125000D02*
X74046000Y-86125000D01*
D15*
X202538000Y-94598000D02*
X202538000Y-94098000D01*
X202538000Y-94598000D02*
X202038000Y-94598000D01*
X192168000Y-94588000D02*
X192668000Y-94588000D01*
X192168000Y-94588000D02*
X192168000Y-94088000D01*
X192148000Y-84198000D02*
X192148000Y-84698000D01*
X192148000Y-84198000D02*
X192648000Y-84198000D01*
X202548000Y-84198000D02*
X202548000Y-84698000D01*
X202548000Y-84198000D02*
X202048000Y-84198000D01*
D13*
X122882000Y-109947000D02*
X119942000Y-109947000D01*
X122882000Y-110187000D02*
X119942000Y-110187000D01*
X122882000Y-110067000D02*
X119942000Y-110067000D01*
X119942000Y-114607000D02*
X120072000Y-114607000D01*
X119942000Y-109167000D02*
X119942000Y-114607000D01*
X120072000Y-109167000D02*
X119942000Y-109167000D01*
X122882000Y-114607000D02*
X122752000Y-114607000D01*
X122882000Y-109167000D02*
X122882000Y-114607000D01*
X122752000Y-109167000D02*
X122882000Y-109167000D01*
X118688000Y-109167000D02*
X118818000Y-109167000D01*
X118818000Y-109167000D02*
X118818000Y-114607000D01*
X118818000Y-114607000D02*
X118688000Y-114607000D01*
X116008000Y-109167000D02*
X115878000Y-109167000D01*
X115878000Y-109167000D02*
X115878000Y-114607000D01*
X115878000Y-114607000D02*
X116008000Y-114607000D01*
X118818000Y-110067000D02*
X115878000Y-110067000D01*
X118818000Y-110187000D02*
X115878000Y-110187000D01*
X118818000Y-109947000D02*
X115878000Y-109947000D01*
X79302000Y-119542000D02*
X82242000Y-119542000D01*
X79302000Y-119302000D02*
X82242000Y-119302000D01*
X79302000Y-119422000D02*
X82242000Y-119422000D01*
X82242000Y-114882000D02*
X82112000Y-114882000D01*
X82242000Y-120322000D02*
X82242000Y-114882000D01*
X82112000Y-120322000D02*
X82242000Y-120322000D01*
X79302000Y-114882000D02*
X79432000Y-114882000D01*
X79302000Y-120322000D02*
X79302000Y-114882000D01*
X79432000Y-120322000D02*
X79302000Y-120322000D01*
X75368000Y-120322000D02*
X75238000Y-120322000D01*
X75238000Y-120322000D02*
X75238000Y-114882000D01*
X75238000Y-114882000D02*
X75368000Y-114882000D01*
X78048000Y-120322000D02*
X78178000Y-120322000D01*
X78178000Y-120322000D02*
X78178000Y-114882000D01*
X78178000Y-114882000D02*
X78048000Y-114882000D01*
X75238000Y-119422000D02*
X78178000Y-119422000D01*
X75238000Y-119302000D02*
X78178000Y-119302000D01*
X75238000Y-119542000D02*
X78178000Y-119542000D01*
X100350000Y-75475000D02*
X100350000Y-94525000D01*
X87650000Y-75475000D02*
X87650000Y-94525000D01*
X87650000Y-94525000D02*
X100350000Y-94525000D01*
X100350000Y-75475000D02*
X87650000Y-75475000D01*
X188234000Y-75475000D02*
X188234000Y-94525000D01*
X175534000Y-75475000D02*
X175534000Y-94525000D01*
X175534000Y-94525000D02*
X188234000Y-94525000D01*
X188234000Y-75475000D02*
X175534000Y-75475000D01*
X175234000Y-75475000D02*
X162534000Y-75475000D01*
X162534000Y-94525000D02*
X175234000Y-94525000D01*
X162534000Y-75475000D02*
X162534000Y-94525000D01*
X175234000Y-75475000D02*
X175234000Y-94525000D01*
X150792000Y-75475000D02*
X150792000Y-94525000D01*
X138092000Y-75475000D02*
X138092000Y-94525000D01*
X138092000Y-94525000D02*
X150792000Y-94525000D01*
X150792000Y-75475000D02*
X138092000Y-75475000D01*
X137792000Y-75475000D02*
X125092000Y-75475000D01*
X125092000Y-94525000D02*
X137792000Y-94525000D01*
X125092000Y-75475000D02*
X125092000Y-94525000D01*
X137792000Y-75475000D02*
X137792000Y-94525000D01*
D12*
X57912000Y-114935000D02*
X63500000Y-114935000D01*
X63500000Y-114935000D02*
X63754000Y-115189000D01*
X63754000Y-115189000D02*
X64008000Y-114935000D01*
X64008000Y-114935000D02*
X69596000Y-114935000D01*
X69596000Y-114935000D02*
X69596000Y-115443000D01*
X69596000Y-115443000D02*
X69088000Y-115443000D01*
X69088000Y-115443000D02*
X69088000Y-118491000D01*
X69088000Y-118491000D02*
X69596000Y-118491000D01*
X69596000Y-118491000D02*
X69596000Y-118999000D01*
X69596000Y-118999000D02*
X64008000Y-118999000D01*
X64008000Y-118999000D02*
X63754000Y-118745000D01*
X63754000Y-118745000D02*
X63500000Y-118999000D01*
X63500000Y-118999000D02*
X57912000Y-118999000D01*
X57912000Y-118999000D02*
X57912000Y-118491000D01*
X57912000Y-118491000D02*
X58420000Y-118491000D01*
X58420000Y-118491000D02*
X58420000Y-115443000D01*
X58420000Y-115443000D02*
X57912000Y-115443000D01*
X57912000Y-115443000D02*
X57912000Y-114935000D01*
X61722000Y-115951000D02*
X61722000Y-117983000D01*
X61976000Y-117983000D02*
X61976000Y-115951000D01*
X62230000Y-115951000D02*
X62230000Y-117983000D01*
X62484000Y-117983000D02*
X62484000Y-115951000D01*
X62738000Y-115951000D02*
X62738000Y-117983000D01*
X62992000Y-117983000D02*
X62992000Y-115951000D01*
X63246000Y-115951000D02*
X63246000Y-117983000D01*
D10*
X65460571Y-108130933D02*
X65460571Y-108464266D01*
X65984380Y-108464266D02*
X64984380Y-108464266D01*
X64984380Y-107988076D01*
X65984380Y-107083314D02*
X65984380Y-107654742D01*
X65984380Y-107369028D02*
X64984380Y-107369028D01*
X65127238Y-107464266D01*
X65222476Y-107559504D01*
X65270095Y-107654742D01*
X161386780Y-101252457D02*
X160910590Y-101585790D01*
X161386780Y-101823885D02*
X160386780Y-101823885D01*
X160386780Y-101442933D01*
X160434400Y-101347695D01*
X160482019Y-101300076D01*
X160577257Y-101252457D01*
X160720114Y-101252457D01*
X160815352Y-101300076D01*
X160862971Y-101347695D01*
X160910590Y-101442933D01*
X160910590Y-101823885D01*
X161386780Y-100300076D02*
X161386780Y-100871504D01*
X161386780Y-100585790D02*
X160386780Y-100585790D01*
X160529638Y-100681028D01*
X160624876Y-100776266D01*
X160672495Y-100871504D01*
X160386780Y-99966742D02*
X160386780Y-99347695D01*
X160767733Y-99681028D01*
X160767733Y-99538171D01*
X160815352Y-99442933D01*
X160862971Y-99395314D01*
X160958209Y-99347695D01*
X161196304Y-99347695D01*
X161291542Y-99395314D01*
X161339161Y-99442933D01*
X161386780Y-99538171D01*
X161386780Y-99823885D01*
X161339161Y-99919123D01*
X161291542Y-99966742D01*
X106418142Y-72715380D02*
X106084809Y-72239190D01*
X105846714Y-72715380D02*
X105846714Y-71715380D01*
X106227666Y-71715380D01*
X106322904Y-71763000D01*
X106370523Y-71810619D01*
X106418142Y-71905857D01*
X106418142Y-72048714D01*
X106370523Y-72143952D01*
X106322904Y-72191571D01*
X106227666Y-72239190D01*
X105846714Y-72239190D01*
X107370523Y-72715380D02*
X106799095Y-72715380D01*
X107084809Y-72715380D02*
X107084809Y-71715380D01*
X106989571Y-71858238D01*
X106894333Y-71953476D01*
X106799095Y-72001095D01*
X108322904Y-72715380D02*
X107751476Y-72715380D01*
X108037190Y-72715380D02*
X108037190Y-71715380D01*
X107941952Y-71858238D01*
X107846714Y-71953476D01*
X107751476Y-72001095D01*
X86405980Y-101227057D02*
X85929790Y-101560390D01*
X86405980Y-101798485D02*
X85405980Y-101798485D01*
X85405980Y-101417533D01*
X85453600Y-101322295D01*
X85501219Y-101274676D01*
X85596457Y-101227057D01*
X85739314Y-101227057D01*
X85834552Y-101274676D01*
X85882171Y-101322295D01*
X85929790Y-101417533D01*
X85929790Y-101798485D01*
X86405980Y-100274676D02*
X86405980Y-100846104D01*
X86405980Y-100560390D02*
X85405980Y-100560390D01*
X85548838Y-100655628D01*
X85644076Y-100750866D01*
X85691695Y-100846104D01*
X85405980Y-99369914D02*
X85405980Y-99846104D01*
X85882171Y-99893723D01*
X85834552Y-99846104D01*
X85786933Y-99750866D01*
X85786933Y-99512771D01*
X85834552Y-99417533D01*
X85882171Y-99369914D01*
X85977409Y-99322295D01*
X86215504Y-99322295D01*
X86310742Y-99369914D01*
X86358361Y-99417533D01*
X86405980Y-99512771D01*
X86405980Y-99750866D01*
X86358361Y-99846104D01*
X86310742Y-99893723D01*
X118451333Y-132310142D02*
X118403714Y-132357761D01*
X118260857Y-132405380D01*
X118165619Y-132405380D01*
X118022761Y-132357761D01*
X117927523Y-132262523D01*
X117879904Y-132167285D01*
X117832285Y-131976809D01*
X117832285Y-131833952D01*
X117879904Y-131643476D01*
X117927523Y-131548238D01*
X118022761Y-131453000D01*
X118165619Y-131405380D01*
X118260857Y-131405380D01*
X118403714Y-131453000D01*
X118451333Y-131500619D01*
X119403714Y-132405380D02*
X118832285Y-132405380D01*
X119118000Y-132405380D02*
X119118000Y-131405380D01*
X119022761Y-131548238D01*
X118927523Y-131643476D01*
X118832285Y-131691095D01*
X154949333Y-124842542D02*
X154901714Y-124890161D01*
X154758857Y-124937780D01*
X154663619Y-124937780D01*
X154520761Y-124890161D01*
X154425523Y-124794923D01*
X154377904Y-124699685D01*
X154330285Y-124509209D01*
X154330285Y-124366352D01*
X154377904Y-124175876D01*
X154425523Y-124080638D01*
X154520761Y-123985400D01*
X154663619Y-123937780D01*
X154758857Y-123937780D01*
X154901714Y-123985400D01*
X154949333Y-124033019D01*
X155330285Y-124033019D02*
X155377904Y-123985400D01*
X155473142Y-123937780D01*
X155711238Y-123937780D01*
X155806476Y-123985400D01*
X155854095Y-124033019D01*
X155901714Y-124128257D01*
X155901714Y-124223495D01*
X155854095Y-124366352D01*
X155282666Y-124937780D01*
X155901714Y-124937780D01*
X165060333Y-132945142D02*
X165012714Y-132992761D01*
X164869857Y-133040380D01*
X164774619Y-133040380D01*
X164631761Y-132992761D01*
X164536523Y-132897523D01*
X164488904Y-132802285D01*
X164441285Y-132611809D01*
X164441285Y-132468952D01*
X164488904Y-132278476D01*
X164536523Y-132183238D01*
X164631761Y-132088000D01*
X164774619Y-132040380D01*
X164869857Y-132040380D01*
X165012714Y-132088000D01*
X165060333Y-132135619D01*
X165393666Y-132040380D02*
X166012714Y-132040380D01*
X165679380Y-132421333D01*
X165822238Y-132421333D01*
X165917476Y-132468952D01*
X165965095Y-132516571D01*
X166012714Y-132611809D01*
X166012714Y-132849904D01*
X165965095Y-132945142D01*
X165917476Y-132992761D01*
X165822238Y-133040380D01*
X165536523Y-133040380D01*
X165441285Y-132992761D01*
X165393666Y-132945142D01*
X59777333Y-76684142D02*
X59729714Y-76731761D01*
X59586857Y-76779380D01*
X59491619Y-76779380D01*
X59348761Y-76731761D01*
X59253523Y-76636523D01*
X59205904Y-76541285D01*
X59158285Y-76350809D01*
X59158285Y-76207952D01*
X59205904Y-76017476D01*
X59253523Y-75922238D01*
X59348761Y-75827000D01*
X59491619Y-75779380D01*
X59586857Y-75779380D01*
X59729714Y-75827000D01*
X59777333Y-75874619D01*
X60634476Y-76112714D02*
X60634476Y-76779380D01*
X60396380Y-75731761D02*
X60158285Y-76446047D01*
X60777333Y-76446047D01*
X196810333Y-81891142D02*
X196762714Y-81938761D01*
X196619857Y-81986380D01*
X196524619Y-81986380D01*
X196381761Y-81938761D01*
X196286523Y-81843523D01*
X196238904Y-81748285D01*
X196191285Y-81557809D01*
X196191285Y-81414952D01*
X196238904Y-81224476D01*
X196286523Y-81129238D01*
X196381761Y-81034000D01*
X196524619Y-80986380D01*
X196619857Y-80986380D01*
X196762714Y-81034000D01*
X196810333Y-81081619D01*
X197715095Y-80986380D02*
X197238904Y-80986380D01*
X197191285Y-81462571D01*
X197238904Y-81414952D01*
X197334142Y-81367333D01*
X197572238Y-81367333D01*
X197667476Y-81414952D01*
X197715095Y-81462571D01*
X197762714Y-81557809D01*
X197762714Y-81795904D01*
X197715095Y-81891142D01*
X197667476Y-81938761D01*
X197572238Y-81986380D01*
X197334142Y-81986380D01*
X197238904Y-81938761D01*
X197191285Y-81891142D01*
X75322133Y-94692742D02*
X75274514Y-94740361D01*
X75131657Y-94787980D01*
X75036419Y-94787980D01*
X74893561Y-94740361D01*
X74798323Y-94645123D01*
X74750704Y-94549885D01*
X74703085Y-94359409D01*
X74703085Y-94216552D01*
X74750704Y-94026076D01*
X74798323Y-93930838D01*
X74893561Y-93835600D01*
X75036419Y-93787980D01*
X75131657Y-93787980D01*
X75274514Y-93835600D01*
X75322133Y-93883219D01*
X76179276Y-93787980D02*
X75988800Y-93787980D01*
X75893561Y-93835600D01*
X75845942Y-93883219D01*
X75750704Y-94026076D01*
X75703085Y-94216552D01*
X75703085Y-94597504D01*
X75750704Y-94692742D01*
X75798323Y-94740361D01*
X75893561Y-94787980D01*
X76084038Y-94787980D01*
X76179276Y-94740361D01*
X76226895Y-94692742D01*
X76274514Y-94597504D01*
X76274514Y-94359409D01*
X76226895Y-94264171D01*
X76179276Y-94216552D01*
X76084038Y-94168933D01*
X75893561Y-94168933D01*
X75798323Y-94216552D01*
X75750704Y-94264171D01*
X75703085Y-94359409D01*
X68984904Y-76271380D02*
X68984904Y-75271380D01*
X69223000Y-75271380D01*
X69365857Y-75319000D01*
X69461095Y-75414238D01*
X69508714Y-75509476D01*
X69556333Y-75699952D01*
X69556333Y-75842809D01*
X69508714Y-76033285D01*
X69461095Y-76128523D01*
X69365857Y-76223761D01*
X69223000Y-76271380D01*
X68984904Y-76271380D01*
X70461095Y-75271380D02*
X69984904Y-75271380D01*
X69937285Y-75747571D01*
X69984904Y-75699952D01*
X70080142Y-75652333D01*
X70318238Y-75652333D01*
X70413476Y-75699952D01*
X70461095Y-75747571D01*
X70508714Y-75842809D01*
X70508714Y-76080904D01*
X70461095Y-76176142D01*
X70413476Y-76223761D01*
X70318238Y-76271380D01*
X70080142Y-76271380D01*
X69984904Y-76223761D01*
X69937285Y-76176142D01*
X55213333Y-94916761D02*
X55213333Y-96345333D01*
X55118095Y-96631047D01*
X54927619Y-96821523D01*
X54641904Y-96916761D01*
X54451428Y-96916761D01*
X57213333Y-96916761D02*
X56070476Y-96916761D01*
X56641904Y-96916761D02*
X56641904Y-94916761D01*
X56451428Y-95202476D01*
X56260952Y-95392952D01*
X56070476Y-95488190D01*
X138263333Y-132608380D02*
X137930000Y-132132190D01*
X137691904Y-132608380D02*
X137691904Y-131608380D01*
X138072857Y-131608380D01*
X138168095Y-131656000D01*
X138215714Y-131703619D01*
X138263333Y-131798857D01*
X138263333Y-131941714D01*
X138215714Y-132036952D01*
X138168095Y-132084571D01*
X138072857Y-132132190D01*
X137691904Y-132132190D01*
X139215714Y-132608380D02*
X138644285Y-132608380D01*
X138930000Y-132608380D02*
X138930000Y-131608380D01*
X138834761Y-131751238D01*
X138739523Y-131846476D01*
X138644285Y-131894095D01*
X136993333Y-98750380D02*
X136660000Y-98274190D01*
X136421904Y-98750380D02*
X136421904Y-97750380D01*
X136802857Y-97750380D01*
X136898095Y-97798000D01*
X136945714Y-97845619D01*
X136993333Y-97940857D01*
X136993333Y-98083714D01*
X136945714Y-98178952D01*
X136898095Y-98226571D01*
X136802857Y-98274190D01*
X136421904Y-98274190D01*
X137374285Y-97845619D02*
X137421904Y-97798000D01*
X137517142Y-97750380D01*
X137755238Y-97750380D01*
X137850476Y-97798000D01*
X137898095Y-97845619D01*
X137945714Y-97940857D01*
X137945714Y-98036095D01*
X137898095Y-98178952D01*
X137326666Y-98750380D01*
X137945714Y-98750380D01*
X102195333Y-97581980D02*
X101862000Y-97105790D01*
X101623904Y-97581980D02*
X101623904Y-96581980D01*
X102004857Y-96581980D01*
X102100095Y-96629600D01*
X102147714Y-96677219D01*
X102195333Y-96772457D01*
X102195333Y-96915314D01*
X102147714Y-97010552D01*
X102100095Y-97058171D01*
X102004857Y-97105790D01*
X101623904Y-97105790D01*
X102528666Y-96581980D02*
X103147714Y-96581980D01*
X102814380Y-96962933D01*
X102957238Y-96962933D01*
X103052476Y-97010552D01*
X103100095Y-97058171D01*
X103147714Y-97153409D01*
X103147714Y-97391504D01*
X103100095Y-97486742D01*
X103052476Y-97534361D01*
X102957238Y-97581980D01*
X102671523Y-97581980D01*
X102576285Y-97534361D01*
X102528666Y-97486742D01*
X75814180Y-78678066D02*
X75337990Y-79011400D01*
X75814180Y-79249495D02*
X74814180Y-79249495D01*
X74814180Y-78868542D01*
X74861800Y-78773304D01*
X74909419Y-78725685D01*
X75004657Y-78678066D01*
X75147514Y-78678066D01*
X75242752Y-78725685D01*
X75290371Y-78773304D01*
X75337990Y-78868542D01*
X75337990Y-79249495D01*
X75147514Y-77820923D02*
X75814180Y-77820923D01*
X74766561Y-78059019D02*
X75480847Y-78297114D01*
X75480847Y-77678066D01*
X200350380Y-119673666D02*
X199874190Y-120007000D01*
X200350380Y-120245095D02*
X199350380Y-120245095D01*
X199350380Y-119864142D01*
X199398000Y-119768904D01*
X199445619Y-119721285D01*
X199540857Y-119673666D01*
X199683714Y-119673666D01*
X199778952Y-119721285D01*
X199826571Y-119768904D01*
X199874190Y-119864142D01*
X199874190Y-120245095D01*
X199350380Y-118768904D02*
X199350380Y-119245095D01*
X199826571Y-119292714D01*
X199778952Y-119245095D01*
X199731333Y-119149857D01*
X199731333Y-118911761D01*
X199778952Y-118816523D01*
X199826571Y-118768904D01*
X199921809Y-118721285D01*
X200159904Y-118721285D01*
X200255142Y-118768904D01*
X200302761Y-118816523D01*
X200350380Y-118911761D01*
X200350380Y-119149857D01*
X200302761Y-119245095D01*
X200255142Y-119292714D01*
X198334333Y-115006380D02*
X198001000Y-114530190D01*
X197762904Y-115006380D02*
X197762904Y-114006380D01*
X198143857Y-114006380D01*
X198239095Y-114054000D01*
X198286714Y-114101619D01*
X198334333Y-114196857D01*
X198334333Y-114339714D01*
X198286714Y-114434952D01*
X198239095Y-114482571D01*
X198143857Y-114530190D01*
X197762904Y-114530190D01*
X199191476Y-114006380D02*
X199001000Y-114006380D01*
X198905761Y-114054000D01*
X198858142Y-114101619D01*
X198762904Y-114244476D01*
X198715285Y-114434952D01*
X198715285Y-114815904D01*
X198762904Y-114911142D01*
X198810523Y-114958761D01*
X198905761Y-115006380D01*
X199096238Y-115006380D01*
X199191476Y-114958761D01*
X199239095Y-114911142D01*
X199286714Y-114815904D01*
X199286714Y-114577809D01*
X199239095Y-114482571D01*
X199191476Y-114434952D01*
X199096238Y-114387333D01*
X198905761Y-114387333D01*
X198810523Y-114434952D01*
X198762904Y-114482571D01*
X198715285Y-114577809D01*
X181697333Y-72588380D02*
X181364000Y-72112190D01*
X181125904Y-72588380D02*
X181125904Y-71588380D01*
X181506857Y-71588380D01*
X181602095Y-71636000D01*
X181649714Y-71683619D01*
X181697333Y-71778857D01*
X181697333Y-71921714D01*
X181649714Y-72016952D01*
X181602095Y-72064571D01*
X181506857Y-72112190D01*
X181125904Y-72112190D01*
X182030666Y-71588380D02*
X182697333Y-71588380D01*
X182268761Y-72588380D01*
X144232333Y-72715380D02*
X143899000Y-72239190D01*
X143660904Y-72715380D02*
X143660904Y-71715380D01*
X144041857Y-71715380D01*
X144137095Y-71763000D01*
X144184714Y-71810619D01*
X144232333Y-71905857D01*
X144232333Y-72048714D01*
X144184714Y-72143952D01*
X144137095Y-72191571D01*
X144041857Y-72239190D01*
X143660904Y-72239190D01*
X144708523Y-72715380D02*
X144899000Y-72715380D01*
X144994238Y-72667761D01*
X145041857Y-72620142D01*
X145137095Y-72477285D01*
X145184714Y-72286809D01*
X145184714Y-71905857D01*
X145137095Y-71810619D01*
X145089476Y-71763000D01*
X144994238Y-71715380D01*
X144803761Y-71715380D01*
X144708523Y-71763000D01*
X144660904Y-71810619D01*
X144613285Y-71905857D01*
X144613285Y-72143952D01*
X144660904Y-72239190D01*
X144708523Y-72286809D01*
X144803761Y-72334428D01*
X144994238Y-72334428D01*
X145089476Y-72286809D01*
X145137095Y-72239190D01*
X145184714Y-72143952D01*
X124023380Y-101099857D02*
X123547190Y-101433190D01*
X124023380Y-101671285D02*
X123023380Y-101671285D01*
X123023380Y-101290333D01*
X123071000Y-101195095D01*
X123118619Y-101147476D01*
X123213857Y-101099857D01*
X123356714Y-101099857D01*
X123451952Y-101147476D01*
X123499571Y-101195095D01*
X123547190Y-101290333D01*
X123547190Y-101671285D01*
X124023380Y-100147476D02*
X124023380Y-100718904D01*
X124023380Y-100433190D02*
X123023380Y-100433190D01*
X123166238Y-100528428D01*
X123261476Y-100623666D01*
X123309095Y-100718904D01*
X123356714Y-99290333D02*
X124023380Y-99290333D01*
X122975761Y-99528428D02*
X123690047Y-99766523D01*
X123690047Y-99147476D01*
X168267142Y-72715380D02*
X167933809Y-72239190D01*
X167695714Y-72715380D02*
X167695714Y-71715380D01*
X168076666Y-71715380D01*
X168171904Y-71763000D01*
X168219523Y-71810619D01*
X168267142Y-71905857D01*
X168267142Y-72048714D01*
X168219523Y-72143952D01*
X168171904Y-72191571D01*
X168076666Y-72239190D01*
X167695714Y-72239190D01*
X169219523Y-72715380D02*
X168648095Y-72715380D01*
X168933809Y-72715380D02*
X168933809Y-71715380D01*
X168838571Y-71858238D01*
X168743333Y-71953476D01*
X168648095Y-72001095D01*
X169790952Y-72143952D02*
X169695714Y-72096333D01*
X169648095Y-72048714D01*
X169600476Y-71953476D01*
X169600476Y-71905857D01*
X169648095Y-71810619D01*
X169695714Y-71763000D01*
X169790952Y-71715380D01*
X169981428Y-71715380D01*
X170076666Y-71763000D01*
X170124285Y-71810619D01*
X170171904Y-71905857D01*
X170171904Y-71953476D01*
X170124285Y-72048714D01*
X170076666Y-72096333D01*
X169981428Y-72143952D01*
X169790952Y-72143952D01*
X169695714Y-72191571D01*
X169648095Y-72239190D01*
X169600476Y-72334428D01*
X169600476Y-72524904D01*
X169648095Y-72620142D01*
X169695714Y-72667761D01*
X169790952Y-72715380D01*
X169981428Y-72715380D01*
X170076666Y-72667761D01*
X170124285Y-72620142D01*
X170171904Y-72524904D01*
X170171904Y-72334428D01*
X170124285Y-72239190D01*
X170076666Y-72191571D01*
X169981428Y-72143952D01*
X130802142Y-72715380D02*
X130468809Y-72239190D01*
X130230714Y-72715380D02*
X130230714Y-71715380D01*
X130611666Y-71715380D01*
X130706904Y-71763000D01*
X130754523Y-71810619D01*
X130802142Y-71905857D01*
X130802142Y-72048714D01*
X130754523Y-72143952D01*
X130706904Y-72191571D01*
X130611666Y-72239190D01*
X130230714Y-72239190D01*
X131183095Y-71810619D02*
X131230714Y-71763000D01*
X131325952Y-71715380D01*
X131564047Y-71715380D01*
X131659285Y-71763000D01*
X131706904Y-71810619D01*
X131754523Y-71905857D01*
X131754523Y-72001095D01*
X131706904Y-72143952D01*
X131135476Y-72715380D01*
X131754523Y-72715380D01*
X132373571Y-71715380D02*
X132468809Y-71715380D01*
X132564047Y-71763000D01*
X132611666Y-71810619D01*
X132659285Y-71905857D01*
X132706904Y-72096333D01*
X132706904Y-72334428D01*
X132659285Y-72524904D01*
X132611666Y-72620142D01*
X132564047Y-72667761D01*
X132468809Y-72715380D01*
X132373571Y-72715380D01*
X132278333Y-72667761D01*
X132230714Y-72620142D01*
X132183095Y-72524904D01*
X132135476Y-72334428D01*
X132135476Y-72096333D01*
X132183095Y-71905857D01*
X132230714Y-71810619D01*
X132278333Y-71763000D01*
X132373571Y-71715380D01*
X93337142Y-72715380D02*
X93003809Y-72239190D01*
X92765714Y-72715380D02*
X92765714Y-71715380D01*
X93146666Y-71715380D01*
X93241904Y-71763000D01*
X93289523Y-71810619D01*
X93337142Y-71905857D01*
X93337142Y-72048714D01*
X93289523Y-72143952D01*
X93241904Y-72191571D01*
X93146666Y-72239190D01*
X92765714Y-72239190D01*
X93718095Y-71810619D02*
X93765714Y-71763000D01*
X93860952Y-71715380D01*
X94099047Y-71715380D01*
X94194285Y-71763000D01*
X94241904Y-71810619D01*
X94289523Y-71905857D01*
X94289523Y-72001095D01*
X94241904Y-72143952D01*
X93670476Y-72715380D01*
X94289523Y-72715380D01*
X94670476Y-71810619D02*
X94718095Y-71763000D01*
X94813333Y-71715380D01*
X95051428Y-71715380D01*
X95146666Y-71763000D01*
X95194285Y-71810619D01*
X95241904Y-71905857D01*
X95241904Y-72001095D01*
X95194285Y-72143952D01*
X94622857Y-72715380D01*
X95241904Y-72715380D01*
X117975142Y-127960380D02*
X117641809Y-127484190D01*
X117403714Y-127960380D02*
X117403714Y-126960380D01*
X117784666Y-126960380D01*
X117879904Y-127008000D01*
X117927523Y-127055619D01*
X117975142Y-127150857D01*
X117975142Y-127293714D01*
X117927523Y-127388952D01*
X117879904Y-127436571D01*
X117784666Y-127484190D01*
X117403714Y-127484190D01*
X118356095Y-127055619D02*
X118403714Y-127008000D01*
X118498952Y-126960380D01*
X118737047Y-126960380D01*
X118832285Y-127008000D01*
X118879904Y-127055619D01*
X118927523Y-127150857D01*
X118927523Y-127246095D01*
X118879904Y-127388952D01*
X118308476Y-127960380D01*
X118927523Y-127960380D01*
X119784666Y-127293714D02*
X119784666Y-127960380D01*
X119546571Y-126912761D02*
X119308476Y-127627047D01*
X119927523Y-127627047D01*
X88104942Y-131262380D02*
X87771609Y-130786190D01*
X87533514Y-131262380D02*
X87533514Y-130262380D01*
X87914466Y-130262380D01*
X88009704Y-130310000D01*
X88057323Y-130357619D01*
X88104942Y-130452857D01*
X88104942Y-130595714D01*
X88057323Y-130690952D01*
X88009704Y-130738571D01*
X87914466Y-130786190D01*
X87533514Y-130786190D01*
X88485895Y-130357619D02*
X88533514Y-130310000D01*
X88628752Y-130262380D01*
X88866847Y-130262380D01*
X88962085Y-130310000D01*
X89009704Y-130357619D01*
X89057323Y-130452857D01*
X89057323Y-130548095D01*
X89009704Y-130690952D01*
X88438276Y-131262380D01*
X89057323Y-131262380D01*
X89962085Y-130262380D02*
X89485895Y-130262380D01*
X89438276Y-130738571D01*
X89485895Y-130690952D01*
X89581133Y-130643333D01*
X89819228Y-130643333D01*
X89914466Y-130690952D01*
X89962085Y-130738571D01*
X90009704Y-130833809D01*
X90009704Y-131071904D01*
X89962085Y-131167142D01*
X89914466Y-131214761D01*
X89819228Y-131262380D01*
X89581133Y-131262380D01*
X89485895Y-131214761D01*
X89438276Y-131167142D01*
X152618942Y-118003580D02*
X152285609Y-117527390D01*
X152047514Y-118003580D02*
X152047514Y-117003580D01*
X152428466Y-117003580D01*
X152523704Y-117051200D01*
X152571323Y-117098819D01*
X152618942Y-117194057D01*
X152618942Y-117336914D01*
X152571323Y-117432152D01*
X152523704Y-117479771D01*
X152428466Y-117527390D01*
X152047514Y-117527390D01*
X152999895Y-117098819D02*
X153047514Y-117051200D01*
X153142752Y-117003580D01*
X153380847Y-117003580D01*
X153476085Y-117051200D01*
X153523704Y-117098819D01*
X153571323Y-117194057D01*
X153571323Y-117289295D01*
X153523704Y-117432152D01*
X152952276Y-118003580D01*
X153571323Y-118003580D01*
X154142752Y-117432152D02*
X154047514Y-117384533D01*
X153999895Y-117336914D01*
X153952276Y-117241676D01*
X153952276Y-117194057D01*
X153999895Y-117098819D01*
X154047514Y-117051200D01*
X154142752Y-117003580D01*
X154333228Y-117003580D01*
X154428466Y-117051200D01*
X154476085Y-117098819D01*
X154523704Y-117194057D01*
X154523704Y-117241676D01*
X154476085Y-117336914D01*
X154428466Y-117384533D01*
X154333228Y-117432152D01*
X154142752Y-117432152D01*
X154047514Y-117479771D01*
X153999895Y-117527390D01*
X153952276Y-117622628D01*
X153952276Y-117813104D01*
X153999895Y-117908342D01*
X154047514Y-117955961D01*
X154142752Y-118003580D01*
X154333228Y-118003580D01*
X154428466Y-117955961D01*
X154476085Y-117908342D01*
X154523704Y-117813104D01*
X154523704Y-117622628D01*
X154476085Y-117527390D01*
X154428466Y-117479771D01*
X154333228Y-117432152D01*
X204922380Y-105544857D02*
X204446190Y-105878190D01*
X204922380Y-106116285D02*
X203922380Y-106116285D01*
X203922380Y-105735333D01*
X203970000Y-105640095D01*
X204017619Y-105592476D01*
X204112857Y-105544857D01*
X204255714Y-105544857D01*
X204350952Y-105592476D01*
X204398571Y-105640095D01*
X204446190Y-105735333D01*
X204446190Y-106116285D01*
X203922380Y-105211523D02*
X203922380Y-104592476D01*
X204303333Y-104925809D01*
X204303333Y-104782952D01*
X204350952Y-104687714D01*
X204398571Y-104640095D01*
X204493809Y-104592476D01*
X204731904Y-104592476D01*
X204827142Y-104640095D01*
X204874761Y-104687714D01*
X204922380Y-104782952D01*
X204922380Y-105068666D01*
X204874761Y-105163904D01*
X204827142Y-105211523D01*
X203922380Y-104259142D02*
X203922380Y-103640095D01*
X204303333Y-103973428D01*
X204303333Y-103830571D01*
X204350952Y-103735333D01*
X204398571Y-103687714D01*
X204493809Y-103640095D01*
X204731904Y-103640095D01*
X204827142Y-103687714D01*
X204874761Y-103735333D01*
X204922380Y-103830571D01*
X204922380Y-104116285D01*
X204874761Y-104211523D01*
X204827142Y-104259142D01*
X71348695Y-84618580D02*
X71348695Y-85428104D01*
X71396314Y-85523342D01*
X71443933Y-85570961D01*
X71539171Y-85618580D01*
X71729647Y-85618580D01*
X71824885Y-85570961D01*
X71872504Y-85523342D01*
X71920123Y-85428104D01*
X71920123Y-84618580D01*
X72301076Y-84618580D02*
X72967742Y-84618580D01*
X72539171Y-85618580D01*
X121864380Y-105894095D02*
X120864380Y-105894095D01*
X120864380Y-105656000D01*
X120912000Y-105513142D01*
X121007238Y-105417904D01*
X121102476Y-105370285D01*
X121292952Y-105322666D01*
X121435809Y-105322666D01*
X121626285Y-105370285D01*
X121721523Y-105417904D01*
X121816761Y-105513142D01*
X121864380Y-105656000D01*
X121864380Y-105894095D01*
X121864380Y-104370285D02*
X121864380Y-104941714D01*
X121864380Y-104656000D02*
X120864380Y-104656000D01*
X121007238Y-104751238D01*
X121102476Y-104846476D01*
X121150095Y-104941714D01*
X117800380Y-105894095D02*
X116800380Y-105894095D01*
X116800380Y-105656000D01*
X116848000Y-105513142D01*
X116943238Y-105417904D01*
X117038476Y-105370285D01*
X117228952Y-105322666D01*
X117371809Y-105322666D01*
X117562285Y-105370285D01*
X117657523Y-105417904D01*
X117752761Y-105513142D01*
X117800380Y-105656000D01*
X117800380Y-105894095D01*
X116895619Y-104941714D02*
X116848000Y-104894095D01*
X116800380Y-104798857D01*
X116800380Y-104560761D01*
X116848000Y-104465523D01*
X116895619Y-104417904D01*
X116990857Y-104370285D01*
X117086095Y-104370285D01*
X117228952Y-104417904D01*
X117800380Y-104989333D01*
X117800380Y-104370285D01*
X81351380Y-125706095D02*
X80351380Y-125706095D01*
X80351380Y-125468000D01*
X80399000Y-125325142D01*
X80494238Y-125229904D01*
X80589476Y-125182285D01*
X80779952Y-125134666D01*
X80922809Y-125134666D01*
X81113285Y-125182285D01*
X81208523Y-125229904D01*
X81303761Y-125325142D01*
X81351380Y-125468000D01*
X81351380Y-125706095D01*
X80351380Y-124801333D02*
X80351380Y-124182285D01*
X80732333Y-124515619D01*
X80732333Y-124372761D01*
X80779952Y-124277523D01*
X80827571Y-124229904D01*
X80922809Y-124182285D01*
X81160904Y-124182285D01*
X81256142Y-124229904D01*
X81303761Y-124277523D01*
X81351380Y-124372761D01*
X81351380Y-124658476D01*
X81303761Y-124753714D01*
X81256142Y-124801333D01*
X77033380Y-125706095D02*
X76033380Y-125706095D01*
X76033380Y-125468000D01*
X76081000Y-125325142D01*
X76176238Y-125229904D01*
X76271476Y-125182285D01*
X76461952Y-125134666D01*
X76604809Y-125134666D01*
X76795285Y-125182285D01*
X76890523Y-125229904D01*
X76985761Y-125325142D01*
X77033380Y-125468000D01*
X77033380Y-125706095D01*
X76366714Y-124277523D02*
X77033380Y-124277523D01*
X75985761Y-124515619D02*
X76700047Y-124753714D01*
X76700047Y-124134666D01*
X63119095Y-113815761D02*
X63261952Y-113863380D01*
X63500047Y-113863380D01*
X63595285Y-113815761D01*
X63642904Y-113768142D01*
X63690523Y-113672904D01*
X63690523Y-113577666D01*
X63642904Y-113482428D01*
X63595285Y-113434809D01*
X63500047Y-113387190D01*
X63309571Y-113339571D01*
X63214333Y-113291952D01*
X63166714Y-113244333D01*
X63119095Y-113149095D01*
X63119095Y-113053857D01*
X63166714Y-112958619D01*
X63214333Y-112911000D01*
X63309571Y-112863380D01*
X63547666Y-112863380D01*
X63690523Y-112911000D01*
X64642904Y-113863380D02*
X64071476Y-113863380D01*
X64357190Y-113863380D02*
X64357190Y-112863380D01*
X64261952Y-113006238D01*
X64166714Y-113101476D01*
X64071476Y-113149095D01*
M02*
