G04 #@! TF.GenerationSoftware,KiCad,Pcbnew,(5.1.4)-1*
G04 #@! TF.CreationDate,2020-03-17T12:53:42-04:00*
G04 #@! TF.ProjectId,counter,636f756e-7465-4722-9e6b-696361645f70,v01*
G04 #@! TF.SameCoordinates,Original*
G04 #@! TF.FileFunction,Soldermask,Bot*
G04 #@! TF.FilePolarity,Negative*
%FSLAX46Y46*%
G04 Gerber Fmt 4.6, Leading zero omitted, Abs format (unit mm)*
G04 Created by KiCad (PCBNEW (5.1.4)-1) date 2020-03-17 12:53:42*
%MOMM*%
%LPD*%
G04 APERTURE LIST*
%ADD10C,0.100000*%
G04 APERTURE END LIST*
D10*
G36*
X203725333Y-129078212D02*
G01*
X204053096Y-129213975D01*
X204348071Y-129411072D01*
X204598928Y-129661929D01*
X204796025Y-129956904D01*
X204931788Y-130284667D01*
X205001000Y-130632618D01*
X205001000Y-130987382D01*
X204931788Y-131335333D01*
X204796025Y-131663096D01*
X204598928Y-131958071D01*
X204348071Y-132208928D01*
X204053096Y-132406025D01*
X203725333Y-132541788D01*
X203551357Y-132576394D01*
X203377383Y-132611000D01*
X203022617Y-132611000D01*
X202848643Y-132576394D01*
X202674667Y-132541788D01*
X202346904Y-132406025D01*
X202051929Y-132208928D01*
X201801072Y-131958071D01*
X201603975Y-131663096D01*
X201468212Y-131335333D01*
X201399000Y-130987382D01*
X201399000Y-130632618D01*
X201468212Y-130284667D01*
X201603975Y-129956904D01*
X201801072Y-129661929D01*
X202051929Y-129411072D01*
X202346904Y-129213975D01*
X202674667Y-129078212D01*
X203022617Y-129009000D01*
X203377383Y-129009000D01*
X203725333Y-129078212D01*
X203725333Y-129078212D01*
G37*
G36*
X58945333Y-129078212D02*
G01*
X59273096Y-129213975D01*
X59568071Y-129411072D01*
X59818928Y-129661929D01*
X60016025Y-129956904D01*
X60151788Y-130284667D01*
X60221000Y-130632618D01*
X60221000Y-130987382D01*
X60151788Y-131335333D01*
X60016025Y-131663096D01*
X59818928Y-131958071D01*
X59568071Y-132208928D01*
X59273096Y-132406025D01*
X58945333Y-132541788D01*
X58771357Y-132576394D01*
X58597383Y-132611000D01*
X58242617Y-132611000D01*
X58068643Y-132576394D01*
X57894667Y-132541788D01*
X57566904Y-132406025D01*
X57271929Y-132208928D01*
X57021072Y-131958071D01*
X56823975Y-131663096D01*
X56688212Y-131335333D01*
X56619000Y-130987382D01*
X56619000Y-130632618D01*
X56688212Y-130284667D01*
X56823975Y-129956904D01*
X57021072Y-129661929D01*
X57271929Y-129411072D01*
X57566904Y-129213975D01*
X57894667Y-129078212D01*
X58242617Y-129009000D01*
X58597383Y-129009000D01*
X58945333Y-129078212D01*
X58945333Y-129078212D01*
G37*
G36*
X81923000Y-122563000D02*
G01*
X79621000Y-122563000D01*
X79621000Y-120261000D01*
X81923000Y-120261000D01*
X81923000Y-122563000D01*
X81923000Y-122563000D01*
G37*
G36*
X77859000Y-122563000D02*
G01*
X75557000Y-122563000D01*
X75557000Y-120261000D01*
X77859000Y-120261000D01*
X77859000Y-122563000D01*
X77859000Y-122563000D01*
G37*
G36*
X66553370Y-116111972D02*
G01*
X66715196Y-116179002D01*
X66860832Y-116276313D01*
X66984687Y-116400168D01*
X67081998Y-116545804D01*
X67149028Y-116707630D01*
X67183200Y-116879423D01*
X67183200Y-117054577D01*
X67149028Y-117226370D01*
X67081998Y-117388196D01*
X66984687Y-117533832D01*
X66860832Y-117657687D01*
X66715196Y-117754998D01*
X66553370Y-117822028D01*
X66381579Y-117856200D01*
X66206421Y-117856200D01*
X66034630Y-117822028D01*
X65872804Y-117754998D01*
X65727168Y-117657687D01*
X65603313Y-117533832D01*
X65506002Y-117388196D01*
X65438972Y-117226370D01*
X65404800Y-117054577D01*
X65404800Y-116879423D01*
X65438972Y-116707630D01*
X65506002Y-116545804D01*
X65603313Y-116400168D01*
X65727168Y-116276313D01*
X65872804Y-116179002D01*
X66034630Y-116111972D01*
X66206421Y-116077800D01*
X66381579Y-116077800D01*
X66553370Y-116111972D01*
X66553370Y-116111972D01*
G37*
G36*
X61473370Y-116111972D02*
G01*
X61635196Y-116179002D01*
X61780832Y-116276313D01*
X61904687Y-116400168D01*
X62001998Y-116545804D01*
X62069028Y-116707630D01*
X62103200Y-116879423D01*
X62103200Y-117054577D01*
X62069028Y-117226370D01*
X62001998Y-117388196D01*
X61904687Y-117533832D01*
X61780832Y-117657687D01*
X61635196Y-117754998D01*
X61473370Y-117822028D01*
X61301579Y-117856200D01*
X61126421Y-117856200D01*
X60954630Y-117822028D01*
X60792804Y-117754998D01*
X60647168Y-117657687D01*
X60523313Y-117533832D01*
X60426002Y-117388196D01*
X60358972Y-117226370D01*
X60324800Y-117054577D01*
X60324800Y-116879423D01*
X60358972Y-116707630D01*
X60426002Y-116545804D01*
X60523313Y-116400168D01*
X60647168Y-116276313D01*
X60792804Y-116179002D01*
X60954630Y-116111972D01*
X61126421Y-116077800D01*
X61301579Y-116077800D01*
X61473370Y-116111972D01*
X61473370Y-116111972D01*
G37*
G36*
X64013370Y-116111972D02*
G01*
X64175196Y-116179002D01*
X64320832Y-116276313D01*
X64444687Y-116400168D01*
X64541998Y-116545804D01*
X64609028Y-116707630D01*
X64643200Y-116879423D01*
X64643200Y-117054577D01*
X64609028Y-117226370D01*
X64541998Y-117388196D01*
X64444687Y-117533832D01*
X64320832Y-117657687D01*
X64175196Y-117754998D01*
X64013370Y-117822028D01*
X63841579Y-117856200D01*
X63666421Y-117856200D01*
X63494630Y-117822028D01*
X63332804Y-117754998D01*
X63187168Y-117657687D01*
X63063313Y-117533832D01*
X62966002Y-117388196D01*
X62898972Y-117226370D01*
X62864800Y-117054577D01*
X62864800Y-116879423D01*
X62898972Y-116707630D01*
X62966002Y-116545804D01*
X63063313Y-116400168D01*
X63187168Y-116276313D01*
X63332804Y-116179002D01*
X63494630Y-116111972D01*
X63666421Y-116077800D01*
X63841579Y-116077800D01*
X64013370Y-116111972D01*
X64013370Y-116111972D01*
G37*
G36*
X121637635Y-114562654D02*
G01*
X121765004Y-114601291D01*
X121854604Y-114628471D01*
X122054554Y-114735347D01*
X122229818Y-114879182D01*
X122373653Y-115054446D01*
X122480529Y-115254396D01*
X122546346Y-115471366D01*
X122568569Y-115697000D01*
X122546346Y-115922634D01*
X122480529Y-116139604D01*
X122373653Y-116339554D01*
X122229818Y-116514818D01*
X122054554Y-116658653D01*
X121854604Y-116765529D01*
X121765004Y-116792709D01*
X121637635Y-116831346D01*
X121468543Y-116848000D01*
X121355457Y-116848000D01*
X121186365Y-116831346D01*
X121058996Y-116792709D01*
X120969396Y-116765529D01*
X120769446Y-116658653D01*
X120594182Y-116514818D01*
X120450347Y-116339554D01*
X120343471Y-116139604D01*
X120277654Y-115922634D01*
X120255431Y-115697000D01*
X120277654Y-115471366D01*
X120343471Y-115254396D01*
X120450347Y-115054446D01*
X120594182Y-114879182D01*
X120769446Y-114735347D01*
X120969396Y-114628471D01*
X121058996Y-114601291D01*
X121186365Y-114562654D01*
X121355457Y-114546000D01*
X121468543Y-114546000D01*
X121637635Y-114562654D01*
X121637635Y-114562654D01*
G37*
G36*
X117573635Y-114562654D02*
G01*
X117701004Y-114601291D01*
X117790604Y-114628471D01*
X117990554Y-114735347D01*
X118165818Y-114879182D01*
X118309653Y-115054446D01*
X118416529Y-115254396D01*
X118482346Y-115471366D01*
X118504569Y-115697000D01*
X118482346Y-115922634D01*
X118416529Y-116139604D01*
X118309653Y-116339554D01*
X118165818Y-116514818D01*
X117990554Y-116658653D01*
X117790604Y-116765529D01*
X117701004Y-116792709D01*
X117573635Y-116831346D01*
X117404543Y-116848000D01*
X117291457Y-116848000D01*
X117122365Y-116831346D01*
X116994996Y-116792709D01*
X116905396Y-116765529D01*
X116705446Y-116658653D01*
X116530182Y-116514818D01*
X116386347Y-116339554D01*
X116279471Y-116139604D01*
X116213654Y-115922634D01*
X116191431Y-115697000D01*
X116213654Y-115471366D01*
X116279471Y-115254396D01*
X116386347Y-115054446D01*
X116530182Y-114879182D01*
X116705446Y-114735347D01*
X116905396Y-114628471D01*
X116994996Y-114601291D01*
X117122365Y-114562654D01*
X117291457Y-114546000D01*
X117404543Y-114546000D01*
X117573635Y-114562654D01*
X117573635Y-114562654D01*
G37*
G36*
X76933635Y-112657654D02*
G01*
X77061004Y-112696291D01*
X77150604Y-112723471D01*
X77350554Y-112830347D01*
X77525818Y-112974182D01*
X77669653Y-113149446D01*
X77776529Y-113349396D01*
X77842346Y-113566366D01*
X77864569Y-113792000D01*
X77842346Y-114017634D01*
X77776529Y-114234604D01*
X77669653Y-114434554D01*
X77525818Y-114609818D01*
X77350554Y-114753653D01*
X77150604Y-114860529D01*
X77089113Y-114879182D01*
X76933635Y-114926346D01*
X76764543Y-114943000D01*
X76651457Y-114943000D01*
X76482365Y-114926346D01*
X76326887Y-114879182D01*
X76265396Y-114860529D01*
X76065446Y-114753653D01*
X75890182Y-114609818D01*
X75746347Y-114434554D01*
X75639471Y-114234604D01*
X75573654Y-114017634D01*
X75551431Y-113792000D01*
X75573654Y-113566366D01*
X75639471Y-113349396D01*
X75746347Y-113149446D01*
X75890182Y-112974182D01*
X76065446Y-112830347D01*
X76265396Y-112723471D01*
X76354996Y-112696291D01*
X76482365Y-112657654D01*
X76651457Y-112641000D01*
X76764543Y-112641000D01*
X76933635Y-112657654D01*
X76933635Y-112657654D01*
G37*
G36*
X80997635Y-112657654D02*
G01*
X81125004Y-112696291D01*
X81214604Y-112723471D01*
X81414554Y-112830347D01*
X81589818Y-112974182D01*
X81733653Y-113149446D01*
X81840529Y-113349396D01*
X81906346Y-113566366D01*
X81928569Y-113792000D01*
X81906346Y-114017634D01*
X81840529Y-114234604D01*
X81733653Y-114434554D01*
X81589818Y-114609818D01*
X81414554Y-114753653D01*
X81214604Y-114860529D01*
X81153113Y-114879182D01*
X80997635Y-114926346D01*
X80828543Y-114943000D01*
X80715457Y-114943000D01*
X80546365Y-114926346D01*
X80390887Y-114879182D01*
X80329396Y-114860529D01*
X80129446Y-114753653D01*
X79954182Y-114609818D01*
X79810347Y-114434554D01*
X79703471Y-114234604D01*
X79637654Y-114017634D01*
X79615431Y-113792000D01*
X79637654Y-113566366D01*
X79703471Y-113349396D01*
X79810347Y-113149446D01*
X79954182Y-112974182D01*
X80129446Y-112830347D01*
X80329396Y-112723471D01*
X80418996Y-112696291D01*
X80546365Y-112657654D01*
X80715457Y-112641000D01*
X80828543Y-112641000D01*
X80997635Y-112657654D01*
X80997635Y-112657654D01*
G37*
G36*
X118499000Y-109228000D02*
G01*
X116197000Y-109228000D01*
X116197000Y-106926000D01*
X118499000Y-106926000D01*
X118499000Y-109228000D01*
X118499000Y-109228000D01*
G37*
G36*
X122563000Y-109228000D02*
G01*
X120261000Y-109228000D01*
X120261000Y-106926000D01*
X122563000Y-106926000D01*
X122563000Y-109228000D01*
X122563000Y-109228000D01*
G37*
G36*
X58481072Y-106016918D02*
G01*
X58726941Y-106118760D01*
X58948213Y-106266609D01*
X59136391Y-106454787D01*
X59284240Y-106676059D01*
X59386082Y-106921928D01*
X59438000Y-107182938D01*
X59438000Y-107449062D01*
X59386082Y-107710072D01*
X59284240Y-107955941D01*
X59136391Y-108177213D01*
X58948213Y-108365391D01*
X58726941Y-108513240D01*
X58726940Y-108513241D01*
X58726939Y-108513241D01*
X58481072Y-108615082D01*
X58220062Y-108667000D01*
X57953938Y-108667000D01*
X57692928Y-108615082D01*
X57447061Y-108513241D01*
X57447060Y-108513241D01*
X57447059Y-108513240D01*
X57225787Y-108365391D01*
X57037609Y-108177213D01*
X56889760Y-107955941D01*
X56787918Y-107710072D01*
X56736000Y-107449062D01*
X56736000Y-107182938D01*
X56787918Y-106921928D01*
X56889760Y-106676059D01*
X57037609Y-106454787D01*
X57225787Y-106266609D01*
X57447059Y-106118760D01*
X57692928Y-106016918D01*
X57953938Y-105965000D01*
X58220062Y-105965000D01*
X58481072Y-106016918D01*
X58481072Y-106016918D01*
G37*
G36*
X62438000Y-103967000D02*
G01*
X59736000Y-103967000D01*
X59736000Y-101265000D01*
X62438000Y-101265000D01*
X62438000Y-103967000D01*
X62438000Y-103967000D01*
G37*
G36*
X55481072Y-101316918D02*
G01*
X55726941Y-101418760D01*
X55948213Y-101566609D01*
X56136391Y-101754787D01*
X56284240Y-101976059D01*
X56386082Y-102221928D01*
X56438000Y-102482938D01*
X56438000Y-102749062D01*
X56386082Y-103010072D01*
X56284240Y-103255941D01*
X56136391Y-103477213D01*
X55948213Y-103665391D01*
X55726941Y-103813240D01*
X55481072Y-103915082D01*
X55220062Y-103967000D01*
X54953938Y-103967000D01*
X54692928Y-103915082D01*
X54447059Y-103813240D01*
X54225787Y-103665391D01*
X54037609Y-103477213D01*
X53889760Y-103255941D01*
X53787918Y-103010072D01*
X53736000Y-102749062D01*
X53736000Y-102482938D01*
X53787918Y-102221928D01*
X53889760Y-101976059D01*
X54037609Y-101754787D01*
X54225787Y-101566609D01*
X54447059Y-101418760D01*
X54692928Y-101316918D01*
X54953938Y-101265000D01*
X55220062Y-101265000D01*
X55481072Y-101316918D01*
X55481072Y-101316918D01*
G37*
G36*
X193785143Y-92436243D02*
G01*
X193933102Y-92497529D01*
X194066258Y-92586501D01*
X194179499Y-92699742D01*
X194268471Y-92832898D01*
X194329757Y-92980857D01*
X194361000Y-93137927D01*
X194361000Y-93298073D01*
X194329757Y-93455143D01*
X194268471Y-93603102D01*
X194179499Y-93736258D01*
X194066258Y-93849499D01*
X193933102Y-93938471D01*
X193785143Y-93999757D01*
X193628074Y-94031000D01*
X193467926Y-94031000D01*
X193310857Y-93999757D01*
X193162898Y-93938471D01*
X193029742Y-93849499D01*
X192916501Y-93736258D01*
X192827529Y-93603102D01*
X192766243Y-93455143D01*
X192735000Y-93298073D01*
X192735000Y-93137927D01*
X192766243Y-92980857D01*
X192827529Y-92832898D01*
X192916501Y-92699742D01*
X193029742Y-92586501D01*
X193162898Y-92497529D01*
X193310857Y-92436243D01*
X193467926Y-92405000D01*
X193628074Y-92405000D01*
X193785143Y-92436243D01*
X193785143Y-92436243D01*
G37*
G36*
X201405143Y-92436243D02*
G01*
X201553102Y-92497529D01*
X201686258Y-92586501D01*
X201799499Y-92699742D01*
X201888471Y-92832898D01*
X201949757Y-92980857D01*
X201981000Y-93137927D01*
X201981000Y-93298073D01*
X201949757Y-93455143D01*
X201888471Y-93603102D01*
X201799499Y-93736258D01*
X201686258Y-93849499D01*
X201553102Y-93938471D01*
X201405143Y-93999757D01*
X201248074Y-94031000D01*
X201087926Y-94031000D01*
X200930857Y-93999757D01*
X200782898Y-93938471D01*
X200649742Y-93849499D01*
X200536501Y-93736258D01*
X200447529Y-93603102D01*
X200386243Y-93455143D01*
X200355000Y-93298073D01*
X200355000Y-93137927D01*
X200386243Y-92980857D01*
X200447529Y-92832898D01*
X200536501Y-92699742D01*
X200649742Y-92586501D01*
X200782898Y-92497529D01*
X200930857Y-92436243D01*
X201087926Y-92405000D01*
X201248074Y-92405000D01*
X201405143Y-92436243D01*
X201405143Y-92436243D01*
G37*
G36*
X91616267Y-91834391D02*
G01*
X91693644Y-91849782D01*
X91839418Y-91910163D01*
X91970608Y-91997822D01*
X92082178Y-92109392D01*
X92169837Y-92240582D01*
X92230218Y-92386356D01*
X92230218Y-92386357D01*
X92252332Y-92497529D01*
X92261000Y-92541109D01*
X92261000Y-92698891D01*
X92230218Y-92853644D01*
X92169837Y-92999418D01*
X92082178Y-93130608D01*
X91970608Y-93242178D01*
X91839418Y-93329837D01*
X91693644Y-93390218D01*
X91538892Y-93421000D01*
X91381108Y-93421000D01*
X91226356Y-93390218D01*
X91080582Y-93329837D01*
X90949392Y-93242178D01*
X90837822Y-93130608D01*
X90750163Y-92999418D01*
X90689782Y-92853644D01*
X90659000Y-92698891D01*
X90659000Y-92541109D01*
X90667669Y-92497529D01*
X90689782Y-92386357D01*
X90689782Y-92386356D01*
X90750163Y-92240582D01*
X90837822Y-92109392D01*
X90949392Y-91997822D01*
X91080582Y-91910163D01*
X91226356Y-91849782D01*
X91381108Y-91819000D01*
X91538892Y-91819000D01*
X91616267Y-91834391D01*
X91616267Y-91834391D01*
G37*
G36*
X89116267Y-91834391D02*
G01*
X89193644Y-91849782D01*
X89339418Y-91910163D01*
X89470608Y-91997822D01*
X89582178Y-92109392D01*
X89669837Y-92240582D01*
X89730218Y-92386356D01*
X89730218Y-92386357D01*
X89752332Y-92497529D01*
X89761000Y-92541109D01*
X89761000Y-92698891D01*
X89730218Y-92853644D01*
X89669837Y-92999418D01*
X89582178Y-93130608D01*
X89470608Y-93242178D01*
X89339418Y-93329837D01*
X89193644Y-93390218D01*
X89038892Y-93421000D01*
X88881108Y-93421000D01*
X88726356Y-93390218D01*
X88580582Y-93329837D01*
X88449392Y-93242178D01*
X88337822Y-93130608D01*
X88250163Y-92999418D01*
X88189782Y-92853644D01*
X88159000Y-92698891D01*
X88159000Y-92541109D01*
X88167669Y-92497529D01*
X88189782Y-92386357D01*
X88189782Y-92386356D01*
X88250163Y-92240582D01*
X88337822Y-92109392D01*
X88449392Y-91997822D01*
X88580582Y-91910163D01*
X88726356Y-91849782D01*
X88881108Y-91819000D01*
X89038892Y-91819000D01*
X89116267Y-91834391D01*
X89116267Y-91834391D01*
G37*
G36*
X164000267Y-91834391D02*
G01*
X164077644Y-91849782D01*
X164223418Y-91910163D01*
X164354608Y-91997822D01*
X164466178Y-92109392D01*
X164553837Y-92240582D01*
X164614218Y-92386356D01*
X164614218Y-92386357D01*
X164636332Y-92497529D01*
X164645000Y-92541109D01*
X164645000Y-92698891D01*
X164614218Y-92853644D01*
X164553837Y-92999418D01*
X164466178Y-93130608D01*
X164354608Y-93242178D01*
X164223418Y-93329837D01*
X164077644Y-93390218D01*
X163922892Y-93421000D01*
X163765108Y-93421000D01*
X163610356Y-93390218D01*
X163464582Y-93329837D01*
X163333392Y-93242178D01*
X163221822Y-93130608D01*
X163134163Y-92999418D01*
X163073782Y-92853644D01*
X163043000Y-92698891D01*
X163043000Y-92541109D01*
X163051669Y-92497529D01*
X163073782Y-92386357D01*
X163073782Y-92386356D01*
X163134163Y-92240582D01*
X163221822Y-92109392D01*
X163333392Y-91997822D01*
X163464582Y-91910163D01*
X163610356Y-91849782D01*
X163765108Y-91819000D01*
X163922892Y-91819000D01*
X164000267Y-91834391D01*
X164000267Y-91834391D01*
G37*
G36*
X166500267Y-91834391D02*
G01*
X166577644Y-91849782D01*
X166723418Y-91910163D01*
X166854608Y-91997822D01*
X166966178Y-92109392D01*
X167053837Y-92240582D01*
X167114218Y-92386356D01*
X167114218Y-92386357D01*
X167136332Y-92497529D01*
X167145000Y-92541109D01*
X167145000Y-92698891D01*
X167114218Y-92853644D01*
X167053837Y-92999418D01*
X166966178Y-93130608D01*
X166854608Y-93242178D01*
X166723418Y-93329837D01*
X166577644Y-93390218D01*
X166422892Y-93421000D01*
X166265108Y-93421000D01*
X166110356Y-93390218D01*
X165964582Y-93329837D01*
X165833392Y-93242178D01*
X165721822Y-93130608D01*
X165634163Y-92999418D01*
X165573782Y-92853644D01*
X165543000Y-92698891D01*
X165543000Y-92541109D01*
X165551669Y-92497529D01*
X165573782Y-92386357D01*
X165573782Y-92386356D01*
X165634163Y-92240582D01*
X165721822Y-92109392D01*
X165833392Y-91997822D01*
X165964582Y-91910163D01*
X166110356Y-91849782D01*
X166265108Y-91819000D01*
X166422892Y-91819000D01*
X166500267Y-91834391D01*
X166500267Y-91834391D01*
G37*
G36*
X94156267Y-91834391D02*
G01*
X94233644Y-91849782D01*
X94379418Y-91910163D01*
X94510608Y-91997822D01*
X94622178Y-92109392D01*
X94709837Y-92240582D01*
X94770218Y-92386356D01*
X94770218Y-92386357D01*
X94792332Y-92497529D01*
X94801000Y-92541109D01*
X94801000Y-92698891D01*
X94770218Y-92853644D01*
X94709837Y-92999418D01*
X94622178Y-93130608D01*
X94510608Y-93242178D01*
X94379418Y-93329837D01*
X94233644Y-93390218D01*
X94078892Y-93421000D01*
X93921108Y-93421000D01*
X93766356Y-93390218D01*
X93620582Y-93329837D01*
X93489392Y-93242178D01*
X93377822Y-93130608D01*
X93290163Y-92999418D01*
X93229782Y-92853644D01*
X93199000Y-92698891D01*
X93199000Y-92541109D01*
X93207669Y-92497529D01*
X93229782Y-92386357D01*
X93229782Y-92386356D01*
X93290163Y-92240582D01*
X93377822Y-92109392D01*
X93489392Y-91997822D01*
X93620582Y-91910163D01*
X93766356Y-91849782D01*
X93921108Y-91819000D01*
X94078892Y-91819000D01*
X94156267Y-91834391D01*
X94156267Y-91834391D01*
G37*
G36*
X149678267Y-91834391D02*
G01*
X149755644Y-91849782D01*
X149901418Y-91910163D01*
X150032608Y-91997822D01*
X150144178Y-92109392D01*
X150231837Y-92240582D01*
X150292218Y-92386356D01*
X150292218Y-92386357D01*
X150314332Y-92497529D01*
X150323000Y-92541109D01*
X150323000Y-92698891D01*
X150292218Y-92853644D01*
X150231837Y-92999418D01*
X150144178Y-93130608D01*
X150032608Y-93242178D01*
X149901418Y-93329837D01*
X149755644Y-93390218D01*
X149600892Y-93421000D01*
X149443108Y-93421000D01*
X149288356Y-93390218D01*
X149142582Y-93329837D01*
X149011392Y-93242178D01*
X148899822Y-93130608D01*
X148812163Y-92999418D01*
X148751782Y-92853644D01*
X148721000Y-92698891D01*
X148721000Y-92541109D01*
X148729669Y-92497529D01*
X148751782Y-92386357D01*
X148751782Y-92386356D01*
X148812163Y-92240582D01*
X148899822Y-92109392D01*
X149011392Y-91997822D01*
X149142582Y-91910163D01*
X149288356Y-91849782D01*
X149443108Y-91819000D01*
X149600892Y-91819000D01*
X149678267Y-91834391D01*
X149678267Y-91834391D01*
G37*
G36*
X147138267Y-91834391D02*
G01*
X147215644Y-91849782D01*
X147361418Y-91910163D01*
X147492608Y-91997822D01*
X147604178Y-92109392D01*
X147691837Y-92240582D01*
X147752218Y-92386356D01*
X147752218Y-92386357D01*
X147774332Y-92497529D01*
X147783000Y-92541109D01*
X147783000Y-92698891D01*
X147752218Y-92853644D01*
X147691837Y-92999418D01*
X147604178Y-93130608D01*
X147492608Y-93242178D01*
X147361418Y-93329837D01*
X147215644Y-93390218D01*
X147060892Y-93421000D01*
X146903108Y-93421000D01*
X146748356Y-93390218D01*
X146602582Y-93329837D01*
X146471392Y-93242178D01*
X146359822Y-93130608D01*
X146272163Y-92999418D01*
X146211782Y-92853644D01*
X146181000Y-92698891D01*
X146181000Y-92541109D01*
X146189669Y-92497529D01*
X146211782Y-92386357D01*
X146211782Y-92386356D01*
X146272163Y-92240582D01*
X146359822Y-92109392D01*
X146471392Y-91997822D01*
X146602582Y-91910163D01*
X146748356Y-91849782D01*
X146903108Y-91819000D01*
X147060892Y-91819000D01*
X147138267Y-91834391D01*
X147138267Y-91834391D01*
G37*
G36*
X144598267Y-91834391D02*
G01*
X144675644Y-91849782D01*
X144821418Y-91910163D01*
X144952608Y-91997822D01*
X145064178Y-92109392D01*
X145151837Y-92240582D01*
X145212218Y-92386356D01*
X145212218Y-92386357D01*
X145234332Y-92497529D01*
X145243000Y-92541109D01*
X145243000Y-92698891D01*
X145212218Y-92853644D01*
X145151837Y-92999418D01*
X145064178Y-93130608D01*
X144952608Y-93242178D01*
X144821418Y-93329837D01*
X144675644Y-93390218D01*
X144520892Y-93421000D01*
X144363108Y-93421000D01*
X144208356Y-93390218D01*
X144062582Y-93329837D01*
X143931392Y-93242178D01*
X143819822Y-93130608D01*
X143732163Y-92999418D01*
X143671782Y-92853644D01*
X143641000Y-92698891D01*
X143641000Y-92541109D01*
X143649669Y-92497529D01*
X143671782Y-92386357D01*
X143671782Y-92386356D01*
X143732163Y-92240582D01*
X143819822Y-92109392D01*
X143931392Y-91997822D01*
X144062582Y-91910163D01*
X144208356Y-91849782D01*
X144363108Y-91819000D01*
X144520892Y-91819000D01*
X144598267Y-91834391D01*
X144598267Y-91834391D01*
G37*
G36*
X142058267Y-91834391D02*
G01*
X142135644Y-91849782D01*
X142281418Y-91910163D01*
X142412608Y-91997822D01*
X142524178Y-92109392D01*
X142611837Y-92240582D01*
X142672218Y-92386356D01*
X142672218Y-92386357D01*
X142694332Y-92497529D01*
X142703000Y-92541109D01*
X142703000Y-92698891D01*
X142672218Y-92853644D01*
X142611837Y-92999418D01*
X142524178Y-93130608D01*
X142412608Y-93242178D01*
X142281418Y-93329837D01*
X142135644Y-93390218D01*
X141980892Y-93421000D01*
X141823108Y-93421000D01*
X141668356Y-93390218D01*
X141522582Y-93329837D01*
X141391392Y-93242178D01*
X141279822Y-93130608D01*
X141192163Y-92999418D01*
X141131782Y-92853644D01*
X141101000Y-92698891D01*
X141101000Y-92541109D01*
X141109669Y-92497529D01*
X141131782Y-92386357D01*
X141131782Y-92386356D01*
X141192163Y-92240582D01*
X141279822Y-92109392D01*
X141391392Y-91997822D01*
X141522582Y-91910163D01*
X141668356Y-91849782D01*
X141823108Y-91819000D01*
X141980892Y-91819000D01*
X142058267Y-91834391D01*
X142058267Y-91834391D01*
G37*
G36*
X139558267Y-91834391D02*
G01*
X139635644Y-91849782D01*
X139781418Y-91910163D01*
X139912608Y-91997822D01*
X140024178Y-92109392D01*
X140111837Y-92240582D01*
X140172218Y-92386356D01*
X140172218Y-92386357D01*
X140194332Y-92497529D01*
X140203000Y-92541109D01*
X140203000Y-92698891D01*
X140172218Y-92853644D01*
X140111837Y-92999418D01*
X140024178Y-93130608D01*
X139912608Y-93242178D01*
X139781418Y-93329837D01*
X139635644Y-93390218D01*
X139480892Y-93421000D01*
X139323108Y-93421000D01*
X139168356Y-93390218D01*
X139022582Y-93329837D01*
X138891392Y-93242178D01*
X138779822Y-93130608D01*
X138692163Y-92999418D01*
X138631782Y-92853644D01*
X138601000Y-92698891D01*
X138601000Y-92541109D01*
X138609669Y-92497529D01*
X138631782Y-92386357D01*
X138631782Y-92386356D01*
X138692163Y-92240582D01*
X138779822Y-92109392D01*
X138891392Y-91997822D01*
X139022582Y-91910163D01*
X139168356Y-91849782D01*
X139323108Y-91819000D01*
X139480892Y-91819000D01*
X139558267Y-91834391D01*
X139558267Y-91834391D01*
G37*
G36*
X126558267Y-91834391D02*
G01*
X126635644Y-91849782D01*
X126781418Y-91910163D01*
X126912608Y-91997822D01*
X127024178Y-92109392D01*
X127111837Y-92240582D01*
X127172218Y-92386356D01*
X127172218Y-92386357D01*
X127194332Y-92497529D01*
X127203000Y-92541109D01*
X127203000Y-92698891D01*
X127172218Y-92853644D01*
X127111837Y-92999418D01*
X127024178Y-93130608D01*
X126912608Y-93242178D01*
X126781418Y-93329837D01*
X126635644Y-93390218D01*
X126480892Y-93421000D01*
X126323108Y-93421000D01*
X126168356Y-93390218D01*
X126022582Y-93329837D01*
X125891392Y-93242178D01*
X125779822Y-93130608D01*
X125692163Y-92999418D01*
X125631782Y-92853644D01*
X125601000Y-92698891D01*
X125601000Y-92541109D01*
X125609669Y-92497529D01*
X125631782Y-92386357D01*
X125631782Y-92386356D01*
X125692163Y-92240582D01*
X125779822Y-92109392D01*
X125891392Y-91997822D01*
X126022582Y-91910163D01*
X126168356Y-91849782D01*
X126323108Y-91819000D01*
X126480892Y-91819000D01*
X126558267Y-91834391D01*
X126558267Y-91834391D01*
G37*
G36*
X129058267Y-91834391D02*
G01*
X129135644Y-91849782D01*
X129281418Y-91910163D01*
X129412608Y-91997822D01*
X129524178Y-92109392D01*
X129611837Y-92240582D01*
X129672218Y-92386356D01*
X129672218Y-92386357D01*
X129694332Y-92497529D01*
X129703000Y-92541109D01*
X129703000Y-92698891D01*
X129672218Y-92853644D01*
X129611837Y-92999418D01*
X129524178Y-93130608D01*
X129412608Y-93242178D01*
X129281418Y-93329837D01*
X129135644Y-93390218D01*
X128980892Y-93421000D01*
X128823108Y-93421000D01*
X128668356Y-93390218D01*
X128522582Y-93329837D01*
X128391392Y-93242178D01*
X128279822Y-93130608D01*
X128192163Y-92999418D01*
X128131782Y-92853644D01*
X128101000Y-92698891D01*
X128101000Y-92541109D01*
X128109669Y-92497529D01*
X128131782Y-92386357D01*
X128131782Y-92386356D01*
X128192163Y-92240582D01*
X128279822Y-92109392D01*
X128391392Y-91997822D01*
X128522582Y-91910163D01*
X128668356Y-91849782D01*
X128823108Y-91819000D01*
X128980892Y-91819000D01*
X129058267Y-91834391D01*
X129058267Y-91834391D01*
G37*
G36*
X131598267Y-91834391D02*
G01*
X131675644Y-91849782D01*
X131821418Y-91910163D01*
X131952608Y-91997822D01*
X132064178Y-92109392D01*
X132151837Y-92240582D01*
X132212218Y-92386356D01*
X132212218Y-92386357D01*
X132234332Y-92497529D01*
X132243000Y-92541109D01*
X132243000Y-92698891D01*
X132212218Y-92853644D01*
X132151837Y-92999418D01*
X132064178Y-93130608D01*
X131952608Y-93242178D01*
X131821418Y-93329837D01*
X131675644Y-93390218D01*
X131520892Y-93421000D01*
X131363108Y-93421000D01*
X131208356Y-93390218D01*
X131062582Y-93329837D01*
X130931392Y-93242178D01*
X130819822Y-93130608D01*
X130732163Y-92999418D01*
X130671782Y-92853644D01*
X130641000Y-92698891D01*
X130641000Y-92541109D01*
X130649669Y-92497529D01*
X130671782Y-92386357D01*
X130671782Y-92386356D01*
X130732163Y-92240582D01*
X130819822Y-92109392D01*
X130931392Y-91997822D01*
X131062582Y-91910163D01*
X131208356Y-91849782D01*
X131363108Y-91819000D01*
X131520892Y-91819000D01*
X131598267Y-91834391D01*
X131598267Y-91834391D01*
G37*
G36*
X134138267Y-91834391D02*
G01*
X134215644Y-91849782D01*
X134361418Y-91910163D01*
X134492608Y-91997822D01*
X134604178Y-92109392D01*
X134691837Y-92240582D01*
X134752218Y-92386356D01*
X134752218Y-92386357D01*
X134774332Y-92497529D01*
X134783000Y-92541109D01*
X134783000Y-92698891D01*
X134752218Y-92853644D01*
X134691837Y-92999418D01*
X134604178Y-93130608D01*
X134492608Y-93242178D01*
X134361418Y-93329837D01*
X134215644Y-93390218D01*
X134060892Y-93421000D01*
X133903108Y-93421000D01*
X133748356Y-93390218D01*
X133602582Y-93329837D01*
X133471392Y-93242178D01*
X133359822Y-93130608D01*
X133272163Y-92999418D01*
X133211782Y-92853644D01*
X133181000Y-92698891D01*
X133181000Y-92541109D01*
X133189669Y-92497529D01*
X133211782Y-92386357D01*
X133211782Y-92386356D01*
X133272163Y-92240582D01*
X133359822Y-92109392D01*
X133471392Y-91997822D01*
X133602582Y-91910163D01*
X133748356Y-91849782D01*
X133903108Y-91819000D01*
X134060892Y-91819000D01*
X134138267Y-91834391D01*
X134138267Y-91834391D01*
G37*
G36*
X136678267Y-91834391D02*
G01*
X136755644Y-91849782D01*
X136901418Y-91910163D01*
X137032608Y-91997822D01*
X137144178Y-92109392D01*
X137231837Y-92240582D01*
X137292218Y-92386356D01*
X137292218Y-92386357D01*
X137314332Y-92497529D01*
X137323000Y-92541109D01*
X137323000Y-92698891D01*
X137292218Y-92853644D01*
X137231837Y-92999418D01*
X137144178Y-93130608D01*
X137032608Y-93242178D01*
X136901418Y-93329837D01*
X136755644Y-93390218D01*
X136600892Y-93421000D01*
X136443108Y-93421000D01*
X136288356Y-93390218D01*
X136142582Y-93329837D01*
X136011392Y-93242178D01*
X135899822Y-93130608D01*
X135812163Y-92999418D01*
X135751782Y-92853644D01*
X135721000Y-92698891D01*
X135721000Y-92541109D01*
X135729669Y-92497529D01*
X135751782Y-92386357D01*
X135751782Y-92386356D01*
X135812163Y-92240582D01*
X135899822Y-92109392D01*
X136011392Y-91997822D01*
X136142582Y-91910163D01*
X136288356Y-91849782D01*
X136443108Y-91819000D01*
X136600892Y-91819000D01*
X136678267Y-91834391D01*
X136678267Y-91834391D01*
G37*
G36*
X177000267Y-91834391D02*
G01*
X177077644Y-91849782D01*
X177223418Y-91910163D01*
X177354608Y-91997822D01*
X177466178Y-92109392D01*
X177553837Y-92240582D01*
X177614218Y-92386356D01*
X177614218Y-92386357D01*
X177636332Y-92497529D01*
X177645000Y-92541109D01*
X177645000Y-92698891D01*
X177614218Y-92853644D01*
X177553837Y-92999418D01*
X177466178Y-93130608D01*
X177354608Y-93242178D01*
X177223418Y-93329837D01*
X177077644Y-93390218D01*
X176922892Y-93421000D01*
X176765108Y-93421000D01*
X176610356Y-93390218D01*
X176464582Y-93329837D01*
X176333392Y-93242178D01*
X176221822Y-93130608D01*
X176134163Y-92999418D01*
X176073782Y-92853644D01*
X176043000Y-92698891D01*
X176043000Y-92541109D01*
X176051669Y-92497529D01*
X176073782Y-92386357D01*
X176073782Y-92386356D01*
X176134163Y-92240582D01*
X176221822Y-92109392D01*
X176333392Y-91997822D01*
X176464582Y-91910163D01*
X176610356Y-91849782D01*
X176765108Y-91819000D01*
X176922892Y-91819000D01*
X177000267Y-91834391D01*
X177000267Y-91834391D01*
G37*
G36*
X96696267Y-91834391D02*
G01*
X96773644Y-91849782D01*
X96919418Y-91910163D01*
X97050608Y-91997822D01*
X97162178Y-92109392D01*
X97249837Y-92240582D01*
X97310218Y-92386356D01*
X97310218Y-92386357D01*
X97332332Y-92497529D01*
X97341000Y-92541109D01*
X97341000Y-92698891D01*
X97310218Y-92853644D01*
X97249837Y-92999418D01*
X97162178Y-93130608D01*
X97050608Y-93242178D01*
X96919418Y-93329837D01*
X96773644Y-93390218D01*
X96618892Y-93421000D01*
X96461108Y-93421000D01*
X96306356Y-93390218D01*
X96160582Y-93329837D01*
X96029392Y-93242178D01*
X95917822Y-93130608D01*
X95830163Y-92999418D01*
X95769782Y-92853644D01*
X95739000Y-92698891D01*
X95739000Y-92541109D01*
X95747669Y-92497529D01*
X95769782Y-92386357D01*
X95769782Y-92386356D01*
X95830163Y-92240582D01*
X95917822Y-92109392D01*
X96029392Y-91997822D01*
X96160582Y-91910163D01*
X96306356Y-91849782D01*
X96461108Y-91819000D01*
X96618892Y-91819000D01*
X96696267Y-91834391D01*
X96696267Y-91834391D01*
G37*
G36*
X174120267Y-91834391D02*
G01*
X174197644Y-91849782D01*
X174343418Y-91910163D01*
X174474608Y-91997822D01*
X174586178Y-92109392D01*
X174673837Y-92240582D01*
X174734218Y-92386356D01*
X174734218Y-92386357D01*
X174756332Y-92497529D01*
X174765000Y-92541109D01*
X174765000Y-92698891D01*
X174734218Y-92853644D01*
X174673837Y-92999418D01*
X174586178Y-93130608D01*
X174474608Y-93242178D01*
X174343418Y-93329837D01*
X174197644Y-93390218D01*
X174042892Y-93421000D01*
X173885108Y-93421000D01*
X173730356Y-93390218D01*
X173584582Y-93329837D01*
X173453392Y-93242178D01*
X173341822Y-93130608D01*
X173254163Y-92999418D01*
X173193782Y-92853644D01*
X173163000Y-92698891D01*
X173163000Y-92541109D01*
X173171669Y-92497529D01*
X173193782Y-92386357D01*
X173193782Y-92386356D01*
X173254163Y-92240582D01*
X173341822Y-92109392D01*
X173453392Y-91997822D01*
X173584582Y-91910163D01*
X173730356Y-91849782D01*
X173885108Y-91819000D01*
X174042892Y-91819000D01*
X174120267Y-91834391D01*
X174120267Y-91834391D01*
G37*
G36*
X169040267Y-91834391D02*
G01*
X169117644Y-91849782D01*
X169263418Y-91910163D01*
X169394608Y-91997822D01*
X169506178Y-92109392D01*
X169593837Y-92240582D01*
X169654218Y-92386356D01*
X169654218Y-92386357D01*
X169676332Y-92497529D01*
X169685000Y-92541109D01*
X169685000Y-92698891D01*
X169654218Y-92853644D01*
X169593837Y-92999418D01*
X169506178Y-93130608D01*
X169394608Y-93242178D01*
X169263418Y-93329837D01*
X169117644Y-93390218D01*
X168962892Y-93421000D01*
X168805108Y-93421000D01*
X168650356Y-93390218D01*
X168504582Y-93329837D01*
X168373392Y-93242178D01*
X168261822Y-93130608D01*
X168174163Y-92999418D01*
X168113782Y-92853644D01*
X168083000Y-92698891D01*
X168083000Y-92541109D01*
X168091669Y-92497529D01*
X168113782Y-92386357D01*
X168113782Y-92386356D01*
X168174163Y-92240582D01*
X168261822Y-92109392D01*
X168373392Y-91997822D01*
X168504582Y-91910163D01*
X168650356Y-91849782D01*
X168805108Y-91819000D01*
X168962892Y-91819000D01*
X169040267Y-91834391D01*
X169040267Y-91834391D01*
G37*
G36*
X112236267Y-91834391D02*
G01*
X112313644Y-91849782D01*
X112459418Y-91910163D01*
X112590608Y-91997822D01*
X112702178Y-92109392D01*
X112789837Y-92240582D01*
X112850218Y-92386356D01*
X112850218Y-92386357D01*
X112872332Y-92497529D01*
X112881000Y-92541109D01*
X112881000Y-92698891D01*
X112850218Y-92853644D01*
X112789837Y-92999418D01*
X112702178Y-93130608D01*
X112590608Y-93242178D01*
X112459418Y-93329837D01*
X112313644Y-93390218D01*
X112158892Y-93421000D01*
X112001108Y-93421000D01*
X111846356Y-93390218D01*
X111700582Y-93329837D01*
X111569392Y-93242178D01*
X111457822Y-93130608D01*
X111370163Y-92999418D01*
X111309782Y-92853644D01*
X111279000Y-92698891D01*
X111279000Y-92541109D01*
X111287669Y-92497529D01*
X111309782Y-92386357D01*
X111309782Y-92386356D01*
X111370163Y-92240582D01*
X111457822Y-92109392D01*
X111569392Y-91997822D01*
X111700582Y-91910163D01*
X111846356Y-91849782D01*
X112001108Y-91819000D01*
X112158892Y-91819000D01*
X112236267Y-91834391D01*
X112236267Y-91834391D01*
G37*
G36*
X102116267Y-91834391D02*
G01*
X102193644Y-91849782D01*
X102339418Y-91910163D01*
X102470608Y-91997822D01*
X102582178Y-92109392D01*
X102669837Y-92240582D01*
X102730218Y-92386356D01*
X102730218Y-92386357D01*
X102752332Y-92497529D01*
X102761000Y-92541109D01*
X102761000Y-92698891D01*
X102730218Y-92853644D01*
X102669837Y-92999418D01*
X102582178Y-93130608D01*
X102470608Y-93242178D01*
X102339418Y-93329837D01*
X102193644Y-93390218D01*
X102038892Y-93421000D01*
X101881108Y-93421000D01*
X101726356Y-93390218D01*
X101580582Y-93329837D01*
X101449392Y-93242178D01*
X101337822Y-93130608D01*
X101250163Y-92999418D01*
X101189782Y-92853644D01*
X101159000Y-92698891D01*
X101159000Y-92541109D01*
X101167669Y-92497529D01*
X101189782Y-92386357D01*
X101189782Y-92386356D01*
X101250163Y-92240582D01*
X101337822Y-92109392D01*
X101449392Y-91997822D01*
X101580582Y-91910163D01*
X101726356Y-91849782D01*
X101881108Y-91819000D01*
X102038892Y-91819000D01*
X102116267Y-91834391D01*
X102116267Y-91834391D01*
G37*
G36*
X104616267Y-91834391D02*
G01*
X104693644Y-91849782D01*
X104839418Y-91910163D01*
X104970608Y-91997822D01*
X105082178Y-92109392D01*
X105169837Y-92240582D01*
X105230218Y-92386356D01*
X105230218Y-92386357D01*
X105252332Y-92497529D01*
X105261000Y-92541109D01*
X105261000Y-92698891D01*
X105230218Y-92853644D01*
X105169837Y-92999418D01*
X105082178Y-93130608D01*
X104970608Y-93242178D01*
X104839418Y-93329837D01*
X104693644Y-93390218D01*
X104538892Y-93421000D01*
X104381108Y-93421000D01*
X104226356Y-93390218D01*
X104080582Y-93329837D01*
X103949392Y-93242178D01*
X103837822Y-93130608D01*
X103750163Y-92999418D01*
X103689782Y-92853644D01*
X103659000Y-92698891D01*
X103659000Y-92541109D01*
X103667669Y-92497529D01*
X103689782Y-92386357D01*
X103689782Y-92386356D01*
X103750163Y-92240582D01*
X103837822Y-92109392D01*
X103949392Y-91997822D01*
X104080582Y-91910163D01*
X104226356Y-91849782D01*
X104381108Y-91819000D01*
X104538892Y-91819000D01*
X104616267Y-91834391D01*
X104616267Y-91834391D01*
G37*
G36*
X179500267Y-91834391D02*
G01*
X179577644Y-91849782D01*
X179723418Y-91910163D01*
X179854608Y-91997822D01*
X179966178Y-92109392D01*
X180053837Y-92240582D01*
X180114218Y-92386356D01*
X180114218Y-92386357D01*
X180136332Y-92497529D01*
X180145000Y-92541109D01*
X180145000Y-92698891D01*
X180114218Y-92853644D01*
X180053837Y-92999418D01*
X179966178Y-93130608D01*
X179854608Y-93242178D01*
X179723418Y-93329837D01*
X179577644Y-93390218D01*
X179422892Y-93421000D01*
X179265108Y-93421000D01*
X179110356Y-93390218D01*
X178964582Y-93329837D01*
X178833392Y-93242178D01*
X178721822Y-93130608D01*
X178634163Y-92999418D01*
X178573782Y-92853644D01*
X178543000Y-92698891D01*
X178543000Y-92541109D01*
X178551669Y-92497529D01*
X178573782Y-92386357D01*
X178573782Y-92386356D01*
X178634163Y-92240582D01*
X178721822Y-92109392D01*
X178833392Y-91997822D01*
X178964582Y-91910163D01*
X179110356Y-91849782D01*
X179265108Y-91819000D01*
X179422892Y-91819000D01*
X179500267Y-91834391D01*
X179500267Y-91834391D01*
G37*
G36*
X182040267Y-91834391D02*
G01*
X182117644Y-91849782D01*
X182263418Y-91910163D01*
X182394608Y-91997822D01*
X182506178Y-92109392D01*
X182593837Y-92240582D01*
X182654218Y-92386356D01*
X182654218Y-92386357D01*
X182676332Y-92497529D01*
X182685000Y-92541109D01*
X182685000Y-92698891D01*
X182654218Y-92853644D01*
X182593837Y-92999418D01*
X182506178Y-93130608D01*
X182394608Y-93242178D01*
X182263418Y-93329837D01*
X182117644Y-93390218D01*
X181962892Y-93421000D01*
X181805108Y-93421000D01*
X181650356Y-93390218D01*
X181504582Y-93329837D01*
X181373392Y-93242178D01*
X181261822Y-93130608D01*
X181174163Y-92999418D01*
X181113782Y-92853644D01*
X181083000Y-92698891D01*
X181083000Y-92541109D01*
X181091669Y-92497529D01*
X181113782Y-92386357D01*
X181113782Y-92386356D01*
X181174163Y-92240582D01*
X181261822Y-92109392D01*
X181373392Y-91997822D01*
X181504582Y-91910163D01*
X181650356Y-91849782D01*
X181805108Y-91819000D01*
X181962892Y-91819000D01*
X182040267Y-91834391D01*
X182040267Y-91834391D01*
G37*
G36*
X184580267Y-91834391D02*
G01*
X184657644Y-91849782D01*
X184803418Y-91910163D01*
X184934608Y-91997822D01*
X185046178Y-92109392D01*
X185133837Y-92240582D01*
X185194218Y-92386356D01*
X185194218Y-92386357D01*
X185216332Y-92497529D01*
X185225000Y-92541109D01*
X185225000Y-92698891D01*
X185194218Y-92853644D01*
X185133837Y-92999418D01*
X185046178Y-93130608D01*
X184934608Y-93242178D01*
X184803418Y-93329837D01*
X184657644Y-93390218D01*
X184502892Y-93421000D01*
X184345108Y-93421000D01*
X184190356Y-93390218D01*
X184044582Y-93329837D01*
X183913392Y-93242178D01*
X183801822Y-93130608D01*
X183714163Y-92999418D01*
X183653782Y-92853644D01*
X183623000Y-92698891D01*
X183623000Y-92541109D01*
X183631669Y-92497529D01*
X183653782Y-92386357D01*
X183653782Y-92386356D01*
X183714163Y-92240582D01*
X183801822Y-92109392D01*
X183913392Y-91997822D01*
X184044582Y-91910163D01*
X184190356Y-91849782D01*
X184345108Y-91819000D01*
X184502892Y-91819000D01*
X184580267Y-91834391D01*
X184580267Y-91834391D01*
G37*
G36*
X187120267Y-91834391D02*
G01*
X187197644Y-91849782D01*
X187343418Y-91910163D01*
X187474608Y-91997822D01*
X187586178Y-92109392D01*
X187673837Y-92240582D01*
X187734218Y-92386356D01*
X187734218Y-92386357D01*
X187756332Y-92497529D01*
X187765000Y-92541109D01*
X187765000Y-92698891D01*
X187734218Y-92853644D01*
X187673837Y-92999418D01*
X187586178Y-93130608D01*
X187474608Y-93242178D01*
X187343418Y-93329837D01*
X187197644Y-93390218D01*
X187042892Y-93421000D01*
X186885108Y-93421000D01*
X186730356Y-93390218D01*
X186584582Y-93329837D01*
X186453392Y-93242178D01*
X186341822Y-93130608D01*
X186254163Y-92999418D01*
X186193782Y-92853644D01*
X186163000Y-92698891D01*
X186163000Y-92541109D01*
X186171669Y-92497529D01*
X186193782Y-92386357D01*
X186193782Y-92386356D01*
X186254163Y-92240582D01*
X186341822Y-92109392D01*
X186453392Y-91997822D01*
X186584582Y-91910163D01*
X186730356Y-91849782D01*
X186885108Y-91819000D01*
X187042892Y-91819000D01*
X187120267Y-91834391D01*
X187120267Y-91834391D01*
G37*
G36*
X107156267Y-91834391D02*
G01*
X107233644Y-91849782D01*
X107379418Y-91910163D01*
X107510608Y-91997822D01*
X107622178Y-92109392D01*
X107709837Y-92240582D01*
X107770218Y-92386356D01*
X107770218Y-92386357D01*
X107792332Y-92497529D01*
X107801000Y-92541109D01*
X107801000Y-92698891D01*
X107770218Y-92853644D01*
X107709837Y-92999418D01*
X107622178Y-93130608D01*
X107510608Y-93242178D01*
X107379418Y-93329837D01*
X107233644Y-93390218D01*
X107078892Y-93421000D01*
X106921108Y-93421000D01*
X106766356Y-93390218D01*
X106620582Y-93329837D01*
X106489392Y-93242178D01*
X106377822Y-93130608D01*
X106290163Y-92999418D01*
X106229782Y-92853644D01*
X106199000Y-92698891D01*
X106199000Y-92541109D01*
X106207669Y-92497529D01*
X106229782Y-92386357D01*
X106229782Y-92386356D01*
X106290163Y-92240582D01*
X106377822Y-92109392D01*
X106489392Y-91997822D01*
X106620582Y-91910163D01*
X106766356Y-91849782D01*
X106921108Y-91819000D01*
X107078892Y-91819000D01*
X107156267Y-91834391D01*
X107156267Y-91834391D01*
G37*
G36*
X109696267Y-91834391D02*
G01*
X109773644Y-91849782D01*
X109919418Y-91910163D01*
X110050608Y-91997822D01*
X110162178Y-92109392D01*
X110249837Y-92240582D01*
X110310218Y-92386356D01*
X110310218Y-92386357D01*
X110332332Y-92497529D01*
X110341000Y-92541109D01*
X110341000Y-92698891D01*
X110310218Y-92853644D01*
X110249837Y-92999418D01*
X110162178Y-93130608D01*
X110050608Y-93242178D01*
X109919418Y-93329837D01*
X109773644Y-93390218D01*
X109618892Y-93421000D01*
X109461108Y-93421000D01*
X109306356Y-93390218D01*
X109160582Y-93329837D01*
X109029392Y-93242178D01*
X108917822Y-93130608D01*
X108830163Y-92999418D01*
X108769782Y-92853644D01*
X108739000Y-92698891D01*
X108739000Y-92541109D01*
X108747669Y-92497529D01*
X108769782Y-92386357D01*
X108769782Y-92386356D01*
X108830163Y-92240582D01*
X108917822Y-92109392D01*
X109029392Y-91997822D01*
X109160582Y-91910163D01*
X109306356Y-91849782D01*
X109461108Y-91819000D01*
X109618892Y-91819000D01*
X109696267Y-91834391D01*
X109696267Y-91834391D01*
G37*
G36*
X171580267Y-91834391D02*
G01*
X171657644Y-91849782D01*
X171803418Y-91910163D01*
X171934608Y-91997822D01*
X172046178Y-92109392D01*
X172133837Y-92240582D01*
X172194218Y-92386356D01*
X172194218Y-92386357D01*
X172216332Y-92497529D01*
X172225000Y-92541109D01*
X172225000Y-92698891D01*
X172194218Y-92853644D01*
X172133837Y-92999418D01*
X172046178Y-93130608D01*
X171934608Y-93242178D01*
X171803418Y-93329837D01*
X171657644Y-93390218D01*
X171502892Y-93421000D01*
X171345108Y-93421000D01*
X171190356Y-93390218D01*
X171044582Y-93329837D01*
X170913392Y-93242178D01*
X170801822Y-93130608D01*
X170714163Y-92999418D01*
X170653782Y-92853644D01*
X170623000Y-92698891D01*
X170623000Y-92541109D01*
X170631669Y-92497529D01*
X170653782Y-92386357D01*
X170653782Y-92386356D01*
X170714163Y-92240582D01*
X170801822Y-92109392D01*
X170913392Y-91997822D01*
X171044582Y-91910163D01*
X171190356Y-91849782D01*
X171345108Y-91819000D01*
X171502892Y-91819000D01*
X171580267Y-91834391D01*
X171580267Y-91834391D01*
G37*
G36*
X99236267Y-91834391D02*
G01*
X99313644Y-91849782D01*
X99459418Y-91910163D01*
X99590608Y-91997822D01*
X99702178Y-92109392D01*
X99789837Y-92240582D01*
X99850218Y-92386356D01*
X99850218Y-92386357D01*
X99872332Y-92497529D01*
X99881000Y-92541109D01*
X99881000Y-92698891D01*
X99850218Y-92853644D01*
X99789837Y-92999418D01*
X99702178Y-93130608D01*
X99590608Y-93242178D01*
X99459418Y-93329837D01*
X99313644Y-93390218D01*
X99158892Y-93421000D01*
X99001108Y-93421000D01*
X98846356Y-93390218D01*
X98700582Y-93329837D01*
X98569392Y-93242178D01*
X98457822Y-93130608D01*
X98370163Y-92999418D01*
X98309782Y-92853644D01*
X98279000Y-92698891D01*
X98279000Y-92541109D01*
X98287669Y-92497529D01*
X98309782Y-92386357D01*
X98309782Y-92386356D01*
X98370163Y-92240582D01*
X98457822Y-92109392D01*
X98569392Y-91997822D01*
X98700582Y-91910163D01*
X98846356Y-91849782D01*
X99001108Y-91819000D01*
X99158892Y-91819000D01*
X99236267Y-91834391D01*
X99236267Y-91834391D01*
G37*
G36*
X193785143Y-89896243D02*
G01*
X193933102Y-89957529D01*
X194066258Y-90046501D01*
X194179499Y-90159742D01*
X194268471Y-90292898D01*
X194329757Y-90440857D01*
X194361000Y-90597927D01*
X194361000Y-90758073D01*
X194329757Y-90915143D01*
X194268471Y-91063102D01*
X194179499Y-91196258D01*
X194066258Y-91309499D01*
X193933102Y-91398471D01*
X193785143Y-91459757D01*
X193628074Y-91491000D01*
X193467926Y-91491000D01*
X193310857Y-91459757D01*
X193162898Y-91398471D01*
X193029742Y-91309499D01*
X192916501Y-91196258D01*
X192827529Y-91063102D01*
X192766243Y-90915143D01*
X192735000Y-90758073D01*
X192735000Y-90597927D01*
X192766243Y-90440857D01*
X192827529Y-90292898D01*
X192916501Y-90159742D01*
X193029742Y-90046501D01*
X193162898Y-89957529D01*
X193310857Y-89896243D01*
X193467926Y-89865000D01*
X193628074Y-89865000D01*
X193785143Y-89896243D01*
X193785143Y-89896243D01*
G37*
G36*
X201405143Y-89896243D02*
G01*
X201553102Y-89957529D01*
X201686258Y-90046501D01*
X201799499Y-90159742D01*
X201888471Y-90292898D01*
X201949757Y-90440857D01*
X201981000Y-90597927D01*
X201981000Y-90758073D01*
X201949757Y-90915143D01*
X201888471Y-91063102D01*
X201799499Y-91196258D01*
X201686258Y-91309499D01*
X201553102Y-91398471D01*
X201405143Y-91459757D01*
X201248074Y-91491000D01*
X201087926Y-91491000D01*
X200930857Y-91459757D01*
X200782898Y-91398471D01*
X200649742Y-91309499D01*
X200536501Y-91196258D01*
X200447529Y-91063102D01*
X200386243Y-90915143D01*
X200355000Y-90758073D01*
X200355000Y-90597927D01*
X200386243Y-90440857D01*
X200447529Y-90292898D01*
X200536501Y-90159742D01*
X200649742Y-90046501D01*
X200782898Y-89957529D01*
X200930857Y-89896243D01*
X201087926Y-89865000D01*
X201248074Y-89865000D01*
X201405143Y-89896243D01*
X201405143Y-89896243D01*
G37*
G36*
X193785143Y-87356243D02*
G01*
X193933102Y-87417529D01*
X194066258Y-87506501D01*
X194179499Y-87619742D01*
X194268471Y-87752898D01*
X194329757Y-87900857D01*
X194361000Y-88057927D01*
X194361000Y-88218073D01*
X194329757Y-88375143D01*
X194268471Y-88523102D01*
X194179499Y-88656258D01*
X194066258Y-88769499D01*
X193933102Y-88858471D01*
X193785143Y-88919757D01*
X193628074Y-88951000D01*
X193467926Y-88951000D01*
X193310857Y-88919757D01*
X193162898Y-88858471D01*
X193029742Y-88769499D01*
X192916501Y-88656258D01*
X192827529Y-88523102D01*
X192766243Y-88375143D01*
X192735000Y-88218073D01*
X192735000Y-88057927D01*
X192766243Y-87900857D01*
X192827529Y-87752898D01*
X192916501Y-87619742D01*
X193029742Y-87506501D01*
X193162898Y-87417529D01*
X193310857Y-87356243D01*
X193467926Y-87325000D01*
X193628074Y-87325000D01*
X193785143Y-87356243D01*
X193785143Y-87356243D01*
G37*
G36*
X201405143Y-87356243D02*
G01*
X201553102Y-87417529D01*
X201686258Y-87506501D01*
X201799499Y-87619742D01*
X201888471Y-87752898D01*
X201949757Y-87900857D01*
X201981000Y-88057927D01*
X201981000Y-88218073D01*
X201949757Y-88375143D01*
X201888471Y-88523102D01*
X201799499Y-88656258D01*
X201686258Y-88769499D01*
X201553102Y-88858471D01*
X201405143Y-88919757D01*
X201248074Y-88951000D01*
X201087926Y-88951000D01*
X200930857Y-88919757D01*
X200782898Y-88858471D01*
X200649742Y-88769499D01*
X200536501Y-88656258D01*
X200447529Y-88523102D01*
X200386243Y-88375143D01*
X200355000Y-88218073D01*
X200355000Y-88057927D01*
X200386243Y-87900857D01*
X200447529Y-87752898D01*
X200536501Y-87619742D01*
X200649742Y-87506501D01*
X200782898Y-87417529D01*
X200930857Y-87356243D01*
X201087926Y-87325000D01*
X201248074Y-87325000D01*
X201405143Y-87356243D01*
X201405143Y-87356243D01*
G37*
G36*
X193785143Y-84816243D02*
G01*
X193933102Y-84877529D01*
X194066258Y-84966501D01*
X194179499Y-85079742D01*
X194268471Y-85212898D01*
X194329757Y-85360857D01*
X194361000Y-85517927D01*
X194361000Y-85678073D01*
X194329757Y-85835143D01*
X194268471Y-85983102D01*
X194179499Y-86116258D01*
X194066258Y-86229499D01*
X193933102Y-86318471D01*
X193785143Y-86379757D01*
X193628074Y-86411000D01*
X193467926Y-86411000D01*
X193310857Y-86379757D01*
X193162898Y-86318471D01*
X193029742Y-86229499D01*
X192916501Y-86116258D01*
X192827529Y-85983102D01*
X192766243Y-85835143D01*
X192735000Y-85678073D01*
X192735000Y-85517927D01*
X192766243Y-85360857D01*
X192827529Y-85212898D01*
X192916501Y-85079742D01*
X193029742Y-84966501D01*
X193162898Y-84877529D01*
X193310857Y-84816243D01*
X193467926Y-84785000D01*
X193628074Y-84785000D01*
X193785143Y-84816243D01*
X193785143Y-84816243D01*
G37*
G36*
X201405143Y-84816243D02*
G01*
X201553102Y-84877529D01*
X201686258Y-84966501D01*
X201799499Y-85079742D01*
X201888471Y-85212898D01*
X201949757Y-85360857D01*
X201981000Y-85517927D01*
X201981000Y-85678073D01*
X201949757Y-85835143D01*
X201888471Y-85983102D01*
X201799499Y-86116258D01*
X201686258Y-86229499D01*
X201553102Y-86318471D01*
X201405143Y-86379757D01*
X201248074Y-86411000D01*
X201087926Y-86411000D01*
X200930857Y-86379757D01*
X200782898Y-86318471D01*
X200649742Y-86229499D01*
X200536501Y-86116258D01*
X200447529Y-85983102D01*
X200386243Y-85835143D01*
X200355000Y-85678073D01*
X200355000Y-85517927D01*
X200386243Y-85360857D01*
X200447529Y-85212898D01*
X200536501Y-85079742D01*
X200649742Y-84966501D01*
X200782898Y-84877529D01*
X200930857Y-84816243D01*
X201087926Y-84785000D01*
X201248074Y-84785000D01*
X201405143Y-84816243D01*
X201405143Y-84816243D01*
G37*
G36*
X142135644Y-76609782D02*
G01*
X142281418Y-76670163D01*
X142412608Y-76757822D01*
X142524178Y-76869392D01*
X142611837Y-77000582D01*
X142672218Y-77146356D01*
X142703000Y-77301109D01*
X142703000Y-77458891D01*
X142672218Y-77613644D01*
X142611837Y-77759418D01*
X142524178Y-77890608D01*
X142412608Y-78002178D01*
X142281418Y-78089837D01*
X142135644Y-78150218D01*
X142058267Y-78165609D01*
X141980892Y-78181000D01*
X141823108Y-78181000D01*
X141745733Y-78165609D01*
X141668356Y-78150218D01*
X141522582Y-78089837D01*
X141391392Y-78002178D01*
X141279822Y-77890608D01*
X141192163Y-77759418D01*
X141131782Y-77613644D01*
X141101000Y-77458891D01*
X141101000Y-77301109D01*
X141131782Y-77146356D01*
X141192163Y-77000582D01*
X141279822Y-76869392D01*
X141391392Y-76757822D01*
X141522582Y-76670163D01*
X141668356Y-76609782D01*
X141823108Y-76579000D01*
X141980892Y-76579000D01*
X142135644Y-76609782D01*
X142135644Y-76609782D01*
G37*
G36*
X126595644Y-76609782D02*
G01*
X126741418Y-76670163D01*
X126872608Y-76757822D01*
X126984178Y-76869392D01*
X127071837Y-77000582D01*
X127132218Y-77146356D01*
X127163000Y-77301109D01*
X127163000Y-77458891D01*
X127132218Y-77613644D01*
X127071837Y-77759418D01*
X126984178Y-77890608D01*
X126872608Y-78002178D01*
X126741418Y-78089837D01*
X126595644Y-78150218D01*
X126518267Y-78165609D01*
X126440892Y-78181000D01*
X126283108Y-78181000D01*
X126205733Y-78165609D01*
X126128356Y-78150218D01*
X125982582Y-78089837D01*
X125851392Y-78002178D01*
X125739822Y-77890608D01*
X125652163Y-77759418D01*
X125591782Y-77613644D01*
X125561000Y-77458891D01*
X125561000Y-77301109D01*
X125591782Y-77146356D01*
X125652163Y-77000582D01*
X125739822Y-76869392D01*
X125851392Y-76757822D01*
X125982582Y-76670163D01*
X126128356Y-76609782D01*
X126283108Y-76579000D01*
X126440892Y-76579000D01*
X126595644Y-76609782D01*
X126595644Y-76609782D01*
G37*
G36*
X139595644Y-76609782D02*
G01*
X139741418Y-76670163D01*
X139872608Y-76757822D01*
X139984178Y-76869392D01*
X140071837Y-77000582D01*
X140132218Y-77146356D01*
X140163000Y-77301109D01*
X140163000Y-77458891D01*
X140132218Y-77613644D01*
X140071837Y-77759418D01*
X139984178Y-77890608D01*
X139872608Y-78002178D01*
X139741418Y-78089837D01*
X139595644Y-78150218D01*
X139518267Y-78165609D01*
X139440892Y-78181000D01*
X139283108Y-78181000D01*
X139205733Y-78165609D01*
X139128356Y-78150218D01*
X138982582Y-78089837D01*
X138851392Y-78002178D01*
X138739822Y-77890608D01*
X138652163Y-77759418D01*
X138591782Y-77613644D01*
X138561000Y-77458891D01*
X138561000Y-77301109D01*
X138591782Y-77146356D01*
X138652163Y-77000582D01*
X138739822Y-76869392D01*
X138851392Y-76757822D01*
X138982582Y-76670163D01*
X139128356Y-76609782D01*
X139283108Y-76579000D01*
X139440892Y-76579000D01*
X139595644Y-76609782D01*
X139595644Y-76609782D01*
G37*
G36*
X91693644Y-76609782D02*
G01*
X91839418Y-76670163D01*
X91970608Y-76757822D01*
X92082178Y-76869392D01*
X92169837Y-77000582D01*
X92230218Y-77146356D01*
X92261000Y-77301109D01*
X92261000Y-77458891D01*
X92230218Y-77613644D01*
X92169837Y-77759418D01*
X92082178Y-77890608D01*
X91970608Y-78002178D01*
X91839418Y-78089837D01*
X91693644Y-78150218D01*
X91616267Y-78165609D01*
X91538892Y-78181000D01*
X91381108Y-78181000D01*
X91303733Y-78165609D01*
X91226356Y-78150218D01*
X91080582Y-78089837D01*
X90949392Y-78002178D01*
X90837822Y-77890608D01*
X90750163Y-77759418D01*
X90689782Y-77613644D01*
X90659000Y-77458891D01*
X90659000Y-77301109D01*
X90689782Y-77146356D01*
X90750163Y-77000582D01*
X90837822Y-76869392D01*
X90949392Y-76757822D01*
X91080582Y-76670163D01*
X91226356Y-76609782D01*
X91381108Y-76579000D01*
X91538892Y-76579000D01*
X91693644Y-76609782D01*
X91693644Y-76609782D01*
G37*
G36*
X94233644Y-76609782D02*
G01*
X94379418Y-76670163D01*
X94510608Y-76757822D01*
X94622178Y-76869392D01*
X94709837Y-77000582D01*
X94770218Y-77146356D01*
X94801000Y-77301109D01*
X94801000Y-77458891D01*
X94770218Y-77613644D01*
X94709837Y-77759418D01*
X94622178Y-77890608D01*
X94510608Y-78002178D01*
X94379418Y-78089837D01*
X94233644Y-78150218D01*
X94156267Y-78165609D01*
X94078892Y-78181000D01*
X93921108Y-78181000D01*
X93843733Y-78165609D01*
X93766356Y-78150218D01*
X93620582Y-78089837D01*
X93489392Y-78002178D01*
X93377822Y-77890608D01*
X93290163Y-77759418D01*
X93229782Y-77613644D01*
X93199000Y-77458891D01*
X93199000Y-77301109D01*
X93229782Y-77146356D01*
X93290163Y-77000582D01*
X93377822Y-76869392D01*
X93489392Y-76757822D01*
X93620582Y-76670163D01*
X93766356Y-76609782D01*
X93921108Y-76579000D01*
X94078892Y-76579000D01*
X94233644Y-76609782D01*
X94233644Y-76609782D01*
G37*
G36*
X96773644Y-76609782D02*
G01*
X96919418Y-76670163D01*
X97050608Y-76757822D01*
X97162178Y-76869392D01*
X97249837Y-77000582D01*
X97310218Y-77146356D01*
X97341000Y-77301109D01*
X97341000Y-77458891D01*
X97310218Y-77613644D01*
X97249837Y-77759418D01*
X97162178Y-77890608D01*
X97050608Y-78002178D01*
X96919418Y-78089837D01*
X96773644Y-78150218D01*
X96696267Y-78165609D01*
X96618892Y-78181000D01*
X96461108Y-78181000D01*
X96383733Y-78165609D01*
X96306356Y-78150218D01*
X96160582Y-78089837D01*
X96029392Y-78002178D01*
X95917822Y-77890608D01*
X95830163Y-77759418D01*
X95769782Y-77613644D01*
X95739000Y-77458891D01*
X95739000Y-77301109D01*
X95769782Y-77146356D01*
X95830163Y-77000582D01*
X95917822Y-76869392D01*
X96029392Y-76757822D01*
X96160582Y-76670163D01*
X96306356Y-76609782D01*
X96461108Y-76579000D01*
X96618892Y-76579000D01*
X96773644Y-76609782D01*
X96773644Y-76609782D01*
G37*
G36*
X99313644Y-76609782D02*
G01*
X99459418Y-76670163D01*
X99590608Y-76757822D01*
X99702178Y-76869392D01*
X99789837Y-77000582D01*
X99850218Y-77146356D01*
X99881000Y-77301109D01*
X99881000Y-77458891D01*
X99850218Y-77613644D01*
X99789837Y-77759418D01*
X99702178Y-77890608D01*
X99590608Y-78002178D01*
X99459418Y-78089837D01*
X99313644Y-78150218D01*
X99236267Y-78165609D01*
X99158892Y-78181000D01*
X99001108Y-78181000D01*
X98923733Y-78165609D01*
X98846356Y-78150218D01*
X98700582Y-78089837D01*
X98569392Y-78002178D01*
X98457822Y-77890608D01*
X98370163Y-77759418D01*
X98309782Y-77613644D01*
X98279000Y-77458891D01*
X98279000Y-77301109D01*
X98309782Y-77146356D01*
X98370163Y-77000582D01*
X98457822Y-76869392D01*
X98569392Y-76757822D01*
X98700582Y-76670163D01*
X98846356Y-76609782D01*
X99001108Y-76579000D01*
X99158892Y-76579000D01*
X99313644Y-76609782D01*
X99313644Y-76609782D01*
G37*
G36*
X102153644Y-76609782D02*
G01*
X102299418Y-76670163D01*
X102430608Y-76757822D01*
X102542178Y-76869392D01*
X102629837Y-77000582D01*
X102690218Y-77146356D01*
X102721000Y-77301109D01*
X102721000Y-77458891D01*
X102690218Y-77613644D01*
X102629837Y-77759418D01*
X102542178Y-77890608D01*
X102430608Y-78002178D01*
X102299418Y-78089837D01*
X102153644Y-78150218D01*
X102076267Y-78165609D01*
X101998892Y-78181000D01*
X101841108Y-78181000D01*
X101763733Y-78165609D01*
X101686356Y-78150218D01*
X101540582Y-78089837D01*
X101409392Y-78002178D01*
X101297822Y-77890608D01*
X101210163Y-77759418D01*
X101149782Y-77613644D01*
X101119000Y-77458891D01*
X101119000Y-77301109D01*
X101149782Y-77146356D01*
X101210163Y-77000582D01*
X101297822Y-76869392D01*
X101409392Y-76757822D01*
X101540582Y-76670163D01*
X101686356Y-76609782D01*
X101841108Y-76579000D01*
X101998892Y-76579000D01*
X102153644Y-76609782D01*
X102153644Y-76609782D01*
G37*
G36*
X104693644Y-76609782D02*
G01*
X104839418Y-76670163D01*
X104970608Y-76757822D01*
X105082178Y-76869392D01*
X105169837Y-77000582D01*
X105230218Y-77146356D01*
X105261000Y-77301109D01*
X105261000Y-77458891D01*
X105230218Y-77613644D01*
X105169837Y-77759418D01*
X105082178Y-77890608D01*
X104970608Y-78002178D01*
X104839418Y-78089837D01*
X104693644Y-78150218D01*
X104616267Y-78165609D01*
X104538892Y-78181000D01*
X104381108Y-78181000D01*
X104303733Y-78165609D01*
X104226356Y-78150218D01*
X104080582Y-78089837D01*
X103949392Y-78002178D01*
X103837822Y-77890608D01*
X103750163Y-77759418D01*
X103689782Y-77613644D01*
X103659000Y-77458891D01*
X103659000Y-77301109D01*
X103689782Y-77146356D01*
X103750163Y-77000582D01*
X103837822Y-76869392D01*
X103949392Y-76757822D01*
X104080582Y-76670163D01*
X104226356Y-76609782D01*
X104381108Y-76579000D01*
X104538892Y-76579000D01*
X104693644Y-76609782D01*
X104693644Y-76609782D01*
G37*
G36*
X112313644Y-76609782D02*
G01*
X112459418Y-76670163D01*
X112590608Y-76757822D01*
X112702178Y-76869392D01*
X112789837Y-77000582D01*
X112850218Y-77146356D01*
X112881000Y-77301109D01*
X112881000Y-77458891D01*
X112850218Y-77613644D01*
X112789837Y-77759418D01*
X112702178Y-77890608D01*
X112590608Y-78002178D01*
X112459418Y-78089837D01*
X112313644Y-78150218D01*
X112236267Y-78165609D01*
X112158892Y-78181000D01*
X112001108Y-78181000D01*
X111923733Y-78165609D01*
X111846356Y-78150218D01*
X111700582Y-78089837D01*
X111569392Y-78002178D01*
X111457822Y-77890608D01*
X111370163Y-77759418D01*
X111309782Y-77613644D01*
X111279000Y-77458891D01*
X111279000Y-77301109D01*
X111309782Y-77146356D01*
X111370163Y-77000582D01*
X111457822Y-76869392D01*
X111569392Y-76757822D01*
X111700582Y-76670163D01*
X111846356Y-76609782D01*
X112001108Y-76579000D01*
X112158892Y-76579000D01*
X112313644Y-76609782D01*
X112313644Y-76609782D01*
G37*
G36*
X184657644Y-76609782D02*
G01*
X184803418Y-76670163D01*
X184934608Y-76757822D01*
X185046178Y-76869392D01*
X185133837Y-77000582D01*
X185194218Y-77146356D01*
X185225000Y-77301109D01*
X185225000Y-77458891D01*
X185194218Y-77613644D01*
X185133837Y-77759418D01*
X185046178Y-77890608D01*
X184934608Y-78002178D01*
X184803418Y-78089837D01*
X184657644Y-78150218D01*
X184580267Y-78165609D01*
X184502892Y-78181000D01*
X184345108Y-78181000D01*
X184267733Y-78165609D01*
X184190356Y-78150218D01*
X184044582Y-78089837D01*
X183913392Y-78002178D01*
X183801822Y-77890608D01*
X183714163Y-77759418D01*
X183653782Y-77613644D01*
X183623000Y-77458891D01*
X183623000Y-77301109D01*
X183653782Y-77146356D01*
X183714163Y-77000582D01*
X183801822Y-76869392D01*
X183913392Y-76757822D01*
X184044582Y-76670163D01*
X184190356Y-76609782D01*
X184345108Y-76579000D01*
X184502892Y-76579000D01*
X184657644Y-76609782D01*
X184657644Y-76609782D01*
G37*
G36*
X182117644Y-76609782D02*
G01*
X182263418Y-76670163D01*
X182394608Y-76757822D01*
X182506178Y-76869392D01*
X182593837Y-77000582D01*
X182654218Y-77146356D01*
X182685000Y-77301109D01*
X182685000Y-77458891D01*
X182654218Y-77613644D01*
X182593837Y-77759418D01*
X182506178Y-77890608D01*
X182394608Y-78002178D01*
X182263418Y-78089837D01*
X182117644Y-78150218D01*
X182040267Y-78165609D01*
X181962892Y-78181000D01*
X181805108Y-78181000D01*
X181727733Y-78165609D01*
X181650356Y-78150218D01*
X181504582Y-78089837D01*
X181373392Y-78002178D01*
X181261822Y-77890608D01*
X181174163Y-77759418D01*
X181113782Y-77613644D01*
X181083000Y-77458891D01*
X181083000Y-77301109D01*
X181113782Y-77146356D01*
X181174163Y-77000582D01*
X181261822Y-76869392D01*
X181373392Y-76757822D01*
X181504582Y-76670163D01*
X181650356Y-76609782D01*
X181805108Y-76579000D01*
X181962892Y-76579000D01*
X182117644Y-76609782D01*
X182117644Y-76609782D01*
G37*
G36*
X179577644Y-76609782D02*
G01*
X179723418Y-76670163D01*
X179854608Y-76757822D01*
X179966178Y-76869392D01*
X180053837Y-77000582D01*
X180114218Y-77146356D01*
X180145000Y-77301109D01*
X180145000Y-77458891D01*
X180114218Y-77613644D01*
X180053837Y-77759418D01*
X179966178Y-77890608D01*
X179854608Y-78002178D01*
X179723418Y-78089837D01*
X179577644Y-78150218D01*
X179500267Y-78165609D01*
X179422892Y-78181000D01*
X179265108Y-78181000D01*
X179187733Y-78165609D01*
X179110356Y-78150218D01*
X178964582Y-78089837D01*
X178833392Y-78002178D01*
X178721822Y-77890608D01*
X178634163Y-77759418D01*
X178573782Y-77613644D01*
X178543000Y-77458891D01*
X178543000Y-77301109D01*
X178573782Y-77146356D01*
X178634163Y-77000582D01*
X178721822Y-76869392D01*
X178833392Y-76757822D01*
X178964582Y-76670163D01*
X179110356Y-76609782D01*
X179265108Y-76579000D01*
X179422892Y-76579000D01*
X179577644Y-76609782D01*
X179577644Y-76609782D01*
G37*
G36*
X177037644Y-76609782D02*
G01*
X177183418Y-76670163D01*
X177314608Y-76757822D01*
X177426178Y-76869392D01*
X177513837Y-77000582D01*
X177574218Y-77146356D01*
X177605000Y-77301109D01*
X177605000Y-77458891D01*
X177574218Y-77613644D01*
X177513837Y-77759418D01*
X177426178Y-77890608D01*
X177314608Y-78002178D01*
X177183418Y-78089837D01*
X177037644Y-78150218D01*
X176960267Y-78165609D01*
X176882892Y-78181000D01*
X176725108Y-78181000D01*
X176647733Y-78165609D01*
X176570356Y-78150218D01*
X176424582Y-78089837D01*
X176293392Y-78002178D01*
X176181822Y-77890608D01*
X176094163Y-77759418D01*
X176033782Y-77613644D01*
X176003000Y-77458891D01*
X176003000Y-77301109D01*
X176033782Y-77146356D01*
X176094163Y-77000582D01*
X176181822Y-76869392D01*
X176293392Y-76757822D01*
X176424582Y-76670163D01*
X176570356Y-76609782D01*
X176725108Y-76579000D01*
X176882892Y-76579000D01*
X177037644Y-76609782D01*
X177037644Y-76609782D01*
G37*
G36*
X164037644Y-76609782D02*
G01*
X164183418Y-76670163D01*
X164314608Y-76757822D01*
X164426178Y-76869392D01*
X164513837Y-77000582D01*
X164574218Y-77146356D01*
X164605000Y-77301109D01*
X164605000Y-77458891D01*
X164574218Y-77613644D01*
X164513837Y-77759418D01*
X164426178Y-77890608D01*
X164314608Y-78002178D01*
X164183418Y-78089837D01*
X164037644Y-78150218D01*
X163960267Y-78165609D01*
X163882892Y-78181000D01*
X163725108Y-78181000D01*
X163647733Y-78165609D01*
X163570356Y-78150218D01*
X163424582Y-78089837D01*
X163293392Y-78002178D01*
X163181822Y-77890608D01*
X163094163Y-77759418D01*
X163033782Y-77613644D01*
X163003000Y-77458891D01*
X163003000Y-77301109D01*
X163033782Y-77146356D01*
X163094163Y-77000582D01*
X163181822Y-76869392D01*
X163293392Y-76757822D01*
X163424582Y-76670163D01*
X163570356Y-76609782D01*
X163725108Y-76579000D01*
X163882892Y-76579000D01*
X164037644Y-76609782D01*
X164037644Y-76609782D01*
G37*
G36*
X174197644Y-76609782D02*
G01*
X174343418Y-76670163D01*
X174474608Y-76757822D01*
X174586178Y-76869392D01*
X174673837Y-77000582D01*
X174734218Y-77146356D01*
X174765000Y-77301109D01*
X174765000Y-77458891D01*
X174734218Y-77613644D01*
X174673837Y-77759418D01*
X174586178Y-77890608D01*
X174474608Y-78002178D01*
X174343418Y-78089837D01*
X174197644Y-78150218D01*
X174120267Y-78165609D01*
X174042892Y-78181000D01*
X173885108Y-78181000D01*
X173807733Y-78165609D01*
X173730356Y-78150218D01*
X173584582Y-78089837D01*
X173453392Y-78002178D01*
X173341822Y-77890608D01*
X173254163Y-77759418D01*
X173193782Y-77613644D01*
X173163000Y-77458891D01*
X173163000Y-77301109D01*
X173193782Y-77146356D01*
X173254163Y-77000582D01*
X173341822Y-76869392D01*
X173453392Y-76757822D01*
X173584582Y-76670163D01*
X173730356Y-76609782D01*
X173885108Y-76579000D01*
X174042892Y-76579000D01*
X174197644Y-76609782D01*
X174197644Y-76609782D01*
G37*
G36*
X134215644Y-76609782D02*
G01*
X134361418Y-76670163D01*
X134492608Y-76757822D01*
X134604178Y-76869392D01*
X134691837Y-77000582D01*
X134752218Y-77146356D01*
X134783000Y-77301109D01*
X134783000Y-77458891D01*
X134752218Y-77613644D01*
X134691837Y-77759418D01*
X134604178Y-77890608D01*
X134492608Y-78002178D01*
X134361418Y-78089837D01*
X134215644Y-78150218D01*
X134138267Y-78165609D01*
X134060892Y-78181000D01*
X133903108Y-78181000D01*
X133825733Y-78165609D01*
X133748356Y-78150218D01*
X133602582Y-78089837D01*
X133471392Y-78002178D01*
X133359822Y-77890608D01*
X133272163Y-77759418D01*
X133211782Y-77613644D01*
X133181000Y-77458891D01*
X133181000Y-77301109D01*
X133211782Y-77146356D01*
X133272163Y-77000582D01*
X133359822Y-76869392D01*
X133471392Y-76757822D01*
X133602582Y-76670163D01*
X133748356Y-76609782D01*
X133903108Y-76579000D01*
X134060892Y-76579000D01*
X134215644Y-76609782D01*
X134215644Y-76609782D01*
G37*
G36*
X149755644Y-76609782D02*
G01*
X149901418Y-76670163D01*
X150032608Y-76757822D01*
X150144178Y-76869392D01*
X150231837Y-77000582D01*
X150292218Y-77146356D01*
X150323000Y-77301109D01*
X150323000Y-77458891D01*
X150292218Y-77613644D01*
X150231837Y-77759418D01*
X150144178Y-77890608D01*
X150032608Y-78002178D01*
X149901418Y-78089837D01*
X149755644Y-78150218D01*
X149678267Y-78165609D01*
X149600892Y-78181000D01*
X149443108Y-78181000D01*
X149365733Y-78165609D01*
X149288356Y-78150218D01*
X149142582Y-78089837D01*
X149011392Y-78002178D01*
X148899822Y-77890608D01*
X148812163Y-77759418D01*
X148751782Y-77613644D01*
X148721000Y-77458891D01*
X148721000Y-77301109D01*
X148751782Y-77146356D01*
X148812163Y-77000582D01*
X148899822Y-76869392D01*
X149011392Y-76757822D01*
X149142582Y-76670163D01*
X149288356Y-76609782D01*
X149443108Y-76579000D01*
X149600892Y-76579000D01*
X149755644Y-76609782D01*
X149755644Y-76609782D01*
G37*
G36*
X147215644Y-76609782D02*
G01*
X147361418Y-76670163D01*
X147492608Y-76757822D01*
X147604178Y-76869392D01*
X147691837Y-77000582D01*
X147752218Y-77146356D01*
X147783000Y-77301109D01*
X147783000Y-77458891D01*
X147752218Y-77613644D01*
X147691837Y-77759418D01*
X147604178Y-77890608D01*
X147492608Y-78002178D01*
X147361418Y-78089837D01*
X147215644Y-78150218D01*
X147138267Y-78165609D01*
X147060892Y-78181000D01*
X146903108Y-78181000D01*
X146825733Y-78165609D01*
X146748356Y-78150218D01*
X146602582Y-78089837D01*
X146471392Y-78002178D01*
X146359822Y-77890608D01*
X146272163Y-77759418D01*
X146211782Y-77613644D01*
X146181000Y-77458891D01*
X146181000Y-77301109D01*
X146211782Y-77146356D01*
X146272163Y-77000582D01*
X146359822Y-76869392D01*
X146471392Y-76757822D01*
X146602582Y-76670163D01*
X146748356Y-76609782D01*
X146903108Y-76579000D01*
X147060892Y-76579000D01*
X147215644Y-76609782D01*
X147215644Y-76609782D01*
G37*
G36*
X144675644Y-76609782D02*
G01*
X144821418Y-76670163D01*
X144952608Y-76757822D01*
X145064178Y-76869392D01*
X145151837Y-77000582D01*
X145212218Y-77146356D01*
X145243000Y-77301109D01*
X145243000Y-77458891D01*
X145212218Y-77613644D01*
X145151837Y-77759418D01*
X145064178Y-77890608D01*
X144952608Y-78002178D01*
X144821418Y-78089837D01*
X144675644Y-78150218D01*
X144598267Y-78165609D01*
X144520892Y-78181000D01*
X144363108Y-78181000D01*
X144285733Y-78165609D01*
X144208356Y-78150218D01*
X144062582Y-78089837D01*
X143931392Y-78002178D01*
X143819822Y-77890608D01*
X143732163Y-77759418D01*
X143671782Y-77613644D01*
X143641000Y-77458891D01*
X143641000Y-77301109D01*
X143671782Y-77146356D01*
X143732163Y-77000582D01*
X143819822Y-76869392D01*
X143931392Y-76757822D01*
X144062582Y-76670163D01*
X144208356Y-76609782D01*
X144363108Y-76579000D01*
X144520892Y-76579000D01*
X144675644Y-76609782D01*
X144675644Y-76609782D01*
G37*
G36*
X89153644Y-76609782D02*
G01*
X89299418Y-76670163D01*
X89430608Y-76757822D01*
X89542178Y-76869392D01*
X89629837Y-77000582D01*
X89690218Y-77146356D01*
X89721000Y-77301109D01*
X89721000Y-77458891D01*
X89690218Y-77613644D01*
X89629837Y-77759418D01*
X89542178Y-77890608D01*
X89430608Y-78002178D01*
X89299418Y-78089837D01*
X89153644Y-78150218D01*
X89076267Y-78165609D01*
X88998892Y-78181000D01*
X88841108Y-78181000D01*
X88763733Y-78165609D01*
X88686356Y-78150218D01*
X88540582Y-78089837D01*
X88409392Y-78002178D01*
X88297822Y-77890608D01*
X88210163Y-77759418D01*
X88149782Y-77613644D01*
X88119000Y-77458891D01*
X88119000Y-77301109D01*
X88149782Y-77146356D01*
X88210163Y-77000582D01*
X88297822Y-76869392D01*
X88409392Y-76757822D01*
X88540582Y-76670163D01*
X88686356Y-76609782D01*
X88841108Y-76579000D01*
X88998892Y-76579000D01*
X89153644Y-76609782D01*
X89153644Y-76609782D01*
G37*
G36*
X129135644Y-76609782D02*
G01*
X129281418Y-76670163D01*
X129412608Y-76757822D01*
X129524178Y-76869392D01*
X129611837Y-77000582D01*
X129672218Y-77146356D01*
X129703000Y-77301109D01*
X129703000Y-77458891D01*
X129672218Y-77613644D01*
X129611837Y-77759418D01*
X129524178Y-77890608D01*
X129412608Y-78002178D01*
X129281418Y-78089837D01*
X129135644Y-78150218D01*
X129058267Y-78165609D01*
X128980892Y-78181000D01*
X128823108Y-78181000D01*
X128745733Y-78165609D01*
X128668356Y-78150218D01*
X128522582Y-78089837D01*
X128391392Y-78002178D01*
X128279822Y-77890608D01*
X128192163Y-77759418D01*
X128131782Y-77613644D01*
X128101000Y-77458891D01*
X128101000Y-77301109D01*
X128131782Y-77146356D01*
X128192163Y-77000582D01*
X128279822Y-76869392D01*
X128391392Y-76757822D01*
X128522582Y-76670163D01*
X128668356Y-76609782D01*
X128823108Y-76579000D01*
X128980892Y-76579000D01*
X129135644Y-76609782D01*
X129135644Y-76609782D01*
G37*
G36*
X131675644Y-76609782D02*
G01*
X131821418Y-76670163D01*
X131952608Y-76757822D01*
X132064178Y-76869392D01*
X132151837Y-77000582D01*
X132212218Y-77146356D01*
X132243000Y-77301109D01*
X132243000Y-77458891D01*
X132212218Y-77613644D01*
X132151837Y-77759418D01*
X132064178Y-77890608D01*
X131952608Y-78002178D01*
X131821418Y-78089837D01*
X131675644Y-78150218D01*
X131598267Y-78165609D01*
X131520892Y-78181000D01*
X131363108Y-78181000D01*
X131285733Y-78165609D01*
X131208356Y-78150218D01*
X131062582Y-78089837D01*
X130931392Y-78002178D01*
X130819822Y-77890608D01*
X130732163Y-77759418D01*
X130671782Y-77613644D01*
X130641000Y-77458891D01*
X130641000Y-77301109D01*
X130671782Y-77146356D01*
X130732163Y-77000582D01*
X130819822Y-76869392D01*
X130931392Y-76757822D01*
X131062582Y-76670163D01*
X131208356Y-76609782D01*
X131363108Y-76579000D01*
X131520892Y-76579000D01*
X131675644Y-76609782D01*
X131675644Y-76609782D01*
G37*
G36*
X166577644Y-76609782D02*
G01*
X166723418Y-76670163D01*
X166854608Y-76757822D01*
X166966178Y-76869392D01*
X167053837Y-77000582D01*
X167114218Y-77146356D01*
X167145000Y-77301109D01*
X167145000Y-77458891D01*
X167114218Y-77613644D01*
X167053837Y-77759418D01*
X166966178Y-77890608D01*
X166854608Y-78002178D01*
X166723418Y-78089837D01*
X166577644Y-78150218D01*
X166500267Y-78165609D01*
X166422892Y-78181000D01*
X166265108Y-78181000D01*
X166187733Y-78165609D01*
X166110356Y-78150218D01*
X165964582Y-78089837D01*
X165833392Y-78002178D01*
X165721822Y-77890608D01*
X165634163Y-77759418D01*
X165573782Y-77613644D01*
X165543000Y-77458891D01*
X165543000Y-77301109D01*
X165573782Y-77146356D01*
X165634163Y-77000582D01*
X165721822Y-76869392D01*
X165833392Y-76757822D01*
X165964582Y-76670163D01*
X166110356Y-76609782D01*
X166265108Y-76579000D01*
X166422892Y-76579000D01*
X166577644Y-76609782D01*
X166577644Y-76609782D01*
G37*
G36*
X136755644Y-76609782D02*
G01*
X136901418Y-76670163D01*
X137032608Y-76757822D01*
X137144178Y-76869392D01*
X137231837Y-77000582D01*
X137292218Y-77146356D01*
X137323000Y-77301109D01*
X137323000Y-77458891D01*
X137292218Y-77613644D01*
X137231837Y-77759418D01*
X137144178Y-77890608D01*
X137032608Y-78002178D01*
X136901418Y-78089837D01*
X136755644Y-78150218D01*
X136678267Y-78165609D01*
X136600892Y-78181000D01*
X136443108Y-78181000D01*
X136365733Y-78165609D01*
X136288356Y-78150218D01*
X136142582Y-78089837D01*
X136011392Y-78002178D01*
X135899822Y-77890608D01*
X135812163Y-77759418D01*
X135751782Y-77613644D01*
X135721000Y-77458891D01*
X135721000Y-77301109D01*
X135751782Y-77146356D01*
X135812163Y-77000582D01*
X135899822Y-76869392D01*
X136011392Y-76757822D01*
X136142582Y-76670163D01*
X136288356Y-76609782D01*
X136443108Y-76579000D01*
X136600892Y-76579000D01*
X136755644Y-76609782D01*
X136755644Y-76609782D01*
G37*
G36*
X107233644Y-76609782D02*
G01*
X107379418Y-76670163D01*
X107510608Y-76757822D01*
X107622178Y-76869392D01*
X107709837Y-77000582D01*
X107770218Y-77146356D01*
X107801000Y-77301109D01*
X107801000Y-77458891D01*
X107770218Y-77613644D01*
X107709837Y-77759418D01*
X107622178Y-77890608D01*
X107510608Y-78002178D01*
X107379418Y-78089837D01*
X107233644Y-78150218D01*
X107156267Y-78165609D01*
X107078892Y-78181000D01*
X106921108Y-78181000D01*
X106843733Y-78165609D01*
X106766356Y-78150218D01*
X106620582Y-78089837D01*
X106489392Y-78002178D01*
X106377822Y-77890608D01*
X106290163Y-77759418D01*
X106229782Y-77613644D01*
X106199000Y-77458891D01*
X106199000Y-77301109D01*
X106229782Y-77146356D01*
X106290163Y-77000582D01*
X106377822Y-76869392D01*
X106489392Y-76757822D01*
X106620582Y-76670163D01*
X106766356Y-76609782D01*
X106921108Y-76579000D01*
X107078892Y-76579000D01*
X107233644Y-76609782D01*
X107233644Y-76609782D01*
G37*
G36*
X109773644Y-76609782D02*
G01*
X109919418Y-76670163D01*
X110050608Y-76757822D01*
X110162178Y-76869392D01*
X110249837Y-77000582D01*
X110310218Y-77146356D01*
X110341000Y-77301109D01*
X110341000Y-77458891D01*
X110310218Y-77613644D01*
X110249837Y-77759418D01*
X110162178Y-77890608D01*
X110050608Y-78002178D01*
X109919418Y-78089837D01*
X109773644Y-78150218D01*
X109696267Y-78165609D01*
X109618892Y-78181000D01*
X109461108Y-78181000D01*
X109383733Y-78165609D01*
X109306356Y-78150218D01*
X109160582Y-78089837D01*
X109029392Y-78002178D01*
X108917822Y-77890608D01*
X108830163Y-77759418D01*
X108769782Y-77613644D01*
X108739000Y-77458891D01*
X108739000Y-77301109D01*
X108769782Y-77146356D01*
X108830163Y-77000582D01*
X108917822Y-76869392D01*
X109029392Y-76757822D01*
X109160582Y-76670163D01*
X109306356Y-76609782D01*
X109461108Y-76579000D01*
X109618892Y-76579000D01*
X109773644Y-76609782D01*
X109773644Y-76609782D01*
G37*
G36*
X169117644Y-76609782D02*
G01*
X169263418Y-76670163D01*
X169394608Y-76757822D01*
X169506178Y-76869392D01*
X169593837Y-77000582D01*
X169654218Y-77146356D01*
X169685000Y-77301109D01*
X169685000Y-77458891D01*
X169654218Y-77613644D01*
X169593837Y-77759418D01*
X169506178Y-77890608D01*
X169394608Y-78002178D01*
X169263418Y-78089837D01*
X169117644Y-78150218D01*
X169040267Y-78165609D01*
X168962892Y-78181000D01*
X168805108Y-78181000D01*
X168727733Y-78165609D01*
X168650356Y-78150218D01*
X168504582Y-78089837D01*
X168373392Y-78002178D01*
X168261822Y-77890608D01*
X168174163Y-77759418D01*
X168113782Y-77613644D01*
X168083000Y-77458891D01*
X168083000Y-77301109D01*
X168113782Y-77146356D01*
X168174163Y-77000582D01*
X168261822Y-76869392D01*
X168373392Y-76757822D01*
X168504582Y-76670163D01*
X168650356Y-76609782D01*
X168805108Y-76579000D01*
X168962892Y-76579000D01*
X169117644Y-76609782D01*
X169117644Y-76609782D01*
G37*
G36*
X171657644Y-76609782D02*
G01*
X171803418Y-76670163D01*
X171934608Y-76757822D01*
X172046178Y-76869392D01*
X172133837Y-77000582D01*
X172194218Y-77146356D01*
X172225000Y-77301109D01*
X172225000Y-77458891D01*
X172194218Y-77613644D01*
X172133837Y-77759418D01*
X172046178Y-77890608D01*
X171934608Y-78002178D01*
X171803418Y-78089837D01*
X171657644Y-78150218D01*
X171580267Y-78165609D01*
X171502892Y-78181000D01*
X171345108Y-78181000D01*
X171267733Y-78165609D01*
X171190356Y-78150218D01*
X171044582Y-78089837D01*
X170913392Y-78002178D01*
X170801822Y-77890608D01*
X170714163Y-77759418D01*
X170653782Y-77613644D01*
X170623000Y-77458891D01*
X170623000Y-77301109D01*
X170653782Y-77146356D01*
X170714163Y-77000582D01*
X170801822Y-76869392D01*
X170913392Y-76757822D01*
X171044582Y-76670163D01*
X171190356Y-76609782D01*
X171345108Y-76579000D01*
X171502892Y-76579000D01*
X171657644Y-76609782D01*
X171657644Y-76609782D01*
G37*
G36*
X187197644Y-76609782D02*
G01*
X187343418Y-76670163D01*
X187474608Y-76757822D01*
X187586178Y-76869392D01*
X187673837Y-77000582D01*
X187734218Y-77146356D01*
X187765000Y-77301109D01*
X187765000Y-77458891D01*
X187734218Y-77613644D01*
X187673837Y-77759418D01*
X187586178Y-77890608D01*
X187474608Y-78002178D01*
X187343418Y-78089837D01*
X187197644Y-78150218D01*
X187120267Y-78165609D01*
X187042892Y-78181000D01*
X186885108Y-78181000D01*
X186807733Y-78165609D01*
X186730356Y-78150218D01*
X186584582Y-78089837D01*
X186453392Y-78002178D01*
X186341822Y-77890608D01*
X186254163Y-77759418D01*
X186193782Y-77613644D01*
X186163000Y-77458891D01*
X186163000Y-77301109D01*
X186193782Y-77146356D01*
X186254163Y-77000582D01*
X186341822Y-76869392D01*
X186453392Y-76757822D01*
X186584582Y-76670163D01*
X186730356Y-76609782D01*
X186885108Y-76579000D01*
X187042892Y-76579000D01*
X187197644Y-76609782D01*
X187197644Y-76609782D01*
G37*
G36*
X203551357Y-68083606D02*
G01*
X203725333Y-68118212D01*
X204053096Y-68253975D01*
X204348071Y-68451072D01*
X204598928Y-68701929D01*
X204796025Y-68996904D01*
X204931788Y-69324667D01*
X205001000Y-69672618D01*
X205001000Y-70027382D01*
X204931788Y-70375333D01*
X204796025Y-70703096D01*
X204598928Y-70998071D01*
X204348071Y-71248928D01*
X204053096Y-71446025D01*
X203725333Y-71581788D01*
X203377383Y-71651000D01*
X203022617Y-71651000D01*
X202848643Y-71616394D01*
X202674667Y-71581788D01*
X202346904Y-71446025D01*
X202051929Y-71248928D01*
X201801072Y-70998071D01*
X201603975Y-70703096D01*
X201468212Y-70375333D01*
X201399000Y-70027382D01*
X201399000Y-69672618D01*
X201468212Y-69324667D01*
X201603975Y-68996904D01*
X201801072Y-68701929D01*
X202051929Y-68451072D01*
X202346904Y-68253975D01*
X202674667Y-68118212D01*
X202848643Y-68083606D01*
X203022617Y-68049000D01*
X203377383Y-68049000D01*
X203551357Y-68083606D01*
X203551357Y-68083606D01*
G37*
G36*
X58771357Y-68083606D02*
G01*
X58945333Y-68118212D01*
X59273096Y-68253975D01*
X59568071Y-68451072D01*
X59818928Y-68701929D01*
X60016025Y-68996904D01*
X60151788Y-69324667D01*
X60221000Y-69672618D01*
X60221000Y-70027382D01*
X60151788Y-70375333D01*
X60016025Y-70703096D01*
X59818928Y-70998071D01*
X59568071Y-71248928D01*
X59273096Y-71446025D01*
X58945333Y-71581788D01*
X58771357Y-71616394D01*
X58597383Y-71651000D01*
X58242617Y-71651000D01*
X58068643Y-71616394D01*
X57894667Y-71581788D01*
X57566904Y-71446025D01*
X57271929Y-71248928D01*
X57021072Y-70998071D01*
X56823975Y-70703096D01*
X56688212Y-70375333D01*
X56619000Y-70027382D01*
X56619000Y-69672618D01*
X56688212Y-69324667D01*
X56823975Y-68996904D01*
X57021072Y-68701929D01*
X57271929Y-68451072D01*
X57566904Y-68253975D01*
X57894667Y-68118212D01*
X58068643Y-68083606D01*
X58242617Y-68049000D01*
X58597383Y-68049000D01*
X58771357Y-68083606D01*
X58771357Y-68083606D01*
G37*
M02*
