G04 #@! TF.GenerationSoftware,KiCad,Pcbnew,(5.1.4)-1*
G04 #@! TF.CreationDate,2020-03-17T12:53:42-04:00*
G04 #@! TF.ProjectId,counter,636f756e-7465-4722-9e6b-696361645f70,v01*
G04 #@! TF.SameCoordinates,Original*
G04 #@! TF.FileFunction,Copper,L1,Top*
G04 #@! TF.FilePolarity,Positive*
%FSLAX46Y46*%
G04 Gerber Fmt 4.6, Leading zero omitted, Abs format (unit mm)*
G04 Created by KiCad (PCBNEW (5.1.4)-1) date 2020-03-17 12:53:42*
%MOMM*%
%LPD*%
G04 APERTURE LIST*
%ADD10R,0.965200X0.863600*%
%ADD11R,1.380000X1.040000*%
%ADD12R,0.800000X0.980000*%
%ADD13R,2.159000X0.558800*%
%ADD14C,1.500000*%
%ADD15R,1.600000X1.400000*%
%ADD16C,3.500000*%
%ADD17R,1.981200X0.558800*%
%ADD18R,1.160000X1.470000*%
%ADD19R,1.160000X1.820000*%
%ADD20R,1.100000X1.000000*%
%ADD21R,2.420000X1.580000*%
%ADD22C,0.100000*%
%ADD23C,1.600000*%
%ADD24R,2.600000X2.600000*%
%ADD25C,2.600000*%
%ADD26R,1.040000X1.380000*%
%ADD27R,0.980000X0.800000*%
%ADD28R,1.160000X1.680000*%
%ADD29R,0.558800X2.184400*%
%ADD30R,2.184400X0.558800*%
%ADD31R,2.057400X0.558800*%
%ADD32R,2.000000X3.800000*%
%ADD33R,2.000000X1.500000*%
%ADD34C,1.524000*%
%ADD35O,2.200000X2.200000*%
%ADD36R,2.200000X2.200000*%
%ADD37C,1.676400*%
%ADD38C,0.800000*%
%ADD39C,0.200000*%
%ADD40C,0.500000*%
%ADD41C,1.000000*%
%ADD42C,0.750000*%
%ADD43C,0.300000*%
G04 APERTURE END LIST*
D10*
X67056000Y-108800900D03*
X67056000Y-107200700D03*
D11*
X162560000Y-101524000D03*
X162560000Y-99644000D03*
D12*
X107837000Y-73660000D03*
X106163000Y-73660000D03*
D13*
X141063800Y-101555000D03*
X141063800Y-102825000D03*
X141063800Y-104095000D03*
X141063800Y-105365000D03*
X141063800Y-106635000D03*
X141063800Y-107905000D03*
X141063800Y-109175000D03*
X141063800Y-110445000D03*
X147820200Y-110445000D03*
X147820200Y-109175000D03*
X147820200Y-107905000D03*
X147820200Y-106635000D03*
X147820200Y-105365000D03*
X147820200Y-104095000D03*
X147820200Y-102825000D03*
X147820200Y-101555000D03*
D14*
X112080000Y-92620000D03*
X109540000Y-92620000D03*
X107000000Y-92620000D03*
X104460000Y-92620000D03*
X101960000Y-92620000D03*
X107000000Y-77380000D03*
X109540000Y-77380000D03*
X112080000Y-77380000D03*
X104460000Y-77380000D03*
X101920000Y-77380000D03*
D11*
X87630000Y-101524000D03*
X87630000Y-99644000D03*
D15*
X148526000Y-128615000D03*
X140526000Y-128615000D03*
X148526000Y-124115000D03*
X140526000Y-124115000D03*
D16*
X203200000Y-69850000D03*
X58420000Y-69850000D03*
X203200000Y-130810000D03*
X58420000Y-130810000D03*
D17*
X189687200Y-113919000D03*
X189687200Y-115189000D03*
X189687200Y-116459000D03*
X189687200Y-117729000D03*
X189687200Y-118999000D03*
X189687200Y-120269000D03*
X189687200Y-121539000D03*
X194614800Y-121539000D03*
X194614800Y-120269000D03*
X194614800Y-118999000D03*
X194614800Y-117729000D03*
X194614800Y-116459000D03*
X194614800Y-115189000D03*
X194614800Y-113919000D03*
D18*
X119498000Y-133731000D03*
X117738000Y-133731000D03*
D19*
X153592000Y-122555000D03*
X156542000Y-122555000D03*
D20*
X164377000Y-131064000D03*
X166077000Y-131064000D03*
D21*
X58421000Y-79756000D03*
X61721000Y-79756000D03*
D20*
X197827000Y-82931000D03*
X196127000Y-82931000D03*
D21*
X73711800Y-97561400D03*
X77011800Y-97561400D03*
D22*
G36*
X68999504Y-76862104D02*
G01*
X69023773Y-76865704D01*
X69047571Y-76871665D01*
X69070671Y-76879930D01*
X69092849Y-76890420D01*
X69113893Y-76903033D01*
X69133598Y-76917647D01*
X69151777Y-76934123D01*
X69168253Y-76952302D01*
X69182867Y-76972007D01*
X69195480Y-76993051D01*
X69205970Y-77015229D01*
X69214235Y-77038329D01*
X69220196Y-77062127D01*
X69223796Y-77086396D01*
X69225000Y-77110900D01*
X69225000Y-78260900D01*
X69223796Y-78285404D01*
X69220196Y-78309673D01*
X69214235Y-78333471D01*
X69205970Y-78356571D01*
X69195480Y-78378749D01*
X69182867Y-78399793D01*
X69168253Y-78419498D01*
X69151777Y-78437677D01*
X69133598Y-78454153D01*
X69113893Y-78468767D01*
X69092849Y-78481380D01*
X69070671Y-78491870D01*
X69047571Y-78500135D01*
X69023773Y-78506096D01*
X68999504Y-78509696D01*
X68975000Y-78510900D01*
X67875000Y-78510900D01*
X67850496Y-78509696D01*
X67826227Y-78506096D01*
X67802429Y-78500135D01*
X67779329Y-78491870D01*
X67757151Y-78481380D01*
X67736107Y-78468767D01*
X67716402Y-78454153D01*
X67698223Y-78437677D01*
X67681747Y-78419498D01*
X67667133Y-78399793D01*
X67654520Y-78378749D01*
X67644030Y-78356571D01*
X67635765Y-78333471D01*
X67629804Y-78309673D01*
X67626204Y-78285404D01*
X67625000Y-78260900D01*
X67625000Y-77110900D01*
X67626204Y-77086396D01*
X67629804Y-77062127D01*
X67635765Y-77038329D01*
X67644030Y-77015229D01*
X67654520Y-76993051D01*
X67667133Y-76972007D01*
X67681747Y-76952302D01*
X67698223Y-76934123D01*
X67716402Y-76917647D01*
X67736107Y-76903033D01*
X67757151Y-76890420D01*
X67779329Y-76879930D01*
X67802429Y-76871665D01*
X67826227Y-76865704D01*
X67850496Y-76862104D01*
X67875000Y-76860900D01*
X68975000Y-76860900D01*
X68999504Y-76862104D01*
X68999504Y-76862104D01*
G37*
D23*
X68425000Y-77685900D03*
D22*
G36*
X71849504Y-76862104D02*
G01*
X71873773Y-76865704D01*
X71897571Y-76871665D01*
X71920671Y-76879930D01*
X71942849Y-76890420D01*
X71963893Y-76903033D01*
X71983598Y-76917647D01*
X72001777Y-76934123D01*
X72018253Y-76952302D01*
X72032867Y-76972007D01*
X72045480Y-76993051D01*
X72055970Y-77015229D01*
X72064235Y-77038329D01*
X72070196Y-77062127D01*
X72073796Y-77086396D01*
X72075000Y-77110900D01*
X72075000Y-78260900D01*
X72073796Y-78285404D01*
X72070196Y-78309673D01*
X72064235Y-78333471D01*
X72055970Y-78356571D01*
X72045480Y-78378749D01*
X72032867Y-78399793D01*
X72018253Y-78419498D01*
X72001777Y-78437677D01*
X71983598Y-78454153D01*
X71963893Y-78468767D01*
X71942849Y-78481380D01*
X71920671Y-78491870D01*
X71897571Y-78500135D01*
X71873773Y-78506096D01*
X71849504Y-78509696D01*
X71825000Y-78510900D01*
X70725000Y-78510900D01*
X70700496Y-78509696D01*
X70676227Y-78506096D01*
X70652429Y-78500135D01*
X70629329Y-78491870D01*
X70607151Y-78481380D01*
X70586107Y-78468767D01*
X70566402Y-78454153D01*
X70548223Y-78437677D01*
X70531747Y-78419498D01*
X70517133Y-78399793D01*
X70504520Y-78378749D01*
X70494030Y-78356571D01*
X70485765Y-78333471D01*
X70479804Y-78309673D01*
X70476204Y-78285404D01*
X70475000Y-78260900D01*
X70475000Y-77110900D01*
X70476204Y-77086396D01*
X70479804Y-77062127D01*
X70485765Y-77038329D01*
X70494030Y-77015229D01*
X70504520Y-76993051D01*
X70517133Y-76972007D01*
X70531747Y-76952302D01*
X70548223Y-76934123D01*
X70566402Y-76917647D01*
X70586107Y-76903033D01*
X70607151Y-76890420D01*
X70629329Y-76879930D01*
X70652429Y-76871665D01*
X70676227Y-76865704D01*
X70700496Y-76862104D01*
X70725000Y-76860900D01*
X71825000Y-76860900D01*
X71849504Y-76862104D01*
X71849504Y-76862104D01*
G37*
D23*
X71275000Y-77685900D03*
D24*
X61087000Y-102616000D03*
D25*
X55087000Y-102616000D03*
X58087000Y-107316000D03*
D13*
X185262200Y-101555000D03*
X185262200Y-102825000D03*
X185262200Y-104095000D03*
X185262200Y-105365000D03*
X185262200Y-106635000D03*
X185262200Y-107905000D03*
X185262200Y-109175000D03*
X185262200Y-110445000D03*
X178505800Y-110445000D03*
X178505800Y-109175000D03*
X178505800Y-107905000D03*
X178505800Y-106635000D03*
X178505800Y-105365000D03*
X178505800Y-104095000D03*
X178505800Y-102825000D03*
X178505800Y-101555000D03*
X165505800Y-101555000D03*
X165505800Y-102825000D03*
X165505800Y-104095000D03*
X165505800Y-105365000D03*
X165505800Y-106635000D03*
X165505800Y-107905000D03*
X165505800Y-109175000D03*
X165505800Y-110445000D03*
X172262200Y-110445000D03*
X172262200Y-109175000D03*
X172262200Y-107905000D03*
X172262200Y-106635000D03*
X172262200Y-105365000D03*
X172262200Y-104095000D03*
X172262200Y-102825000D03*
X172262200Y-101555000D03*
X110378200Y-101555000D03*
X110378200Y-102825000D03*
X110378200Y-104095000D03*
X110378200Y-105365000D03*
X110378200Y-106635000D03*
X110378200Y-107905000D03*
X110378200Y-109175000D03*
X110378200Y-110445000D03*
X103621800Y-110445000D03*
X103621800Y-109175000D03*
X103621800Y-107905000D03*
X103621800Y-106635000D03*
X103621800Y-105365000D03*
X103621800Y-104095000D03*
X103621800Y-102825000D03*
X103621800Y-101555000D03*
X90621800Y-101555000D03*
X90621800Y-102825000D03*
X90621800Y-104095000D03*
X90621800Y-105365000D03*
X90621800Y-106635000D03*
X90621800Y-107905000D03*
X90621800Y-109175000D03*
X90621800Y-110445000D03*
X97378200Y-110445000D03*
X97378200Y-109175000D03*
X97378200Y-107905000D03*
X97378200Y-106635000D03*
X97378200Y-105365000D03*
X97378200Y-104095000D03*
X97378200Y-102825000D03*
X97378200Y-101555000D03*
D26*
X139370000Y-133731000D03*
X137490000Y-133731000D03*
X140767000Y-98298000D03*
X138887000Y-98298000D03*
X101295000Y-98806000D03*
X103175000Y-98806000D03*
D27*
X73914000Y-77699800D03*
X73914000Y-79373800D03*
D11*
X197993000Y-120320000D03*
X197993000Y-118440000D03*
D26*
X197561000Y-116205000D03*
X199441000Y-116205000D03*
D12*
X181047000Y-73660000D03*
X182721000Y-73660000D03*
X145279000Y-73660000D03*
X143605000Y-73660000D03*
D11*
X125222000Y-101524000D03*
X125222000Y-99644000D03*
D12*
X169721000Y-73660000D03*
X168047000Y-73660000D03*
X130605000Y-73660000D03*
X132279000Y-73660000D03*
X93163000Y-73660000D03*
X94837000Y-73660000D03*
D26*
X117678000Y-129159000D03*
X119558000Y-129159000D03*
X87757000Y-129032000D03*
X89637000Y-129032000D03*
D28*
X154738600Y-119329200D03*
X151788600Y-119329200D03*
D11*
X202692000Y-105842000D03*
X202692000Y-103962000D03*
D13*
X134820200Y-101555000D03*
X134820200Y-102825000D03*
X134820200Y-104095000D03*
X134820200Y-105365000D03*
X134820200Y-106635000D03*
X134820200Y-107905000D03*
X134820200Y-109175000D03*
X134820200Y-110445000D03*
X128063800Y-110445000D03*
X128063800Y-109175000D03*
X128063800Y-107905000D03*
X128063800Y-106635000D03*
X128063800Y-105365000D03*
X128063800Y-104095000D03*
X128063800Y-102825000D03*
X128063800Y-101555000D03*
D15*
X105982000Y-124115000D03*
X113982000Y-124115000D03*
X105982000Y-128615000D03*
X113982000Y-128615000D03*
X127279400Y-124115000D03*
X135279400Y-124115000D03*
X127279400Y-128615000D03*
X135279400Y-128615000D03*
D29*
X94150000Y-120624600D03*
X92880000Y-120624600D03*
X91610000Y-120624600D03*
X90340000Y-120624600D03*
X89070000Y-120624600D03*
X87800000Y-120624600D03*
X86530000Y-120624600D03*
X85260000Y-120624600D03*
X85260000Y-125349000D03*
X86530000Y-125349000D03*
X87800000Y-125349000D03*
X89070000Y-125349000D03*
X90340000Y-125349000D03*
X91610000Y-125349000D03*
X92880000Y-125349000D03*
X94150000Y-125349000D03*
D30*
X194741800Y-97790000D03*
X194741800Y-99060000D03*
X194741800Y-100330000D03*
X194741800Y-101600000D03*
X194741800Y-102870000D03*
X194741800Y-104140000D03*
X194741800Y-105410000D03*
X194741800Y-106680000D03*
X199466200Y-106680000D03*
X199466200Y-105410000D03*
X199466200Y-104140000D03*
X199466200Y-102870000D03*
X199466200Y-101600000D03*
X199466200Y-100330000D03*
X199466200Y-99060000D03*
X199466200Y-97790000D03*
D31*
X160147000Y-124841000D03*
X160147000Y-126111000D03*
X160147000Y-127381000D03*
X160147000Y-128651000D03*
X167005000Y-128651000D03*
X167005000Y-127381000D03*
X167005000Y-126111000D03*
X167005000Y-124841000D03*
D32*
X75286000Y-89535000D03*
D33*
X68986000Y-89535000D03*
X68986000Y-91835000D03*
X68986000Y-87235000D03*
D34*
X193548000Y-85598000D03*
X193548000Y-88138000D03*
X193548000Y-90678000D03*
X193548000Y-93218000D03*
X201168000Y-93218000D03*
X201168000Y-90678000D03*
X201168000Y-88138000D03*
X201168000Y-85598000D03*
D35*
X121412000Y-115697000D03*
D36*
X121412000Y-108077000D03*
X117348000Y-108077000D03*
D35*
X117348000Y-115697000D03*
X80772000Y-113792000D03*
D36*
X80772000Y-121412000D03*
X76708000Y-121412000D03*
D35*
X76708000Y-113792000D03*
D14*
X99080000Y-92620000D03*
X96540000Y-92620000D03*
X94000000Y-92620000D03*
X91460000Y-92620000D03*
X88960000Y-92620000D03*
X94000000Y-77380000D03*
X96540000Y-77380000D03*
X99080000Y-77380000D03*
X91460000Y-77380000D03*
X88920000Y-77380000D03*
X186964000Y-92620000D03*
X184424000Y-92620000D03*
X181884000Y-92620000D03*
X179344000Y-92620000D03*
X176844000Y-92620000D03*
X181884000Y-77380000D03*
X184424000Y-77380000D03*
X186964000Y-77380000D03*
X179344000Y-77380000D03*
X176804000Y-77380000D03*
X163804000Y-77380000D03*
X166344000Y-77380000D03*
X173964000Y-77380000D03*
X171424000Y-77380000D03*
X168884000Y-77380000D03*
X163844000Y-92620000D03*
X166344000Y-92620000D03*
X168884000Y-92620000D03*
X171424000Y-92620000D03*
X173964000Y-92620000D03*
X149522000Y-92620000D03*
X146982000Y-92620000D03*
X144442000Y-92620000D03*
X141902000Y-92620000D03*
X139402000Y-92620000D03*
X144442000Y-77380000D03*
X146982000Y-77380000D03*
X149522000Y-77380000D03*
X141902000Y-77380000D03*
X139362000Y-77380000D03*
X126362000Y-77380000D03*
X128902000Y-77380000D03*
X136522000Y-77380000D03*
X133982000Y-77380000D03*
X131442000Y-77380000D03*
X126402000Y-92620000D03*
X128902000Y-92620000D03*
X131442000Y-92620000D03*
X133982000Y-92620000D03*
X136522000Y-92620000D03*
D37*
X63754000Y-116967000D03*
X61214000Y-116967000D03*
X66294000Y-116967000D03*
D38*
X180213000Y-109220000D03*
X180213000Y-104140000D03*
X183007000Y-107950000D03*
X180975000Y-106426000D03*
X170053000Y-107950000D03*
X168021000Y-106426000D03*
X167259000Y-104140000D03*
X167259000Y-109220000D03*
X105410000Y-109220000D03*
X105276992Y-104543459D03*
X108204000Y-107950000D03*
X106172000Y-106426000D03*
X93218000Y-106426000D03*
X95250000Y-107950000D03*
X92456000Y-104140000D03*
X92456000Y-109220000D03*
X142748000Y-104140000D03*
X142748000Y-109220000D03*
X145542000Y-107950000D03*
X143510000Y-106426000D03*
X132588000Y-107950000D03*
X130556000Y-106426000D03*
X129794000Y-104140000D03*
X129794000Y-109220000D03*
X173990000Y-118110000D03*
X175260000Y-100330000D03*
X160020000Y-95250000D03*
X101600000Y-105410000D03*
X121920000Y-95250000D03*
X136906000Y-101092000D03*
X99314000Y-100584000D03*
X84937600Y-95250000D03*
X176611621Y-104077980D03*
X104140000Y-119761000D03*
X113588800Y-99314000D03*
X152196800Y-99110800D03*
X147447000Y-113538000D03*
X174752000Y-102870000D03*
X108517626Y-102885977D03*
X100322594Y-102870000D03*
X175133000Y-111125000D03*
X152146000Y-103886000D03*
X139700000Y-122174000D03*
X184658000Y-74320400D03*
X171653200Y-74320400D03*
X147218400Y-74320400D03*
X134213600Y-74320400D03*
X109778800Y-74320400D03*
X100711000Y-97028000D03*
X88392000Y-110744000D03*
X101727000Y-110998000D03*
X139319000Y-111252000D03*
X163068000Y-110998000D03*
X192659000Y-107061000D03*
X187706000Y-121793000D03*
X158242000Y-123190000D03*
X85852000Y-129540000D03*
X125984000Y-97536000D03*
X142621000Y-99060000D03*
X163068000Y-98044000D03*
X194437000Y-82423000D03*
X121285000Y-128397000D03*
X84709000Y-118237000D03*
X205740000Y-106680000D03*
X162560000Y-130810000D03*
X88392000Y-97536000D03*
X56134000Y-80264000D03*
X79375000Y-97917000D03*
X66548000Y-78232000D03*
X67310000Y-89535000D03*
X76327000Y-85852000D03*
X96774000Y-74320400D03*
X126492000Y-122174000D03*
X180784500Y-110871000D03*
X125984000Y-109156500D03*
X113792000Y-117856000D03*
X101172604Y-104060705D03*
X99568000Y-116586000D03*
X137409643Y-102974517D03*
X167513000Y-101600000D03*
X174308397Y-104136500D03*
X158242000Y-127381000D03*
X176149000Y-102870000D03*
X192913000Y-120269000D03*
X176300853Y-101881585D03*
X161798000Y-104648000D03*
X143409444Y-102142010D03*
X99695000Y-104267000D03*
X92837000Y-101600000D03*
X137414000Y-104267000D03*
X130175000Y-101600000D03*
X192532000Y-116459000D03*
X191617600Y-117957600D03*
D39*
X180213000Y-109220000D02*
X178423800Y-109220000D01*
X178423800Y-109220000D02*
X178378800Y-109175000D01*
X180213000Y-97790000D02*
X180213000Y-104140000D01*
X176911000Y-94488000D02*
X180213000Y-97790000D01*
X175641999Y-93218999D02*
X176911000Y-94488000D01*
X176677000Y-77380000D02*
X175641999Y-78415001D01*
X175641999Y-78415001D02*
X175641999Y-93218999D01*
X180595242Y-107905000D02*
X179708300Y-107905000D01*
X178166999Y-79490661D02*
X178166999Y-93203999D01*
X179708300Y-107905000D02*
X178378800Y-107905000D01*
X178166999Y-93203999D02*
X181737000Y-96774000D01*
X181737000Y-106763242D02*
X180595242Y-107905000D01*
X181737000Y-96774000D02*
X181737000Y-106763242D01*
X179217000Y-78440660D02*
X178166999Y-79490661D01*
X179217000Y-77380000D02*
X179217000Y-78440660D01*
X186837000Y-77380000D02*
X183045022Y-81171978D01*
X183045022Y-81171978D02*
X183045022Y-105344922D01*
X183045022Y-105344922D02*
X184335100Y-106635000D01*
X184335100Y-106635000D02*
X185135200Y-106635000D01*
X183855700Y-109175000D02*
X185135200Y-109175000D01*
X182306999Y-107359999D02*
X182306999Y-108286001D01*
X182645011Y-107021987D02*
X182306999Y-107359999D01*
X182645011Y-96515255D02*
X182645011Y-107021987D01*
X180706999Y-94577243D02*
X182645011Y-96515255D01*
X180706999Y-80970001D02*
X180706999Y-94577243D01*
X184297000Y-77380000D02*
X180706999Y-80970001D01*
X183195998Y-109175000D02*
X183855700Y-109175000D01*
X182306999Y-108286001D02*
X183195998Y-109175000D01*
D40*
X181047000Y-76543000D02*
X181884000Y-77380000D01*
X181047000Y-73660000D02*
X181047000Y-76543000D01*
D39*
X185090200Y-107950000D02*
X185135200Y-107905000D01*
X183007000Y-107950000D02*
X185090200Y-107950000D01*
X180975000Y-96878000D02*
X180975000Y-105860315D01*
X176717000Y-92620000D02*
X180975000Y-96878000D01*
X180975000Y-105860315D02*
X180975000Y-106426000D01*
X183855700Y-110445000D02*
X185135200Y-110445000D01*
X181906988Y-107194310D02*
X181906988Y-108496288D01*
X182245000Y-106856298D02*
X181906988Y-107194310D01*
X182245000Y-96680944D02*
X182245000Y-106856298D01*
X179966999Y-93369999D02*
X179966999Y-94402943D01*
X179217000Y-92620000D02*
X179966999Y-93369999D01*
X181906988Y-108496288D02*
X183855700Y-110445000D01*
X179966999Y-94402943D02*
X182245000Y-96680944D01*
X184297000Y-92620000D02*
X183547001Y-93369999D01*
X183547001Y-93369999D02*
X183547001Y-104576901D01*
X183547001Y-104576901D02*
X184335100Y-105365000D01*
X184335100Y-105365000D02*
X185135200Y-105365000D01*
X170613067Y-100269865D02*
X170613067Y-104596967D01*
X170613067Y-104596967D02*
X171381100Y-105365000D01*
X171381100Y-105365000D02*
X172181200Y-105365000D01*
X170593001Y-93369999D02*
X170593001Y-100249799D01*
X170593001Y-100249799D02*
X170613067Y-100269865D01*
X171343000Y-92620000D02*
X170593001Y-93369999D01*
X169291000Y-106856298D02*
X168952988Y-107194310D01*
X168952988Y-108496288D02*
X170901700Y-110445000D01*
X168952988Y-107194310D02*
X168952988Y-108496288D01*
X166263000Y-92620000D02*
X167012999Y-93369999D01*
X169291000Y-102555102D02*
X169291000Y-106856298D01*
X169413034Y-102433068D02*
X169291000Y-102555102D01*
X170901700Y-110445000D02*
X172181200Y-110445000D01*
X167012999Y-93369999D02*
X167012999Y-94402943D01*
X169413034Y-100766932D02*
X169413034Y-102433068D01*
X169291000Y-96680944D02*
X169291000Y-100644898D01*
X167012999Y-94402943D02*
X169291000Y-96680944D01*
X169291000Y-100644898D02*
X169413034Y-100766932D01*
X172136200Y-107950000D02*
X172181200Y-107905000D01*
X170053000Y-107950000D02*
X172136200Y-107950000D01*
X168021000Y-102693702D02*
X168021000Y-105860315D01*
X168021000Y-100506298D02*
X168613012Y-101098310D01*
X168021000Y-105860315D02*
X168021000Y-106426000D01*
X168613012Y-101098310D02*
X168613012Y-102101690D01*
X168021000Y-96878000D02*
X168021000Y-100506298D01*
X163763000Y-92620000D02*
X168021000Y-96878000D01*
X168613012Y-102101690D02*
X168021000Y-102693702D01*
D40*
X168047000Y-76543000D02*
X168884000Y-77380000D01*
X168047000Y-73660000D02*
X168047000Y-76543000D01*
D39*
X169691011Y-107021987D02*
X169352999Y-107359999D01*
X169691011Y-100479209D02*
X169813045Y-100601243D01*
X169691011Y-102720791D02*
X169691011Y-107021987D01*
X169813045Y-100601243D02*
X169813045Y-102598757D01*
X170901700Y-109175000D02*
X172181200Y-109175000D01*
X167752999Y-94577243D02*
X169691011Y-96515255D01*
X169813045Y-102598757D02*
X169691011Y-102720791D01*
X169352999Y-108286001D02*
X170241998Y-109175000D01*
X169352999Y-107359999D02*
X169352999Y-108286001D01*
X170241998Y-109175000D02*
X170901700Y-109175000D01*
X169691011Y-96515255D02*
X169691011Y-100479209D01*
X167752999Y-80970001D02*
X167752999Y-94577243D01*
X171343000Y-77380000D02*
X167752999Y-80970001D01*
X171381100Y-106635000D02*
X172181200Y-106635000D01*
X170213056Y-100435554D02*
X170213056Y-102764446D01*
X170213056Y-102764446D02*
X170091022Y-102886480D01*
X170091022Y-102886480D02*
X170091022Y-105344922D01*
X170091022Y-105344922D02*
X171381100Y-106635000D01*
X170091022Y-100313520D02*
X170213056Y-100435554D01*
X173214001Y-78129999D02*
X172695001Y-78129999D01*
X173964000Y-77380000D02*
X173214001Y-78129999D01*
X170091022Y-80733978D02*
X170091022Y-81241978D01*
X172695001Y-78129999D02*
X170091022Y-80733978D01*
X170091022Y-81171978D02*
X170091022Y-81241978D01*
X170091022Y-81241978D02*
X170091022Y-100313520D01*
X168783000Y-96774000D02*
X168783000Y-100702598D01*
X166263000Y-78440660D02*
X165212999Y-79490661D01*
X168783000Y-100702598D02*
X169013023Y-100932621D01*
X166754300Y-107905000D02*
X165424800Y-107905000D01*
X165212999Y-93203999D02*
X168783000Y-96774000D01*
X168783000Y-102497402D02*
X168783000Y-106763242D01*
X169013023Y-102267379D02*
X168783000Y-102497402D01*
X167641242Y-107905000D02*
X166754300Y-107905000D01*
X169013023Y-100932621D02*
X169013023Y-102267379D01*
X168783000Y-106763242D02*
X167641242Y-107905000D01*
X165212999Y-79490661D02*
X165212999Y-93203999D01*
X166263000Y-77380000D02*
X166263000Y-78440660D01*
X167259000Y-109220000D02*
X165469800Y-109220000D01*
X165469800Y-109220000D02*
X165424800Y-109175000D01*
X163723000Y-77380000D02*
X162687999Y-78415001D01*
X167259000Y-102890002D02*
X167259000Y-103574315D01*
X162687999Y-78415001D02*
X162687999Y-93218999D01*
X162687999Y-93218999D02*
X167259000Y-97790000D01*
X167259000Y-103574315D02*
X167259000Y-104140000D01*
X167259000Y-97790000D02*
X167259000Y-100309998D01*
X167259000Y-100309998D02*
X168213001Y-101263999D01*
X168213001Y-101263999D02*
X168213001Y-101936001D01*
X168213001Y-101936001D02*
X167259000Y-102890002D01*
X105410000Y-109220000D02*
X103620800Y-109220000D01*
X103620800Y-109220000D02*
X103575800Y-109175000D01*
X105401312Y-97781312D02*
X105401312Y-103853454D01*
X100838999Y-78415001D02*
X100838999Y-93218999D01*
X100838999Y-93218999D02*
X105401312Y-97781312D01*
X105276992Y-103977774D02*
X105276992Y-104543459D01*
X105401312Y-103853454D02*
X105276992Y-103977774D01*
X101874000Y-77380000D02*
X100838999Y-78415001D01*
X106229033Y-102097067D02*
X106201334Y-102124766D01*
X104905300Y-107905000D02*
X103575800Y-107905000D01*
X105792242Y-107905000D02*
X104905300Y-107905000D01*
X106919955Y-106777287D02*
X105792242Y-107905000D01*
X106919955Y-104630757D02*
X106919955Y-106777287D01*
X106201334Y-103912136D02*
X106919955Y-104630757D01*
X106201334Y-102124766D02*
X106201334Y-103912136D01*
X106229033Y-96069033D02*
X106229033Y-102097067D01*
X103363999Y-79490661D02*
X103363999Y-93203999D01*
X104414000Y-78440660D02*
X103363999Y-79490661D01*
X104414000Y-77380000D02*
X104414000Y-78440660D01*
X103363999Y-93203999D02*
X106229033Y-96069033D01*
X112034000Y-77380000D02*
X108242022Y-81171978D01*
X107401367Y-103415069D02*
X108119988Y-104133690D01*
X107401367Y-102621833D02*
X107401367Y-103415069D01*
X107429066Y-102340134D02*
X107429066Y-102594134D01*
X109532100Y-106635000D02*
X110332200Y-106635000D01*
X108119988Y-105222888D02*
X109532100Y-106635000D01*
X108119988Y-104133690D02*
X108119988Y-105222888D01*
X107429066Y-102594134D02*
X107401367Y-102621833D01*
X108242022Y-101527178D02*
X107429066Y-102340134D01*
X108242022Y-81171978D02*
X108242022Y-101527178D01*
X105903999Y-80970001D02*
X105903999Y-94577243D01*
X107001356Y-102456144D02*
X107001356Y-103580758D01*
X109494000Y-77380000D02*
X105903999Y-80970001D01*
X107719977Y-104299379D02*
X107719977Y-107144021D01*
X107719977Y-107144021D02*
X107503999Y-107359999D01*
X107503999Y-107359999D02*
X107503999Y-108286001D01*
X108392998Y-109175000D02*
X109052700Y-109175000D01*
X109052700Y-109175000D02*
X110332200Y-109175000D01*
X107001356Y-103580758D02*
X107719977Y-104299379D01*
X107503999Y-108286001D02*
X108392998Y-109175000D01*
X107029055Y-102428445D02*
X107001356Y-102456144D01*
X105903999Y-94577243D02*
X107029055Y-95702299D01*
X107029055Y-95702299D02*
X107029055Y-102428445D01*
D40*
X106163000Y-76543000D02*
X107000000Y-77380000D01*
X106163000Y-73660000D02*
X106163000Y-76543000D01*
D39*
X110287200Y-107950000D02*
X110332200Y-107905000D01*
X108204000Y-107950000D02*
X110287200Y-107950000D01*
X106172000Y-105860315D02*
X106172000Y-106426000D01*
X106172000Y-104448502D02*
X106172000Y-105860315D01*
X105801323Y-101959077D02*
X105801323Y-104077825D01*
X105829022Y-101931378D02*
X105801323Y-101959077D01*
X105829022Y-96535022D02*
X105829022Y-101931378D01*
X101914000Y-92620000D02*
X105829022Y-96535022D01*
X105801323Y-104077825D02*
X106172000Y-104448502D01*
X105163999Y-94402943D02*
X106629044Y-95867988D01*
X106629044Y-102262756D02*
X106601345Y-102290455D01*
X106601345Y-102290455D02*
X106601345Y-103746447D01*
X106601345Y-103746447D02*
X107319966Y-104465068D01*
X107319966Y-106978332D02*
X107103988Y-107194310D01*
X107103988Y-108496288D02*
X109052700Y-110445000D01*
X109052700Y-110445000D02*
X110332200Y-110445000D01*
X106629044Y-95867988D02*
X106629044Y-102262756D01*
X104414000Y-92620000D02*
X105163999Y-93369999D01*
X107319966Y-104465068D02*
X107319966Y-106978332D01*
X105163999Y-93369999D02*
X105163999Y-94402943D01*
X107103988Y-107194310D02*
X107103988Y-108496288D01*
X107801378Y-102787522D02*
X107801378Y-103249380D01*
X108519999Y-103968001D02*
X108519999Y-104352899D01*
X107829077Y-102759823D02*
X107801378Y-102787522D01*
X108744001Y-93369999D02*
X108744001Y-101590899D01*
X108744001Y-101590899D02*
X107829077Y-102505823D01*
X109532100Y-105365000D02*
X110332200Y-105365000D01*
X109494000Y-92620000D02*
X108744001Y-93369999D01*
X108519999Y-104352899D02*
X109532100Y-105365000D01*
X107829077Y-102505823D02*
X107829077Y-102759823D01*
X107801378Y-103249380D02*
X108519999Y-103968001D01*
X95937067Y-100269865D02*
X95937067Y-104723967D01*
X96578100Y-105365000D02*
X97378200Y-105365000D01*
X95937067Y-104723967D02*
X96578100Y-105365000D01*
X96540000Y-99666932D02*
X95937067Y-100269865D01*
X96540000Y-92620000D02*
X96540000Y-99666932D01*
X91460000Y-92620000D02*
X92209999Y-93369999D01*
X92209999Y-94402943D02*
X94488000Y-96680944D01*
X94488000Y-106856298D02*
X94149988Y-107194310D01*
X94149988Y-108496288D02*
X96098700Y-110445000D01*
X96098700Y-110445000D02*
X97378200Y-110445000D01*
X94149988Y-107194310D02*
X94149988Y-108496288D01*
X94488000Y-102682102D02*
X94488000Y-106856298D01*
X94737034Y-102433068D02*
X94488000Y-102682102D01*
X94737034Y-100766932D02*
X94737034Y-102433068D01*
X94488000Y-100517898D02*
X94737034Y-100766932D01*
X94488000Y-96680944D02*
X94488000Y-100517898D01*
X92209999Y-93369999D02*
X92209999Y-94402943D01*
X97333200Y-107950000D02*
X97378200Y-107905000D01*
X95250000Y-107950000D02*
X97333200Y-107950000D01*
X93218000Y-102820702D02*
X93218000Y-105860315D01*
X93937012Y-101098310D02*
X93937012Y-102101690D01*
X88960000Y-92620000D02*
X93556012Y-97216012D01*
X93556012Y-100717310D02*
X93937012Y-101098310D01*
X93218000Y-105860315D02*
X93218000Y-106426000D01*
X93937012Y-102101690D02*
X93218000Y-102820702D01*
X93556012Y-97216012D02*
X93556012Y-100717310D01*
D40*
X93163000Y-76543000D02*
X94000000Y-77380000D01*
X93163000Y-73660000D02*
X93163000Y-76543000D01*
D39*
X94888011Y-100352209D02*
X95137045Y-100601243D01*
X94549999Y-107359999D02*
X94549999Y-108286001D01*
X95137045Y-100601243D02*
X95137045Y-102598757D01*
X92949999Y-94577243D02*
X94888011Y-96515255D01*
X94888011Y-107021987D02*
X94549999Y-107359999D01*
X94549999Y-108286001D02*
X95438998Y-109175000D01*
X95438998Y-109175000D02*
X96098700Y-109175000D01*
X94888011Y-96515255D02*
X94888011Y-100352209D01*
X96098700Y-109175000D02*
X97378200Y-109175000D01*
X92949999Y-80970001D02*
X92949999Y-94577243D01*
X96540000Y-77380000D02*
X92949999Y-80970001D01*
X95137045Y-102598757D02*
X94888011Y-102847791D01*
X94888011Y-102847791D02*
X94888011Y-107021987D01*
X95537056Y-102764446D02*
X95288022Y-103013480D01*
X96578100Y-106635000D02*
X97378200Y-106635000D01*
X95288022Y-105344922D02*
X96578100Y-106635000D01*
X95537056Y-100435554D02*
X95537056Y-102764446D01*
X95410056Y-100308554D02*
X95537056Y-100435554D01*
X95410056Y-81049944D02*
X95410056Y-100308554D01*
X95288022Y-103013480D02*
X95288022Y-105344922D01*
X99080000Y-77380000D02*
X95410056Y-81049944D01*
X93980000Y-96774000D02*
X93980000Y-100575598D01*
X93980000Y-106763242D02*
X92838242Y-107905000D01*
X93980000Y-100575598D02*
X94337023Y-100932621D01*
X90409999Y-78430001D02*
X90409999Y-93203999D01*
X93980000Y-102624402D02*
X93980000Y-106763242D01*
X91460000Y-77380000D02*
X90409999Y-78430001D01*
X91901300Y-107905000D02*
X90621800Y-107905000D01*
X92838242Y-107905000D02*
X91901300Y-107905000D01*
X94337023Y-102267379D02*
X93980000Y-102624402D01*
X94337023Y-100932621D02*
X94337023Y-102267379D01*
X90409999Y-93203999D02*
X93980000Y-96774000D01*
X90666800Y-109220000D02*
X90621800Y-109175000D01*
X92456000Y-109220000D02*
X90666800Y-109220000D01*
X92456000Y-97790000D02*
X92456000Y-100182998D01*
X92456000Y-100182998D02*
X93537001Y-101263999D01*
X93537001Y-101936001D02*
X92456000Y-103017002D01*
X87884999Y-93218999D02*
X92456000Y-97790000D01*
X92456000Y-103574315D02*
X92456000Y-104140000D01*
X93537001Y-101263999D02*
X93537001Y-101936001D01*
X87884999Y-78415001D02*
X87884999Y-93218999D01*
X88920000Y-77380000D02*
X87884999Y-78415001D01*
X92456000Y-103017002D02*
X92456000Y-103574315D01*
X142748000Y-109220000D02*
X140958800Y-109220000D01*
X140958800Y-109220000D02*
X140913800Y-109175000D01*
X139212000Y-77380000D02*
X138176999Y-78415001D01*
X143575001Y-98347003D02*
X143575001Y-98486999D01*
X138176999Y-92949001D02*
X143575001Y-98347003D01*
X138176999Y-78415001D02*
X138176999Y-92949001D01*
X143575001Y-98466999D02*
X143575001Y-98486999D01*
X143575001Y-98486999D02*
X143575001Y-101344283D01*
X144059446Y-102828554D02*
X143147999Y-103740001D01*
X143575001Y-101344283D02*
X144059446Y-101828728D01*
X143147999Y-103740001D02*
X142748000Y-104140000D01*
X144059446Y-101828728D02*
X144059446Y-102828554D01*
X144759466Y-106275776D02*
X143130242Y-107905000D01*
X140701999Y-93203999D02*
X144375023Y-96877023D01*
X141752000Y-78440660D02*
X140701999Y-79490661D01*
X144759466Y-101063064D02*
X144759466Y-106275776D01*
X143130242Y-107905000D02*
X142243300Y-107905000D01*
X142243300Y-107905000D02*
X140913800Y-107905000D01*
X140701999Y-79490661D02*
X140701999Y-93203999D01*
X144375023Y-100678621D02*
X144759466Y-101063064D01*
X144375023Y-96877023D02*
X144375023Y-100678621D01*
X141752000Y-77380000D02*
X141752000Y-78440660D01*
X146870100Y-106635000D02*
X147670200Y-106635000D01*
X145580022Y-81171978D02*
X145580022Y-100186520D01*
X145829056Y-100435554D02*
X145829056Y-105593956D01*
X145829056Y-105593956D02*
X146870100Y-106635000D01*
X145580022Y-100186520D02*
X145829056Y-100435554D01*
X149372000Y-77380000D02*
X145580022Y-81171978D01*
X143241999Y-80970001D02*
X143241999Y-94577243D01*
X145459486Y-100631684D02*
X145459486Y-106742512D01*
X146390700Y-109175000D02*
X147670200Y-109175000D01*
X145180011Y-96515255D02*
X145180011Y-100352209D01*
X145730998Y-109175000D02*
X146390700Y-109175000D01*
X145180011Y-100352209D02*
X145459486Y-100631684D01*
X144841999Y-107359999D02*
X144841999Y-108286001D01*
X144841999Y-108286001D02*
X145730998Y-109175000D01*
X145459486Y-106742512D02*
X144841999Y-107359999D01*
X146832000Y-77380000D02*
X143241999Y-80970001D01*
X143241999Y-94577243D02*
X145180011Y-96515255D01*
D40*
X143605000Y-76543000D02*
X144442000Y-77380000D01*
X143605000Y-73660000D02*
X143605000Y-76543000D01*
D39*
X147625200Y-107950000D02*
X147670200Y-107905000D01*
X145542000Y-107950000D02*
X147625200Y-107950000D01*
X139252000Y-92620000D02*
X143975012Y-97343012D01*
X143975012Y-97343012D02*
X143975012Y-100844310D01*
X144409457Y-101278755D02*
X144409457Y-105526543D01*
X144409457Y-105526543D02*
X143909999Y-106026001D01*
X143975012Y-100844310D02*
X144409457Y-101278755D01*
X143909999Y-106026001D02*
X143510000Y-106426000D01*
X146390700Y-110445000D02*
X147670200Y-110445000D01*
X144780000Y-96680944D02*
X144780000Y-100517898D01*
X144441988Y-108496288D02*
X146390700Y-110445000D01*
X145109476Y-106526822D02*
X144441988Y-107194310D01*
X141752000Y-92620000D02*
X141752000Y-93652944D01*
X144780000Y-100517898D02*
X145109476Y-100847374D01*
X145109476Y-100847374D02*
X145109476Y-106526822D01*
X141752000Y-93652944D02*
X144780000Y-96680944D01*
X144441988Y-107194310D02*
X144441988Y-108496288D01*
X146832000Y-92620000D02*
X146082001Y-93369999D01*
X146870100Y-105365000D02*
X147670200Y-105365000D01*
X146082001Y-100122799D02*
X146229067Y-100269865D01*
X146082001Y-93369999D02*
X146082001Y-100122799D01*
X146229067Y-100269865D02*
X146229067Y-104723967D01*
X146229067Y-104723967D02*
X146870100Y-105365000D01*
X133275067Y-104723967D02*
X133916100Y-105365000D01*
X133275067Y-100269865D02*
X133275067Y-104723967D01*
X133916100Y-105365000D02*
X134716200Y-105365000D01*
X133128001Y-100122799D02*
X133275067Y-100269865D01*
X133128001Y-93369999D02*
X133128001Y-100122799D01*
X133878000Y-92620000D02*
X133128001Y-93369999D01*
X131826000Y-106856298D02*
X131487988Y-107194310D01*
X129547999Y-93369999D02*
X129547999Y-94402943D01*
X129547999Y-94402943D02*
X131826000Y-96680944D01*
X131487988Y-107194310D02*
X131487988Y-108496288D01*
X133436700Y-110445000D02*
X134716200Y-110445000D01*
X131826000Y-102682102D02*
X131826000Y-106856298D01*
X131487988Y-108496288D02*
X133436700Y-110445000D01*
X132075034Y-100766932D02*
X132075034Y-102433068D01*
X131826000Y-96680944D02*
X131826000Y-100517898D01*
X128798000Y-92620000D02*
X129547999Y-93369999D01*
X132075034Y-102433068D02*
X131826000Y-102682102D01*
X131826000Y-100517898D02*
X132075034Y-100766932D01*
X134671200Y-107950000D02*
X134716200Y-107905000D01*
X132588000Y-107950000D02*
X134671200Y-107950000D01*
X131275012Y-101098310D02*
X131275012Y-102101690D01*
X126298000Y-92620000D02*
X130556000Y-96878000D01*
X130556000Y-96878000D02*
X130556000Y-100379298D01*
X130556000Y-100379298D02*
X131275012Y-101098310D01*
X130556000Y-102820702D02*
X130556000Y-105860315D01*
X131275012Y-102101690D02*
X130556000Y-102820702D01*
X130556000Y-105860315D02*
X130556000Y-106426000D01*
D40*
X130605000Y-76543000D02*
X131442000Y-77380000D01*
X130605000Y-73660000D02*
X130605000Y-76543000D01*
D39*
X133436700Y-109175000D02*
X134716200Y-109175000D01*
X132226011Y-107021987D02*
X131887999Y-107359999D01*
X131887999Y-107359999D02*
X131887999Y-108286001D01*
X132226011Y-96515255D02*
X132226011Y-100352209D01*
X133878000Y-77380000D02*
X130287999Y-80970001D01*
X132475045Y-102598757D02*
X132226011Y-102847791D01*
X132226011Y-102847791D02*
X132226011Y-107021987D01*
X130287999Y-80970001D02*
X130287999Y-94577243D01*
X131887999Y-108286001D02*
X132776998Y-109175000D01*
X132226011Y-100352209D02*
X132475045Y-100601243D01*
X132475045Y-100601243D02*
X132475045Y-102598757D01*
X132776998Y-109175000D02*
X133436700Y-109175000D01*
X130287999Y-94577243D02*
X132226011Y-96515255D01*
X132626022Y-103013480D02*
X132626022Y-105344922D01*
X132626022Y-81171978D02*
X132626022Y-100186520D01*
X132626022Y-105344922D02*
X133916100Y-106635000D01*
X132626022Y-100186520D02*
X132875056Y-100435554D01*
X133916100Y-106635000D02*
X134716200Y-106635000D01*
X132875056Y-100435554D02*
X132875056Y-102764446D01*
X132875056Y-102764446D02*
X132626022Y-103013480D01*
X136418000Y-77380000D02*
X132626022Y-81171978D01*
X127747999Y-93203999D02*
X131318000Y-96774000D01*
X131318000Y-96774000D02*
X131318000Y-100575598D01*
X127747999Y-79490661D02*
X127747999Y-93203999D01*
X128798000Y-77380000D02*
X128798000Y-78440660D01*
X130176242Y-107905000D02*
X129289300Y-107905000D01*
X129289300Y-107905000D02*
X127959800Y-107905000D01*
X131318000Y-106763242D02*
X130176242Y-107905000D01*
X131318000Y-102624402D02*
X131318000Y-106763242D01*
X131675023Y-102267379D02*
X131318000Y-102624402D01*
X131675023Y-100932621D02*
X131675023Y-102267379D01*
X131318000Y-100575598D02*
X131675023Y-100932621D01*
X128798000Y-78440660D02*
X127747999Y-79490661D01*
X129794000Y-109220000D02*
X128004800Y-109220000D01*
X128004800Y-109220000D02*
X127959800Y-109175000D01*
X130875001Y-101263999D02*
X130875001Y-101936001D01*
X129794000Y-103017002D02*
X129794000Y-103574315D01*
X130875001Y-101936001D02*
X129794000Y-103017002D01*
X126258000Y-77380000D02*
X125222999Y-78415001D01*
X125222999Y-78415001D02*
X125222999Y-93218999D01*
X125222999Y-93218999D02*
X129794000Y-97790000D01*
X129794000Y-97790000D02*
X129794000Y-100182998D01*
X129794000Y-100182998D02*
X130875001Y-101263999D01*
X129794000Y-103574315D02*
X129794000Y-104140000D01*
D40*
X172262200Y-101555000D02*
X174035000Y-101555000D01*
X174035000Y-101555000D02*
X175260000Y-100330000D01*
X134820200Y-101555000D02*
X136443000Y-101555000D01*
X136443000Y-101555000D02*
X136906000Y-101092000D01*
X97378200Y-101555000D02*
X98343000Y-101555000D01*
X98343000Y-101555000D02*
X99314000Y-100584000D01*
X176628641Y-104095000D02*
X176611621Y-104077980D01*
X178505800Y-104095000D02*
X176628641Y-104095000D01*
D41*
X73711800Y-95771400D02*
X74233200Y-95250000D01*
X73711800Y-97561400D02*
X73711800Y-95771400D01*
X74233200Y-95250000D02*
X82550000Y-95250000D01*
X70986000Y-91835000D02*
X72390000Y-90431000D01*
X68986000Y-91835000D02*
X70986000Y-91835000D01*
X72390000Y-90431000D02*
X72390000Y-83439000D01*
X73914000Y-81915000D02*
X73914000Y-79373800D01*
X72390000Y-83439000D02*
X73914000Y-81915000D01*
X74168000Y-104140000D02*
X88138000Y-104140000D01*
D40*
X88183000Y-104095000D02*
X90621800Y-104095000D01*
X88138000Y-104140000D02*
X88183000Y-104095000D01*
D41*
X73152000Y-103124000D02*
X72771000Y-103124000D01*
X71882000Y-104013000D02*
X71882000Y-124333000D01*
X71882000Y-124333000D02*
X80137000Y-132588000D01*
X80137000Y-132588000D02*
X90678000Y-132588000D01*
X90678000Y-132588000D02*
X91376500Y-132588000D01*
D40*
X94107000Y-129857500D02*
X94150000Y-129814500D01*
D41*
X103659500Y-124115000D02*
X105982000Y-124115000D01*
X92837000Y-131127500D02*
X93218000Y-131127500D01*
X94615000Y-132524500D02*
X98996500Y-132524500D01*
X101473000Y-130048000D02*
X101473000Y-126301500D01*
X100869750Y-130651250D02*
X101473000Y-130048000D01*
X100869750Y-130651250D02*
X100869750Y-131032250D01*
X102298500Y-132461000D02*
X111887000Y-132461000D01*
X119498000Y-135466000D02*
X119498000Y-133731000D01*
X111887000Y-132461000D02*
X115570000Y-136144000D01*
X115570000Y-136144000D02*
X118820000Y-136144000D01*
X118820000Y-136144000D02*
X119498000Y-135466000D01*
X119498000Y-133731000D02*
X131826000Y-133731000D01*
X131826000Y-133731000D02*
X134112000Y-136017000D01*
X134112000Y-136017000D02*
X138938000Y-136017000D01*
X139370000Y-135585000D02*
X139370000Y-133731000D01*
X138938000Y-136017000D02*
X139370000Y-135585000D01*
X168097200Y-119329200D02*
X154738600Y-119329200D01*
D40*
X199183000Y-120320000D02*
X199453500Y-120049500D01*
X197993000Y-120320000D02*
X199183000Y-120320000D01*
X199441000Y-120037000D02*
X199441000Y-116205000D01*
X199453500Y-120049500D02*
X199441000Y-120037000D01*
D41*
X198994000Y-85598000D02*
X201168000Y-85598000D01*
X197827000Y-82931000D02*
X197827000Y-84431000D01*
X197827000Y-84431000D02*
X198994000Y-85598000D01*
X201168000Y-85598000D02*
X202946000Y-85598000D01*
X202946000Y-85598000D02*
X204660500Y-87312500D01*
X204660500Y-87312500D02*
X204660500Y-95885000D01*
X101473000Y-126301500D02*
X102679500Y-125095000D01*
X102679500Y-125095000D02*
X103659500Y-124115000D01*
X188513000Y-101555000D02*
X199453500Y-90614500D01*
X197421500Y-123698000D02*
X197993000Y-123126500D01*
X204660500Y-95885000D02*
X203866750Y-96678750D01*
X198564500Y-124841000D02*
X204152500Y-124841000D01*
X204152500Y-124841000D02*
X207454500Y-121539000D01*
X207454500Y-121539000D02*
X207454500Y-100266500D01*
X94107000Y-129857500D02*
X94107000Y-127571500D01*
D40*
X94150000Y-127528500D02*
X94150000Y-125349000D01*
X94107000Y-127571500D02*
X94150000Y-127528500D01*
D41*
X173990000Y-120459500D02*
X173990000Y-119507000D01*
D40*
X173990000Y-119507000D02*
X173990000Y-118110000D01*
D41*
X197993000Y-123126500D02*
X197993000Y-122047000D01*
X202755500Y-97790000D02*
X201803000Y-97790000D01*
D40*
X201803000Y-97790000D02*
X199466200Y-97790000D01*
D41*
X199453500Y-86057500D02*
X198994000Y-85598000D01*
X199453500Y-90614500D02*
X199453500Y-86057500D01*
X188513000Y-101555000D02*
X187457800Y-101555000D01*
D40*
X187457800Y-101555000D02*
X185262200Y-101555000D01*
D41*
X169608500Y-124841000D02*
X169037000Y-124841000D01*
D40*
X169037000Y-124841000D02*
X167005000Y-124841000D01*
D41*
X139370000Y-133731000D02*
X172999400Y-133731000D01*
X172999400Y-133731000D02*
X178993800Y-127736600D01*
D40*
X72364600Y-103759000D02*
X72250300Y-103644700D01*
X73787000Y-103759000D02*
X72364600Y-103759000D01*
D41*
X72250300Y-103644700D02*
X71882000Y-104013000D01*
X72771000Y-103124000D02*
X72250300Y-103644700D01*
X73152000Y-103124000D02*
X73787000Y-103759000D01*
X73787000Y-103759000D02*
X74168000Y-104140000D01*
D40*
X72161400Y-103555800D02*
X72250300Y-103644700D01*
X72161400Y-102133400D02*
X72161400Y-103555800D01*
D41*
X72161400Y-102133400D02*
X73152000Y-103124000D01*
X158178500Y-95250000D02*
X159004000Y-95250000D01*
D40*
X159004000Y-95250000D02*
X160020000Y-95250000D01*
X153193750Y-100107750D02*
X153320750Y-100107750D01*
X152196800Y-99110800D02*
X153193750Y-100107750D01*
D41*
X154146250Y-99282250D02*
X153320750Y-100107750D01*
X153320750Y-100107750D02*
X151873500Y-101555000D01*
X124262600Y-104095000D02*
X125876600Y-104095000D01*
D40*
X125876600Y-104095000D02*
X128063800Y-104095000D01*
D41*
X119951500Y-95250000D02*
X120853200Y-95250000D01*
D40*
X120853200Y-95250000D02*
X121920000Y-95250000D01*
X113988799Y-99713999D02*
X114738150Y-100463350D01*
X113588800Y-99314000D02*
X113988799Y-99713999D01*
D41*
X115627150Y-99574350D02*
X114738150Y-100463350D01*
X114738150Y-100463350D02*
X113646500Y-101555000D01*
X82550000Y-95250000D02*
X83820000Y-95250000D01*
D40*
X83820000Y-95250000D02*
X84937600Y-95250000D01*
D41*
X162769000Y-104095000D02*
X163595600Y-104095000D01*
D40*
X163595600Y-104095000D02*
X165505800Y-104095000D01*
D41*
X151873500Y-101555000D02*
X149942000Y-101555000D01*
D40*
X149942000Y-101555000D02*
X147820200Y-101555000D01*
X141063800Y-104095000D02*
X139909000Y-104095000D01*
X139909000Y-104095000D02*
X136906000Y-101092000D01*
D41*
X113646500Y-101555000D02*
X112553200Y-101555000D01*
D40*
X112553200Y-101555000D02*
X110378200Y-101555000D01*
D41*
X71272400Y-101244400D02*
X72161400Y-102133400D01*
X68986000Y-93585000D02*
X71272400Y-95871400D01*
X68986000Y-91835000D02*
X68986000Y-93585000D01*
X71272400Y-97688400D02*
X71399400Y-97561400D01*
D40*
X71272400Y-96545400D02*
X72288400Y-97561400D01*
D41*
X72288400Y-97561400D02*
X73711800Y-97561400D01*
X71399400Y-97561400D02*
X72288400Y-97561400D01*
X71272400Y-95871400D02*
X71272400Y-96545400D01*
X71272400Y-96545400D02*
X71272400Y-97688400D01*
D40*
X71272400Y-98577400D02*
X72288400Y-97561400D01*
X71272400Y-98653600D02*
X71272400Y-98577400D01*
D41*
X71272400Y-97688400D02*
X71272400Y-98653600D01*
X71272400Y-98653600D02*
X71272400Y-101244400D01*
D40*
X93694250Y-131476750D02*
X93630750Y-131540250D01*
X93694250Y-130270250D02*
X93694250Y-131476750D01*
D41*
X93630750Y-131540250D02*
X94615000Y-132524500D01*
X93218000Y-131127500D02*
X93630750Y-131540250D01*
X92837000Y-131127500D02*
X93694250Y-130270250D01*
X93694250Y-130270250D02*
X94107000Y-129857500D01*
D40*
X93567250Y-131603750D02*
X93630750Y-131540250D01*
X92360750Y-131603750D02*
X93567250Y-131603750D01*
D41*
X91376500Y-132588000D02*
X92360750Y-131603750D01*
X92360750Y-131603750D02*
X92837000Y-131127500D01*
D40*
X101282500Y-131635500D02*
X101377750Y-131540250D01*
X99885500Y-131635500D02*
X101282500Y-131635500D01*
D41*
X101377750Y-131540250D02*
X102298500Y-132461000D01*
X100869750Y-131032250D02*
X101377750Y-131540250D01*
X98996500Y-132524500D02*
X99885500Y-131635500D01*
X99885500Y-131635500D02*
X100869750Y-130651250D01*
D40*
X101473000Y-131445000D02*
X101377750Y-131540250D01*
X101473000Y-130048000D02*
X101473000Y-131445000D01*
X170910250Y-122332750D02*
X171005500Y-122237500D01*
X170910250Y-123539250D02*
X170910250Y-122332750D01*
D41*
X171005500Y-122237500D02*
X168097200Y-119329200D01*
X171608750Y-122840750D02*
X171005500Y-122237500D01*
X171608750Y-122840750D02*
X170910250Y-123539250D01*
X170910250Y-123539250D02*
X169608500Y-124841000D01*
D40*
X171100750Y-122142250D02*
X171005500Y-122237500D01*
X172307250Y-122142250D02*
X171100750Y-122142250D01*
D41*
X172974000Y-121475500D02*
X172307250Y-122142250D01*
X172307250Y-122142250D02*
X171608750Y-122840750D01*
D40*
X173386750Y-122142250D02*
X173513750Y-122015250D01*
X172307250Y-122142250D02*
X173386750Y-122142250D01*
D41*
X172974000Y-121475500D02*
X173513750Y-122015250D01*
X173513750Y-122015250D02*
X176339500Y-124841000D01*
X173990000Y-120459500D02*
X172974000Y-121475500D01*
D40*
X177990500Y-125031500D02*
X178993800Y-126034800D01*
X177990500Y-124841000D02*
X177990500Y-125031500D01*
D41*
X178993800Y-126034800D02*
X178993800Y-124841000D01*
X178993800Y-127736600D02*
X178993800Y-126034800D01*
X176339500Y-124841000D02*
X177990500Y-124841000D01*
X177990500Y-124841000D02*
X178993800Y-124841000D01*
D40*
X180187600Y-124841000D02*
X178993800Y-126034800D01*
X180340000Y-124841000D02*
X180187600Y-124841000D01*
D41*
X178993800Y-124841000D02*
X180340000Y-124841000D01*
X180340000Y-124841000D02*
X196278500Y-124841000D01*
D40*
X198024750Y-124364750D02*
X198056500Y-124333000D01*
X196754750Y-124364750D02*
X198024750Y-124364750D01*
D41*
X198056500Y-124333000D02*
X198564500Y-124841000D01*
X197421500Y-123698000D02*
X198056500Y-124333000D01*
X196278500Y-124841000D02*
X196754750Y-124364750D01*
X196754750Y-124364750D02*
X197421500Y-123698000D01*
X204660500Y-97472500D02*
X203866750Y-96678750D01*
X207454500Y-100266500D02*
X204660500Y-97472500D01*
X203866750Y-96678750D02*
X203231750Y-97313750D01*
X203231750Y-97313750D02*
X202755500Y-97790000D01*
D40*
X156495750Y-98266250D02*
X156718000Y-98044000D01*
X155162250Y-98266250D02*
X156495750Y-98266250D01*
D41*
X156718000Y-98044000D02*
X156051250Y-97377250D01*
X162769000Y-104095000D02*
X156718000Y-98044000D01*
X156051250Y-97377250D02*
X155162250Y-98266250D01*
X155162250Y-98266250D02*
X154146250Y-99282250D01*
D40*
X156940250Y-97821750D02*
X156718000Y-98044000D01*
X156940250Y-96488250D02*
X156940250Y-97821750D01*
D41*
X158178500Y-95250000D02*
X156940250Y-96488250D01*
X156940250Y-96488250D02*
X156051250Y-97377250D01*
D40*
X118332250Y-98329750D02*
X118414800Y-98247200D01*
X116871750Y-98329750D02*
X118332250Y-98329750D01*
D41*
X118414800Y-98247200D02*
X117684550Y-97516950D01*
X124262600Y-104095000D02*
X118414800Y-98247200D01*
X117684550Y-97516950D02*
X116871750Y-98329750D01*
X116871750Y-98329750D02*
X115627150Y-99574350D01*
D40*
X118522750Y-98139250D02*
X118414800Y-98247200D01*
X118522750Y-96678750D02*
X118522750Y-98139250D01*
D41*
X119951500Y-95250000D02*
X118522750Y-96678750D01*
X118522750Y-96678750D02*
X117684550Y-97516950D01*
D40*
X204501750Y-97313750D02*
X204660500Y-97472500D01*
X105982000Y-121603000D02*
X104140000Y-119761000D01*
X105982000Y-124115000D02*
X105982000Y-121603000D01*
X102915000Y-104095000D02*
X103621800Y-104095000D01*
X101600000Y-105410000D02*
X102915000Y-104095000D01*
X194614800Y-113919000D02*
X198564500Y-113919000D01*
X199441000Y-114795500D02*
X199441000Y-116205000D01*
X198564500Y-113919000D02*
X199441000Y-114795500D01*
D41*
X197993000Y-122047000D02*
X197993000Y-120320000D01*
D40*
X203231750Y-97313750D02*
X204501750Y-97313750D01*
X117678000Y-133671000D02*
X117738000Y-133731000D01*
X117678000Y-129159000D02*
X117678000Y-133671000D01*
X113982000Y-124115000D02*
X113982000Y-122619000D01*
X113982000Y-122619000D02*
X117348000Y-119253000D01*
X111178300Y-102825000D02*
X114046000Y-105692700D01*
X110378200Y-102825000D02*
X111178300Y-102825000D01*
X114046000Y-105692700D02*
X114046000Y-112395000D01*
X117348000Y-119253000D02*
X117348000Y-118745000D01*
X119888000Y-118745000D02*
X135636000Y-118745000D01*
X135636000Y-118745000D02*
X139319000Y-118745000D01*
X139319000Y-118745000D02*
X142240000Y-118745000D01*
X147865200Y-102870000D02*
X147820200Y-102825000D01*
X146431000Y-114554000D02*
X146812000Y-114935000D01*
X146812000Y-114935000D02*
X147828000Y-115951000D01*
X147828000Y-115951000D02*
X170688000Y-115951000D01*
X172307200Y-102870000D02*
X172262200Y-102825000D01*
X174752000Y-102870000D02*
X172307200Y-102870000D01*
X170688000Y-115951000D02*
X173482000Y-113157000D01*
X188169000Y-102825000D02*
X185262200Y-102825000D01*
X189484000Y-104140000D02*
X188169000Y-102825000D01*
X189484000Y-109601000D02*
X189484000Y-104140000D01*
X185039000Y-114046000D02*
X189484000Y-109601000D01*
X173482000Y-113157000D02*
X174371000Y-114046000D01*
X174371000Y-114046000D02*
X185039000Y-114046000D01*
X108578603Y-102825000D02*
X108517626Y-102885977D01*
X110378200Y-102825000D02*
X108578603Y-102825000D01*
X97378200Y-102825000D02*
X100277594Y-102825000D01*
X100277594Y-102825000D02*
X100322594Y-102870000D01*
X173482000Y-113157000D02*
X173482000Y-112757968D01*
X173482000Y-112757968D02*
X174714969Y-111524999D01*
X117348000Y-118745000D02*
X117348000Y-115697000D01*
X117348000Y-118745000D02*
X119888000Y-118745000D01*
D39*
X146875500Y-114871500D02*
X146812000Y-114935000D01*
X146875500Y-114109500D02*
X146875500Y-114871500D01*
D40*
X146431000Y-114554000D02*
X146875500Y-114109500D01*
X146875500Y-114109500D02*
X147447000Y-113538000D01*
D39*
X146748500Y-114998500D02*
X146812000Y-114935000D01*
X145986500Y-114998500D02*
X146748500Y-114998500D01*
D40*
X142240000Y-118745000D02*
X145986500Y-114998500D01*
X145986500Y-114998500D02*
X146431000Y-114554000D01*
D39*
X114808000Y-113157000D02*
X114808000Y-113919000D01*
D40*
X114808000Y-113919000D02*
X115189000Y-113538000D01*
X114046000Y-112395000D02*
X114808000Y-113157000D01*
X114808000Y-113157000D02*
X115189000Y-113538000D01*
D39*
X115570000Y-113919000D02*
X114808000Y-113919000D01*
D40*
X115189000Y-113538000D02*
X115570000Y-113919000D01*
X115570000Y-113919000D02*
X117348000Y-115697000D01*
X174714969Y-111524999D02*
X174733001Y-111524999D01*
X174733001Y-111524999D02*
X175133000Y-111125000D01*
X114046000Y-114681000D02*
X114808000Y-113919000D01*
X83591400Y-114681000D02*
X114046000Y-114681000D01*
X80772000Y-113792000D02*
X82702400Y-113792000D01*
X82702400Y-113792000D02*
X83591400Y-114681000D01*
X151085000Y-102825000D02*
X147820200Y-102825000D01*
X152146000Y-103886000D02*
X151085000Y-102825000D01*
X117678000Y-127969000D02*
X117678000Y-129159000D01*
X117678000Y-126511000D02*
X117678000Y-127969000D01*
X115282000Y-124115000D02*
X117678000Y-126511000D01*
X113982000Y-124115000D02*
X115282000Y-124115000D01*
X148526000Y-124115000D02*
X148526000Y-121069600D01*
X150266400Y-119329200D02*
X151788600Y-119329200D01*
X148526000Y-121069600D02*
X150266400Y-119329200D01*
X158918300Y-126111000D02*
X160147000Y-126111000D01*
X156038000Y-126111000D02*
X158918300Y-126111000D01*
X153592000Y-123665000D02*
X156038000Y-126111000D01*
X153592000Y-122555000D02*
X153592000Y-123665000D01*
X152762000Y-122555000D02*
X153592000Y-122555000D01*
X151788600Y-121581600D02*
X152762000Y-122555000D01*
X151788600Y-119329200D02*
X151788600Y-121581600D01*
D42*
X140487400Y-124013400D02*
X140487400Y-122961400D01*
X140487400Y-122961400D02*
X139700000Y-122174000D01*
X183997600Y-73660000D02*
X184658000Y-74320400D01*
X182721000Y-73660000D02*
X183997600Y-73660000D01*
X170992800Y-73660000D02*
X171653200Y-74320400D01*
X169716200Y-73660000D02*
X170992800Y-73660000D01*
X146558000Y-73660000D02*
X147218400Y-74320400D01*
X145281400Y-73660000D02*
X146558000Y-73660000D01*
X133553200Y-73660000D02*
X134213600Y-74320400D01*
X132276600Y-73660000D02*
X133553200Y-73660000D01*
X109118400Y-73660000D02*
X109778800Y-74320400D01*
X107841800Y-73660000D02*
X109118400Y-73660000D01*
X101295000Y-98806000D02*
X101295000Y-97612000D01*
X101295000Y-97612000D02*
X100711000Y-97028000D01*
D40*
X90621800Y-110445000D02*
X88691000Y-110445000D01*
X88691000Y-110445000D02*
X88392000Y-110744000D01*
X103621800Y-110445000D02*
X102280000Y-110445000D01*
X102280000Y-110445000D02*
X101727000Y-110998000D01*
X128063800Y-110445000D02*
X127263700Y-110445000D01*
X141063800Y-110445000D02*
X140126000Y-110445000D01*
X140126000Y-110445000D02*
X139319000Y-111252000D01*
X165505800Y-110445000D02*
X163621000Y-110445000D01*
X163621000Y-110445000D02*
X163068000Y-110998000D01*
X194741800Y-106680000D02*
X193040000Y-106680000D01*
X193040000Y-106680000D02*
X192659000Y-107061000D01*
X189687200Y-121539000D02*
X187960000Y-121539000D01*
X187960000Y-121539000D02*
X187706000Y-121793000D01*
D42*
X156542000Y-122555000D02*
X157607000Y-122555000D01*
X157607000Y-122555000D02*
X158242000Y-123190000D01*
X87757000Y-129032000D02*
X86360000Y-129032000D01*
X86360000Y-129032000D02*
X85852000Y-129540000D01*
X125222000Y-99644000D02*
X125222000Y-98298000D01*
X125222000Y-98298000D02*
X125984000Y-97536000D01*
X140767000Y-98298000D02*
X141859000Y-98298000D01*
X141859000Y-98298000D02*
X142621000Y-99060000D01*
X162560000Y-99644000D02*
X162560000Y-98552000D01*
X162560000Y-98552000D02*
X163068000Y-98044000D01*
X196127000Y-82931000D02*
X194945000Y-82931000D01*
X194945000Y-82931000D02*
X194437000Y-82423000D01*
X119558000Y-129159000D02*
X120523000Y-129159000D01*
X120523000Y-129159000D02*
X121285000Y-128397000D01*
X85260000Y-120624600D02*
X85260000Y-118788000D01*
X85260000Y-118788000D02*
X84709000Y-118237000D01*
X202692000Y-105842000D02*
X204902000Y-105842000D01*
X204902000Y-105842000D02*
X205740000Y-106680000D01*
X164377000Y-131064000D02*
X162814000Y-131064000D01*
X162814000Y-131064000D02*
X162560000Y-130810000D01*
X87630000Y-99644000D02*
X87630000Y-98298000D01*
X87630000Y-98298000D02*
X88392000Y-97536000D01*
X58421000Y-79756000D02*
X56642000Y-79756000D01*
X56642000Y-79756000D02*
X56134000Y-80264000D01*
X77011800Y-97561400D02*
X79019400Y-97561400D01*
X79019400Y-97561400D02*
X79375000Y-97917000D01*
X68425000Y-77685900D02*
X67094100Y-77685900D01*
X67094100Y-77685900D02*
X66548000Y-78232000D01*
X68986000Y-89535000D02*
X67310000Y-89535000D01*
X75286000Y-89535000D02*
X75286000Y-86893000D01*
X75286000Y-86893000D02*
X76327000Y-85852000D01*
X94837000Y-73660000D02*
X96113600Y-73660000D01*
X96113600Y-73660000D02*
X96774000Y-74320400D01*
X158242000Y-123190000D02*
X158242000Y-124714700D01*
X127279400Y-124013400D02*
X127279400Y-122961400D01*
X127279400Y-122961400D02*
X126492000Y-122174000D01*
D40*
X178505800Y-110445000D02*
X180358500Y-110445000D01*
X180358500Y-110445000D02*
X180784500Y-110871000D01*
X126484300Y-110445000D02*
X125984000Y-109944700D01*
X128063800Y-110445000D02*
X126484300Y-110445000D01*
X125984000Y-109944700D02*
X125984000Y-109156500D01*
X158618300Y-124841000D02*
X160147000Y-124841000D01*
X158368300Y-124841000D02*
X158618300Y-124841000D01*
X158242000Y-124714700D02*
X158368300Y-124841000D01*
D39*
X166127000Y-131064000D02*
X166077000Y-131064000D01*
D40*
X167005000Y-130186000D02*
X166127000Y-131064000D01*
X167005000Y-128651000D02*
X167005000Y-130186000D01*
D41*
X66915000Y-87235000D02*
X68986000Y-87235000D01*
X65024000Y-81099000D02*
X65024000Y-85344000D01*
X61721000Y-79756000D02*
X63681000Y-79756000D01*
X63681000Y-79756000D02*
X65024000Y-81099000D01*
X66294000Y-116967000D02*
X66294000Y-115316000D01*
X66294000Y-115316000D02*
X69088000Y-112522000D01*
X69088000Y-112522000D02*
X69088000Y-99695000D01*
X69088000Y-99695000D02*
X61849000Y-92456000D01*
X61849000Y-92456000D02*
X61849000Y-90043000D01*
X65024000Y-85344000D02*
X65786000Y-86106000D01*
X65151000Y-86741000D02*
X65786000Y-86106000D01*
X61849000Y-90043000D02*
X65151000Y-86741000D01*
X65786000Y-86106000D02*
X66421000Y-86741000D01*
X66421000Y-86741000D02*
X66915000Y-87235000D01*
D40*
X66421000Y-86741000D02*
X65151000Y-86741000D01*
X89070000Y-120624600D02*
X89070000Y-119811800D01*
X85971200Y-116713000D02*
X77470000Y-116713000D01*
X76708000Y-115951000D02*
X76708000Y-113792000D01*
X77470000Y-116713000D02*
X76708000Y-115951000D01*
X89789000Y-117094000D02*
X89916000Y-116967000D01*
X89916000Y-116967000D02*
X95631000Y-116967000D01*
X95631000Y-116967000D02*
X96393000Y-117729000D01*
X113665000Y-117729000D02*
X113792000Y-117856000D01*
X101172604Y-103495020D02*
X101172604Y-104060705D01*
X101172604Y-103204096D02*
X101172604Y-103495020D01*
X103621800Y-101555000D02*
X102821700Y-101555000D01*
X102821700Y-101555000D02*
X101172604Y-103204096D01*
X98933000Y-117729000D02*
X99568000Y-117729000D01*
D39*
X88515100Y-118367900D02*
X88582500Y-118300500D01*
X87626100Y-118367900D02*
X88515100Y-118367900D01*
D40*
X88582500Y-118300500D02*
X89789000Y-117094000D01*
X88070600Y-118812400D02*
X87626100Y-118367900D01*
X87626100Y-118367900D02*
X85971200Y-116713000D01*
D39*
X88515100Y-118614100D02*
X88392000Y-118491000D01*
X88515100Y-119256900D02*
X88515100Y-118614100D01*
D40*
X88392000Y-118491000D02*
X88582500Y-118300500D01*
X88070600Y-118812400D02*
X88392000Y-118491000D01*
X89070000Y-119811800D02*
X88515100Y-119256900D01*
X88515100Y-119256900D02*
X88070600Y-118812400D01*
X96393000Y-117729000D02*
X98933000Y-117729000D01*
D43*
X99060000Y-117729000D02*
X99568000Y-117221000D01*
X98933000Y-117729000D02*
X99060000Y-117729000D01*
D40*
X99568000Y-116586000D02*
X99568000Y-117221000D01*
X99568000Y-117221000D02*
X99568000Y-117729000D01*
D43*
X100076000Y-117729000D02*
X99568000Y-117221000D01*
X100203000Y-117729000D02*
X100076000Y-117729000D01*
D40*
X99568000Y-117729000D02*
X100203000Y-117729000D01*
X100203000Y-117729000D02*
X113665000Y-117729000D01*
X137260126Y-102825000D02*
X137409643Y-102974517D01*
X134820200Y-102825000D02*
X137260126Y-102825000D01*
X82372000Y-121412000D02*
X83896000Y-122936000D01*
X80772000Y-121412000D02*
X82372000Y-121412000D01*
X83896000Y-122936000D02*
X92075000Y-122936000D01*
X92880000Y-123741000D02*
X92880000Y-125349000D01*
X92075000Y-122936000D02*
X92880000Y-123741000D01*
X76708000Y-121412000D02*
X80772000Y-121412000D01*
D43*
X73900100Y-77685900D02*
X73914000Y-77699800D01*
D40*
X71275000Y-77685900D02*
X73900100Y-77685900D01*
D41*
X61087000Y-102616000D02*
X64262000Y-102616000D01*
X67056000Y-105410000D02*
X67056000Y-106981290D01*
X64262000Y-102616000D02*
X67056000Y-105410000D01*
X67056000Y-112479607D02*
X67056000Y-108918710D01*
X63754000Y-116967000D02*
X63754000Y-115781607D01*
X63754000Y-115781607D02*
X67056000Y-112479607D01*
D39*
X165550800Y-101600000D02*
X165505800Y-101555000D01*
D40*
X167513000Y-101600000D02*
X165550800Y-101600000D01*
X174708396Y-104536499D02*
X174308397Y-104136500D01*
X176806897Y-106635000D02*
X174708396Y-104536499D01*
X178505800Y-106635000D02*
X176806897Y-106635000D01*
X160147000Y-127381000D02*
X158242000Y-127381000D01*
D39*
X178460800Y-102870000D02*
X178505800Y-102825000D01*
D40*
X176149000Y-102870000D02*
X178460800Y-102870000D01*
X192913000Y-120269000D02*
X194614800Y-120269000D01*
X176627438Y-101555000D02*
X176300853Y-101881585D01*
X178505800Y-101555000D02*
X176627438Y-101555000D01*
X162560000Y-102244000D02*
X162560000Y-101524000D01*
X163141000Y-102825000D02*
X162560000Y-102244000D01*
X165505800Y-102825000D02*
X163141000Y-102825000D01*
X165505800Y-106635000D02*
X163785000Y-106635000D01*
X163785000Y-106635000D02*
X161798000Y-104648000D01*
X141063800Y-101555000D02*
X142822434Y-101555000D01*
X143009445Y-101742011D02*
X143409444Y-102142010D01*
X142822434Y-101555000D02*
X143009445Y-101742011D01*
D39*
X90666800Y-101600000D02*
X90621800Y-101555000D01*
D40*
X92837000Y-101600000D02*
X90666800Y-101600000D01*
X103621800Y-106635000D02*
X101497315Y-106635000D01*
X101497315Y-106635000D02*
X99695000Y-104832685D01*
X99695000Y-104832685D02*
X99695000Y-104267000D01*
D39*
X103175000Y-98806000D02*
X104013000Y-98806000D01*
X104421900Y-102825000D02*
X103621800Y-102825000D01*
X105001301Y-102245599D02*
X104421900Y-102825000D01*
X105001301Y-99794301D02*
X105001301Y-102245599D01*
X104013000Y-98806000D02*
X105001301Y-99794301D01*
D40*
X87630000Y-102244000D02*
X87630000Y-101524000D01*
X88211000Y-102825000D02*
X87630000Y-102244000D01*
X90621800Y-102825000D02*
X88211000Y-102825000D01*
X137490000Y-132841000D02*
X137490000Y-133731000D01*
X135279400Y-125015000D02*
X137490000Y-127225600D01*
X135279400Y-124115000D02*
X135279400Y-125015000D01*
X158918300Y-128651000D02*
X160147000Y-128651000D01*
X156581300Y-130988000D02*
X158918300Y-128651000D01*
X137490000Y-130759000D02*
X137719000Y-130988000D01*
D39*
X137490000Y-130734000D02*
X137490000Y-130759000D01*
D40*
X137719000Y-130988000D02*
X156581300Y-130988000D01*
X137490000Y-130988000D02*
X137719000Y-130988000D01*
X137490000Y-127225600D02*
X137490000Y-130734000D01*
X137490000Y-130734000D02*
X137490000Y-130988000D01*
X137490000Y-131267000D02*
X137490000Y-131217000D01*
X137490000Y-131217000D02*
X137719000Y-130988000D01*
X137490000Y-130988000D02*
X137490000Y-131267000D01*
X137490000Y-131267000D02*
X137490000Y-132841000D01*
X138887000Y-99188000D02*
X138887000Y-98298000D01*
X138887000Y-101927700D02*
X138887000Y-99188000D01*
X139784300Y-102825000D02*
X138887000Y-101927700D01*
X141063800Y-102825000D02*
X139784300Y-102825000D01*
X194614800Y-118999000D02*
X195961000Y-118999000D01*
X196520000Y-118440000D02*
X197993000Y-118440000D01*
X195961000Y-118999000D02*
X196520000Y-118440000D01*
D39*
X197561000Y-116035000D02*
X197561000Y-116205000D01*
D40*
X196715000Y-115189000D02*
X197561000Y-116035000D01*
X194614800Y-115189000D02*
X196715000Y-115189000D01*
X125222000Y-102244000D02*
X125222000Y-101524000D01*
X125803000Y-102825000D02*
X125222000Y-102244000D01*
X128063800Y-102825000D02*
X125803000Y-102825000D01*
X90340000Y-125349000D02*
X90340000Y-126830000D01*
X89637000Y-127533000D02*
X89637000Y-129032000D01*
X90340000Y-126830000D02*
X89637000Y-127533000D01*
X202692000Y-103242000D02*
X202692000Y-103962000D01*
X202320000Y-102870000D02*
X202692000Y-103242000D01*
X199466200Y-102870000D02*
X202320000Y-102870000D01*
X141063800Y-106635000D02*
X139782000Y-106635000D01*
X139782000Y-106635000D02*
X137414000Y-104267000D01*
D39*
X128108800Y-101600000D02*
X128063800Y-101555000D01*
D40*
X130175000Y-101600000D02*
X128108800Y-101600000D01*
X194614800Y-116459000D02*
X192532000Y-116459000D01*
D39*
X191414400Y-118160800D02*
X191617600Y-117957600D01*
D40*
X194614800Y-121539000D02*
X192405000Y-121539000D01*
X191617600Y-120751600D02*
X191617600Y-117957600D01*
X192405000Y-121539000D02*
X191617600Y-120751600D01*
X192532000Y-117729000D02*
X191516000Y-116713000D01*
X194614800Y-117729000D02*
X192532000Y-117729000D01*
X191516000Y-116713000D02*
X191516000Y-113030000D01*
X195554600Y-100330000D02*
X194741800Y-100330000D01*
X191516000Y-113030000D02*
X196834989Y-107711011D01*
X196834989Y-107711011D02*
X196834989Y-101610389D01*
X196834989Y-101610389D02*
X195554600Y-100330000D01*
X200090370Y-93218000D02*
X197485000Y-95823370D01*
X201168000Y-93218000D02*
X200090370Y-93218000D01*
X197485000Y-95823370D02*
X197485000Y-103886000D01*
X197485000Y-103886000D02*
X197739000Y-104140000D01*
X197739000Y-104140000D02*
X199466200Y-104140000D01*
M02*
